<svg width="52" height="39" viewBox="0 0 52 39" fill="none" xmlns="http://www.w3.org/2000/svg">
<path d="M29.9474 8.71899H4.49317C3.29987 8.72264 2.15673 9.19938 1.31443 10.0447C0.472132 10.8899 -0.000566222 12.0348 5.09015e-07 13.2281V27.4494C0.000276513 28.0386 0.1168 28.622 0.342896 29.1661C0.568993 29.7102 0.900219 30.2044 1.3176 30.6203C1.73498 31.0362 2.23032 31.3657 2.77524 31.5898C3.32016 31.814 3.90395 31.9284 4.49317 31.9266H8.05379V36.9762C8.05379 39.0161 9.12198 39.3944 10.4275 37.8239L15.334 31.9266H29.9474C30.5366 31.9284 31.1204 31.814 31.6653 31.5898C32.2102 31.3657 32.7056 31.0362 33.123 30.6203C33.5403 30.2044 33.8716 29.7102 34.0977 29.1661C34.3238 28.622 34.4403 28.0386 34.4406 27.4494V13.2281C34.4411 12.0348 33.9684 10.8899 33.1261 10.0447C32.2838 9.19938 31.1407 8.72264 29.9474 8.71899ZM8.44165 22.7199C7.98977 22.7199 7.54804 22.5859 7.17232 22.3348C6.7966 22.0838 6.50375 21.727 6.33083 21.3095C6.1579 20.892 6.11266 20.4326 6.20081 19.9894C6.28897 19.5462 6.50657 19.1391 6.8261 18.8196C7.14562 18.5001 7.55272 18.2825 7.99592 18.1943C8.43911 18.1062 8.8985 18.1514 9.31598 18.3243C9.73346 18.4972 10.0903 18.7901 10.3413 19.1658C10.5924 19.5415 10.7264 19.9833 10.7264 20.4351C10.7264 21.0411 10.4857 21.6222 10.0572 22.0507C9.62873 22.4792 9.0476 22.7199 8.44165 22.7199ZM17.2203 22.7199C16.7684 22.7199 16.3267 22.5859 15.951 22.3348C15.5752 22.0838 15.2824 21.727 15.1095 21.3095C14.9365 20.892 14.8913 20.4326 14.9794 19.9894C15.0676 19.5462 15.2852 19.1391 15.6047 18.8196C15.9243 18.5001 16.3314 18.2825 16.7746 18.1943C17.2177 18.1062 17.6771 18.1514 18.0946 18.3243C18.5121 18.4972 18.8689 18.7901 19.12 19.1658C19.371 19.5415 19.505 19.9833 19.505 20.4351C19.505 20.7352 19.4459 21.0323 19.3311 21.3095C19.2163 21.5867 19.048 21.8385 18.8358 22.0507C18.6237 22.2629 18.3718 22.4311 18.0946 22.546C17.8174 22.6608 17.5203 22.7199 17.2203 22.7199ZM25.9989 22.7199C25.547 22.7199 25.1053 22.5859 24.7296 22.3348C24.3539 22.0838 24.061 21.727 23.8881 21.3095C23.7152 20.892 23.6699 20.4326 23.7581 19.9894C23.8462 19.5462 24.0638 19.1391 24.3834 18.8196C24.7029 18.5001 25.11 18.2825 25.5532 18.1943C25.9964 18.1062 26.4558 18.1514 26.8732 18.3243C27.2907 18.4972 27.6476 18.7901 27.8986 19.1658C28.1497 19.5415 28.2836 19.9833 28.2836 20.4351C28.2836 21.0411 28.0429 21.6222 27.6145 22.0507C27.186 22.4792 26.6049 22.7199 25.9989 22.7199Z" fill="#086972"/>
<path d="M44.8351 0H22.3137C18.7889 0 15.8623 2.87691 15.8623 6.41878V7.26839H28.8287C32.8364 7.26839 36.0963 10.4832 36.0963 14.5122V25.0465H39.8909L43.7031 29.6148C44.9123 31.0635 45.8966 30.705 45.8898 28.8143L45.8712 24.9709C48.9082 24.4532 51.2474 21.7079 51.2474 18.5197V6.41878C51.2474 2.87691 48.3599 0 44.8351 0Z" fill="#086972" fill-opacity="0.3"/>
</svg>
