<svg width="764" height="852" viewBox="0 0 764 852" fill="none" xmlns="http://www.w3.org/2000/svg">
<rect x="146" width="512" height="852" rx="10" fill="#086972"/>
<mask id="mask0_10109_106569" style="mask-type:alpha" maskUnits="userSpaceOnUse" x="146" y="77" width="45" height="110">
<rect width="44.8462" height="110" transform="matrix(-1 0 0 1 190.846 77)" fill="#D9D9D9"/>
</mask>
<g mask="url(#mask0_10109_106569)">
<path d="M113.001 161.613C96.6445 145.257 96.2653 119.117 112.154 103.229C128.043 87.3402 154.182 87.7194 170.539 104.076C186.895 120.432 187.274 146.572 171.385 162.46C155.497 178.349 129.357 177.97 113.001 161.613Z" fill="#1D747C"/>
</g>
<mask id="mask1_10109_106569" style="mask-type:alpha" maskUnits="userSpaceOnUse" x="567" y="5" width="91" height="176">
<rect width="90.4445" height="176" transform="matrix(-1 0 0 1 657.444 5)" fill="#D9D9D9"/>
</mask>
<g mask="url(#mask1_10109_106569)">
<path d="M621.382 50.9503C621.382 51.1289 621.428 51.3036 621.513 51.4522C621.599 51.6007 621.72 51.7165 621.862 51.7849C622.005 51.8533 622.161 51.8712 622.312 51.8363C622.463 51.8015 622.602 51.7155 622.71 51.5892C622.819 51.4629 622.893 51.3019 622.923 51.1267C622.954 50.9515 622.938 50.7698 622.879 50.6047C622.82 50.4397 622.721 50.2986 622.593 50.1993C622.465 50.1 622.314 50.0469 622.16 50.0469C621.954 50.0469 621.756 50.1421 621.61 50.3115C621.464 50.4809 621.382 50.7107 621.382 50.9503Z" fill="#97E7E2"/>
<path d="M614.693 50.9503C614.693 51.129 614.739 51.3038 614.824 51.4524C614.91 51.6011 615.031 51.7169 615.174 51.7854C615.316 51.8538 615.472 51.8717 615.623 51.8369C615.774 51.802 615.913 51.7159 616.022 51.5895C616.131 51.4631 616.205 51.3021 616.235 51.1268C616.265 50.9515 616.25 50.7697 616.191 50.6046C616.132 50.4395 616.032 50.2983 615.904 50.1991C615.776 50.0998 615.625 50.0468 615.471 50.0469C615.265 50.0469 615.067 50.1421 614.921 50.3116C614.775 50.481 614.693 50.7107 614.693 50.9503Z" fill="#97E7E2"/>
<path d="M608.004 50.9503C608.004 51.129 608.05 51.3036 608.135 51.4522C608.221 51.6007 608.342 51.7165 608.485 51.7849C608.627 51.8533 608.783 51.8712 608.934 51.8363C609.085 51.8015 609.224 51.7154 609.333 51.5891C609.441 51.4627 609.516 51.3018 609.546 51.1265C609.576 50.9513 609.56 50.7696 609.501 50.6046C609.442 50.4395 609.343 50.2984 609.215 50.1991C609.087 50.0999 608.936 50.0469 608.782 50.0469C608.576 50.0469 608.378 50.1421 608.232 50.3115C608.086 50.4809 608.004 50.7107 608.004 50.9503Z" fill="#97E7E2"/>
<path d="M601.316 50.9503C601.316 51.129 601.361 51.3036 601.447 51.4522C601.532 51.6007 601.654 51.7165 601.796 51.7849C601.938 51.8533 602.095 51.8712 602.246 51.8363C602.397 51.8015 602.535 51.7154 602.644 51.5891C602.753 51.4627 602.827 51.3018 602.857 51.1265C602.887 50.9513 602.872 50.7696 602.813 50.6046C602.754 50.4395 602.654 50.2984 602.526 50.1991C602.398 50.0999 602.248 50.0469 602.094 50.0469C601.887 50.0469 601.69 50.1421 601.544 50.3115C601.398 50.4809 601.316 50.7107 601.316 50.9503Z" fill="#97E7E2"/>
<path d="M621.382 58.3136C621.382 58.4922 621.428 58.6669 621.513 58.8154C621.599 58.964 621.72 59.0798 621.862 59.1482C622.005 59.2166 622.161 59.2345 622.312 59.1996C622.463 59.1648 622.602 59.0788 622.71 58.9525C622.819 58.8261 622.893 58.6652 622.923 58.49C622.954 58.3147 622.938 58.1331 622.879 57.968C622.82 57.8029 622.721 57.6618 622.593 57.5625C622.465 57.4632 622.314 57.4102 622.16 57.4102C622.058 57.4101 621.957 57.4335 621.863 57.4788C621.768 57.5242 621.682 57.5908 621.61 57.6747C621.538 57.7586 621.48 57.8582 621.441 57.9678C621.402 58.0774 621.382 58.1949 621.382 58.3136Z" fill="#97E7E2"/>
<path d="M614.693 58.3136C614.693 58.4923 614.739 58.6671 614.824 58.8157C614.91 58.9643 615.031 59.0802 615.174 59.1486C615.316 59.2171 615.472 59.235 615.623 59.2001C615.774 59.1653 615.913 59.0792 616.022 58.9528C616.131 58.8264 616.205 58.6654 616.235 58.49C616.265 58.3147 616.25 58.133 616.191 57.9679C616.132 57.8027 616.032 57.6616 615.904 57.5623C615.776 57.4631 615.625 57.4101 615.471 57.4102C615.265 57.4102 615.067 57.5053 614.921 57.6748C614.775 57.8442 614.693 58.074 614.693 58.3136Z" fill="#97E7E2"/>
<path d="M608.004 58.3136C608.004 58.4922 608.05 58.6669 608.135 58.8155C608.221 58.964 608.342 59.0798 608.485 59.1482C608.627 59.2166 608.783 59.2345 608.934 59.1996C609.085 59.1647 609.224 59.0787 609.333 58.9524C609.441 58.826 609.516 58.665 609.546 58.4898C609.576 58.3146 609.56 58.1329 609.501 57.9678C609.442 57.8028 609.343 57.6617 609.215 57.5624C609.087 57.4631 608.936 57.4102 608.782 57.4102C608.68 57.4101 608.579 57.4335 608.484 57.4789C608.39 57.5242 608.304 57.5908 608.232 57.6747C608.16 57.7586 608.102 57.8582 608.063 57.9678C608.024 58.0774 608.004 58.1949 608.004 58.3136Z" fill="#97E7E2"/>
<path d="M601.316 58.3136C601.316 58.4922 601.361 58.6669 601.447 58.8155C601.532 58.964 601.654 59.0798 601.796 59.1482C601.938 59.2166 602.095 59.2345 602.246 59.1996C602.397 59.1647 602.535 59.0787 602.644 58.9524C602.753 58.826 602.827 58.665 602.857 58.4898C602.887 58.3146 602.872 58.1329 602.813 57.9678C602.754 57.8028 602.654 57.6617 602.526 57.5624C602.398 57.4631 602.248 57.4102 602.094 57.4102C601.887 57.4102 601.69 57.5053 601.544 57.6748C601.398 57.8442 601.316 58.074 601.316 58.3136Z" fill="#97E7E2"/>
<path d="M621.382 65.6768C621.382 65.8555 621.428 66.0302 621.513 66.1787C621.599 66.3273 621.72 66.4431 621.862 66.5115C622.005 66.5798 622.161 66.5977 622.312 66.5629C622.463 66.5281 622.602 66.4421 622.71 66.3157C622.819 66.1894 622.893 66.0285 622.923 65.8532C622.954 65.678 622.938 65.4964 622.879 65.3313C622.82 65.1662 622.721 65.0251 622.593 64.9258C622.465 64.8265 622.314 64.7735 622.16 64.7734C621.954 64.7734 621.756 64.8686 621.61 65.038C621.464 65.2074 621.382 65.4372 621.382 65.6768Z" fill="#97E7E2"/>
<path d="M614.693 65.6768C614.693 65.8556 614.739 66.0303 614.824 66.179C614.91 66.3276 615.031 66.4435 615.174 66.5119C615.316 66.5804 615.472 66.5983 615.623 66.5634C615.774 66.5286 615.913 66.4425 616.022 66.3161C616.131 66.1897 616.205 66.0287 616.235 65.8533C616.265 65.678 616.25 65.4963 616.191 65.3312C616.132 65.166 616.032 65.0249 615.904 64.9256C615.776 64.8264 615.625 64.7734 615.471 64.7734C615.265 64.7735 615.067 64.8687 614.921 65.0381C614.775 65.2075 614.693 65.4373 614.693 65.6768Z" fill="#97E7E2"/>
<path d="M608.004 65.6768C608.004 65.8555 608.05 66.0302 608.135 66.1787C608.221 66.3273 608.342 66.4431 608.485 66.5115C608.627 66.5799 608.783 66.5978 608.934 66.5629C609.085 66.528 609.224 66.442 609.333 66.3156C609.441 66.1893 609.516 66.0283 609.546 65.8531C609.576 65.6778 609.56 65.4962 609.501 65.3311C609.442 65.1661 609.343 65.025 609.215 64.9257C609.087 64.8264 608.936 64.7734 608.782 64.7734C608.576 64.7734 608.378 64.8686 608.232 65.038C608.086 65.2075 608.004 65.4373 608.004 65.6768Z" fill="#97E7E2"/>
<path d="M601.316 65.6768C601.316 65.8555 601.361 66.0302 601.447 66.1787C601.532 66.3273 601.654 66.4431 601.796 66.5115C601.938 66.5799 602.095 66.5978 602.246 66.5629C602.397 66.528 602.535 66.442 602.644 66.3156C602.753 66.1893 602.827 66.0283 602.857 65.8531C602.887 65.6778 602.872 65.4962 602.813 65.3311C602.754 65.1661 602.654 65.025 602.526 64.9257C602.398 64.8264 602.248 64.7734 602.094 64.7734C601.887 64.7734 601.69 64.8686 601.544 65.038C601.398 65.2075 601.316 65.4373 601.316 65.6768Z" fill="#97E7E2"/>
<path d="M621.382 73.0421C621.382 73.2207 621.428 73.3954 621.513 73.544C621.599 73.6925 621.72 73.8083 621.862 73.8767C622.005 73.9451 622.161 73.963 622.312 73.9281C622.463 73.8933 622.602 73.8073 622.71 73.681C622.819 73.5546 622.893 73.3937 622.923 73.2185C622.954 73.0432 622.938 72.8616 622.879 72.6965C622.82 72.5315 622.721 72.3903 622.593 72.2911C622.465 72.1918 622.314 72.1387 622.16 72.1387C622.058 72.1386 621.957 72.162 621.863 72.2074C621.768 72.2528 621.682 72.3193 621.61 72.4032C621.538 72.4871 621.48 72.5867 621.441 72.6963C621.402 72.8059 621.382 72.9234 621.382 73.0421Z" fill="#97E7E2"/>
<path d="M614.693 73.0421C614.693 73.2208 614.739 73.3956 614.824 73.5442C614.91 73.6929 615.031 73.8087 615.174 73.8772C615.316 73.9456 615.472 73.9635 615.623 73.9286C615.774 73.8938 615.913 73.8077 616.022 73.6813C616.131 73.5549 616.205 73.3939 616.235 73.2186C616.265 73.0433 616.25 72.8615 616.191 72.6964C616.132 72.5313 616.032 72.3901 615.904 72.2909C615.776 72.1916 615.625 72.1386 615.471 72.1387C615.265 72.1387 615.067 72.2338 614.921 72.4033C614.775 72.5727 614.693 72.8025 614.693 73.0421Z" fill="#97E7E2"/>
<path d="M608.004 73.0421C608.004 73.2208 608.05 73.3954 608.135 73.544C608.221 73.6925 608.342 73.8083 608.485 73.8767C608.627 73.9451 608.783 73.963 608.934 73.9281C609.085 73.8933 609.224 73.8072 609.333 73.6809C609.441 73.5545 609.516 73.3936 609.546 73.2183C609.576 73.0431 609.56 72.8614 609.501 72.6964C609.442 72.5313 609.343 72.3902 609.215 72.2909C609.087 72.1917 608.936 72.1387 608.782 72.1387C608.68 72.1386 608.579 72.162 608.484 72.2074C608.39 72.2528 608.304 72.3193 608.232 72.4032C608.16 72.4871 608.102 72.5867 608.063 72.6963C608.024 72.8059 608.004 72.9234 608.004 73.0421Z" fill="#97E7E2"/>
<path d="M601.316 73.0421C601.316 73.2208 601.361 73.3954 601.447 73.544C601.532 73.6925 601.654 73.8083 601.796 73.8767C601.938 73.9451 602.095 73.963 602.246 73.9281C602.397 73.8933 602.535 73.8072 602.644 73.6809C602.753 73.5545 602.827 73.3936 602.857 73.2183C602.887 73.0431 602.872 72.8614 602.813 72.6964C602.754 72.5313 602.654 72.3902 602.526 72.2909C602.398 72.1917 602.248 72.1387 602.094 72.1387C601.887 72.1387 601.69 72.2338 601.544 72.4033C601.398 72.5727 601.316 72.8025 601.316 73.0421Z" fill="#97E7E2"/>
<path d="M621.382 22.2882C621.382 22.4668 621.428 22.6415 621.513 22.7901C621.599 22.9386 621.72 23.0544 621.862 23.1228C622.005 23.1912 622.161 23.2091 622.312 23.1742C622.463 23.1394 622.602 23.0534 622.71 22.9271C622.819 22.8008 622.893 22.6398 622.923 22.4646C622.954 22.2894 622.938 22.1077 622.879 21.9426C622.82 21.7776 622.721 21.6364 622.593 21.5371C622.465 21.4378 622.314 21.3848 622.16 21.3848C622.058 21.3847 621.957 21.4081 621.863 21.4535C621.768 21.4988 621.682 21.5654 621.61 21.6493C621.538 21.7332 621.48 21.8328 621.441 21.9424C621.402 22.052 621.382 22.1695 621.382 22.2882Z" fill="#97E7E2"/>
<path d="M614.693 22.2882C614.693 22.4669 614.739 22.6417 614.824 22.7903C614.91 22.939 615.031 23.0548 615.174 23.1233C615.316 23.1917 615.472 23.2096 615.623 23.1747C615.774 23.1399 615.913 23.0538 616.022 22.9274C616.131 22.801 616.205 22.64 616.235 22.4647C616.265 22.2893 616.25 22.1076 616.191 21.9425C616.132 21.7774 616.032 21.6362 615.904 21.537C615.776 21.4377 615.625 21.3847 615.471 21.3848C615.265 21.3848 615.067 21.4799 614.921 21.6494C614.775 21.8188 614.693 22.0486 614.693 22.2882Z" fill="#97E7E2"/>
<path d="M608.004 22.2882C608.004 22.4669 608.05 22.6415 608.135 22.7901C608.221 22.9386 608.342 23.0544 608.485 23.1228C608.627 23.1912 608.783 23.2091 608.934 23.1742C609.085 23.1394 609.224 23.0533 609.333 22.927C609.441 22.8006 609.516 22.6397 609.546 22.4644C609.576 22.2892 609.56 22.1075 609.501 21.9425C609.442 21.7774 609.343 21.6363 609.215 21.537C609.087 21.4378 608.936 21.3848 608.782 21.3848C608.68 21.3847 608.579 21.4081 608.484 21.4535C608.39 21.4989 608.304 21.5654 608.232 21.6493C608.16 21.7332 608.102 21.8328 608.063 21.9424C608.024 22.052 608.004 22.1695 608.004 22.2882Z" fill="#97E7E2"/>
<path d="M601.316 22.2882C601.316 22.4669 601.361 22.6415 601.447 22.7901C601.532 22.9386 601.654 23.0544 601.796 23.1228C601.938 23.1912 602.095 23.2091 602.246 23.1742C602.397 23.1394 602.535 23.0533 602.644 22.927C602.753 22.8006 602.827 22.6397 602.857 22.4644C602.887 22.2892 602.872 22.1075 602.813 21.9425C602.754 21.7774 602.654 21.6363 602.526 21.537C602.398 21.4378 602.248 21.3848 602.094 21.3848C601.887 21.3848 601.69 21.4799 601.544 21.6494C601.398 21.8188 601.316 22.0486 601.316 22.2882Z" fill="#97E7E2"/>
<path d="M621.382 29.6514C621.382 29.8301 621.428 30.0048 621.513 30.1533C621.599 30.3019 621.72 30.4177 621.862 30.4861C622.005 30.5544 622.161 30.5724 622.312 30.5375C622.463 30.5027 622.602 30.4167 622.71 30.2903C622.819 30.164 622.893 30.0031 622.923 29.8279C622.954 29.6526 622.938 29.471 622.879 29.3059C622.82 29.1408 622.721 28.9997 622.593 28.9004C622.465 28.8011 622.314 28.7481 622.16 28.748C621.954 28.748 621.756 28.8432 621.61 29.0126C621.464 29.182 621.382 29.4118 621.382 29.6514Z" fill="#97E7E2"/>
<path d="M614.693 29.6514C614.693 29.8302 614.739 30.005 614.824 30.1536C614.91 30.3022 615.031 30.4181 615.174 30.4865C615.316 30.555 615.472 30.5729 615.623 30.538C615.774 30.5032 615.913 30.4171 616.022 30.2907C616.131 30.1643 616.205 30.0033 616.235 29.8279C616.265 29.6526 616.25 29.4709 616.191 29.3058C616.132 29.1406 616.032 28.9995 615.904 28.9002C615.776 28.801 615.625 28.748 615.471 28.748C615.265 28.7481 615.067 28.8433 614.921 29.0127C614.775 29.1821 614.693 29.4119 614.693 29.6514Z" fill="#97E7E2"/>
<path d="M608.004 29.6514C608.004 29.8301 608.05 30.0048 608.135 30.1534C608.221 30.3019 608.342 30.4177 608.485 30.4861C608.627 30.5545 608.783 30.5724 608.934 30.5375C609.085 30.5026 609.224 30.4166 609.333 30.2903C609.441 30.1639 609.516 30.0029 609.546 29.8277C609.576 29.6525 609.56 29.4708 609.501 29.3057C609.442 29.1407 609.343 28.9996 609.215 28.9003C609.087 28.801 608.936 28.748 608.782 28.748C608.576 28.748 608.378 28.8432 608.232 29.0127C608.086 29.1821 608.004 29.4119 608.004 29.6514Z" fill="#97E7E2"/>
<path d="M601.316 29.6514C601.316 29.8301 601.361 30.0048 601.447 30.1534C601.532 30.3019 601.654 30.4177 601.796 30.4861C601.938 30.5545 602.095 30.5724 602.246 30.5375C602.397 30.5026 602.535 30.4166 602.644 30.2903C602.753 30.1639 602.827 30.0029 602.857 29.8277C602.887 29.6525 602.872 29.4708 602.813 29.3057C602.754 29.1407 602.654 28.9996 602.526 28.9003C602.398 28.801 602.248 28.748 602.094 28.748C601.887 28.748 601.69 28.8432 601.544 29.0127C601.398 29.1821 601.316 29.4119 601.316 29.6514Z" fill="#97E7E2"/>
<path d="M621.382 37.0147C621.382 37.1934 621.428 37.368 621.513 37.5166C621.599 37.6652 621.72 37.781 621.862 37.8493C622.005 37.9177 622.161 37.9356 622.312 37.9008C622.463 37.866 622.602 37.7799 622.71 37.6536C622.819 37.5273 622.893 37.3664 622.923 37.1911C622.954 37.0159 622.938 36.8343 622.879 36.6692C622.82 36.5041 622.721 36.363 622.593 36.2637C622.465 36.1644 622.314 36.1114 622.16 36.1113C622.058 36.1113 621.957 36.1346 621.863 36.18C621.768 36.2254 621.682 36.2919 621.61 36.3758C621.538 36.4597 621.48 36.5593 621.441 36.669C621.402 36.7786 621.382 36.8961 621.382 37.0147Z" fill="#97E7E2"/>
<path d="M614.693 37.0147C614.693 37.1935 614.739 37.3682 614.824 37.5169C614.91 37.6655 615.031 37.7814 615.174 37.8498C615.316 37.9182 615.472 37.9362 615.623 37.9013C615.774 37.8664 615.913 37.7804 616.022 37.654C616.131 37.5276 616.205 37.3665 616.235 37.1912C616.265 37.0159 616.25 36.8342 616.191 36.669C616.132 36.5039 616.032 36.3628 615.904 36.2635C615.776 36.1642 615.625 36.1113 615.471 36.1113C615.265 36.1113 615.067 36.2065 614.921 36.3759C614.775 36.5453 614.693 36.7751 614.693 37.0147Z" fill="#97E7E2"/>
<path d="M608.004 37.0147C608.004 37.1934 608.05 37.3681 608.135 37.5166C608.221 37.6652 608.342 37.781 608.485 37.8494C608.627 37.9177 608.783 37.9356 608.934 37.9008C609.085 37.8659 609.224 37.7799 609.333 37.6535C609.441 37.5272 609.516 37.3662 609.546 37.191C609.576 37.0157 609.56 36.8341 609.501 36.669C609.442 36.5039 609.343 36.3628 609.215 36.2636C609.087 36.1643 608.936 36.1113 608.782 36.1113C608.68 36.1113 608.579 36.1346 608.484 36.18C608.39 36.2254 608.304 36.292 608.232 36.3759C608.16 36.4598 608.102 36.5594 608.063 36.669C608.024 36.7786 608.004 36.8961 608.004 37.0147Z" fill="#97E7E2"/>
<path d="M601.316 37.0147C601.316 37.1934 601.361 37.3681 601.447 37.5166C601.532 37.6652 601.654 37.781 601.796 37.8494C601.938 37.9177 602.095 37.9356 602.246 37.9008C602.397 37.8659 602.535 37.7799 602.644 37.6535C602.753 37.5272 602.827 37.3662 602.857 37.191C602.887 37.0157 602.872 36.8341 602.813 36.669C602.754 36.5039 602.654 36.3628 602.526 36.2636C602.398 36.1643 602.248 36.1113 602.094 36.1113C601.887 36.1113 601.69 36.2065 601.544 36.3759C601.398 36.5453 601.316 36.7751 601.316 37.0147Z" fill="#97E7E2"/>
<path d="M621.382 44.378C621.382 44.5567 621.428 44.7313 621.513 44.8799C621.599 45.0285 621.72 45.1442 621.862 45.2126C622.005 45.281 622.161 45.2989 622.312 45.2641C622.463 45.2292 622.602 45.1432 622.71 45.0169C622.819 44.8906 622.893 44.7296 622.923 44.5544C622.954 44.3792 622.938 44.1976 622.879 44.0325C622.82 43.8674 622.721 43.7263 622.593 43.627C622.465 43.5277 622.314 43.4747 622.16 43.4746C621.954 43.4746 621.756 43.5698 621.61 43.7392C621.464 43.9086 621.382 44.1384 621.382 44.378Z" fill="#97E7E2"/>
<path d="M614.693 44.378C614.693 44.5568 614.739 44.7315 614.824 44.8802C614.91 45.0288 615.031 45.1447 615.174 45.2131C615.316 45.2815 615.472 45.2994 615.623 45.2646C615.774 45.2297 615.913 45.1437 616.022 45.0173C616.131 44.8909 616.205 44.7298 616.235 44.5545C616.265 44.3792 616.25 44.1975 616.191 44.0323C616.132 43.8672 616.032 43.7261 615.904 43.6268C615.776 43.5275 615.625 43.4746 615.471 43.4746C615.265 43.4747 615.067 43.5699 614.921 43.7393C614.775 43.9087 614.693 44.1384 614.693 44.378Z" fill="#97E7E2"/>
<path d="M608.004 44.378C608.004 44.5567 608.05 44.7314 608.135 44.8799C608.221 45.0285 608.342 45.1443 608.485 45.2127C608.627 45.281 608.783 45.2989 608.934 45.2641C609.085 45.2292 609.224 45.1432 609.333 45.0168C609.441 44.8905 609.516 44.7295 609.546 44.5543C609.576 44.379 609.56 44.1974 609.501 44.0323C609.442 43.8672 609.343 43.7261 609.215 43.6269C609.087 43.5276 608.936 43.4746 608.782 43.4746C608.576 43.4746 608.378 43.5698 608.232 43.7392C608.086 43.9086 608.004 44.1384 608.004 44.378Z" fill="#97E7E2"/>
<path d="M601.316 44.378C601.316 44.5567 601.361 44.7314 601.447 44.8799C601.532 45.0285 601.654 45.1443 601.796 45.2127C601.938 45.281 602.095 45.2989 602.246 45.2641C602.397 45.2292 602.535 45.1432 602.644 45.0168C602.753 44.8905 602.827 44.7295 602.857 44.5543C602.887 44.379 602.872 44.1974 602.813 44.0323C602.754 43.8672 602.654 43.7261 602.526 43.6269C602.398 43.5276 602.248 43.4746 602.094 43.4746C601.887 43.4746 601.69 43.5698 601.544 43.7392C601.398 43.9086 601.316 44.1384 601.316 44.378Z" fill="#97E7E2"/>
<path d="M601.316 50.9503C601.316 51.129 601.361 51.3036 601.447 51.4522C601.532 51.6007 601.654 51.7165 601.796 51.7849C601.938 51.8533 602.095 51.8712 602.246 51.8363C602.397 51.8015 602.535 51.7154 602.644 51.5891C602.753 51.4627 602.827 51.3018 602.857 51.1265C602.887 50.9513 602.872 50.7696 602.813 50.6046C602.754 50.4395 602.654 50.2984 602.526 50.1991C602.398 50.0999 602.248 50.0469 602.094 50.0469C601.887 50.0469 601.69 50.1421 601.544 50.3115C601.398 50.4809 601.316 50.7107 601.316 50.9503Z" fill="#97E7E2"/>
<path d="M594.627 50.9503C594.627 51.129 594.672 51.3038 594.758 51.4524C594.843 51.601 594.965 51.7169 595.107 51.7853C595.249 51.8538 595.406 51.8717 595.557 51.8369C595.708 51.802 595.847 51.716 595.956 51.5896C596.064 51.4632 596.139 51.3022 596.169 51.1269C596.199 50.9516 596.183 50.7699 596.124 50.6048C596.065 50.4396 595.966 50.2985 595.838 50.1992C595.71 50.0999 595.559 50.0469 595.405 50.0469C595.199 50.0469 595.001 50.1421 594.855 50.3115C594.709 50.4809 594.627 50.7107 594.627 50.9503Z" fill="#97E7E2"/>
<path d="M587.939 50.9503C587.939 51.129 587.985 51.3038 588.07 51.4524C588.156 51.6011 588.277 51.7169 588.42 51.7854C588.562 51.8538 588.718 51.8717 588.869 51.8369C589.02 51.802 589.159 51.7159 589.268 51.5895C589.377 51.4631 589.451 51.3021 589.481 51.1268C589.511 50.9515 589.496 50.7697 589.437 50.6046C589.378 50.4395 589.278 50.2983 589.15 50.1991C589.022 50.0998 588.871 50.0468 588.717 50.0469C588.511 50.0469 588.313 50.1421 588.167 50.3116C588.021 50.481 587.939 50.7107 587.939 50.9503Z" fill="#97E7E2"/>
<path d="M581.249 50.9503C581.249 51.129 581.295 51.3036 581.38 51.4522C581.466 51.6007 581.587 51.7165 581.73 51.7849C581.872 51.8533 582.028 51.8712 582.179 51.8363C582.33 51.8015 582.469 51.7154 582.578 51.5891C582.687 51.4627 582.761 51.3018 582.791 51.1265C582.821 50.9513 582.805 50.7696 582.746 50.6046C582.688 50.4395 582.588 50.2984 582.46 50.1991C582.332 50.0999 582.181 50.0469 582.027 50.0469C581.821 50.0469 581.623 50.1421 581.477 50.3115C581.331 50.4809 581.249 50.7107 581.249 50.9503Z" fill="#97E7E2"/>
<path d="M601.316 58.3136C601.316 58.4922 601.361 58.6669 601.447 58.8155C601.532 58.964 601.654 59.0798 601.796 59.1482C601.938 59.2166 602.095 59.2345 602.246 59.1996C602.397 59.1647 602.535 59.0787 602.644 58.9524C602.753 58.826 602.827 58.665 602.857 58.4898C602.887 58.3146 602.872 58.1329 602.813 57.9678C602.754 57.8028 602.654 57.6617 602.526 57.5624C602.398 57.4631 602.248 57.4102 602.094 57.4102C601.887 57.4102 601.69 57.5053 601.544 57.6748C601.398 57.8442 601.316 58.074 601.316 58.3136Z" fill="#97E7E2"/>
<path d="M594.627 58.3136C594.627 58.4923 594.672 58.667 594.758 58.8157C594.843 58.9643 594.965 59.0802 595.107 59.1486C595.249 59.2171 595.406 59.235 595.557 59.2001C595.708 59.1653 595.847 59.0793 595.956 58.9529C596.064 58.8265 596.139 58.6655 596.169 58.4902C596.199 58.3149 596.183 58.1332 596.124 57.9681C596.065 57.8029 595.966 57.6618 595.838 57.5625C595.71 57.4632 595.559 57.4102 595.405 57.4102C595.303 57.4101 595.202 57.4335 595.107 57.4788C595.013 57.5242 594.927 57.5908 594.855 57.6747C594.782 57.7586 594.725 57.8582 594.686 57.9678C594.647 58.0774 594.627 58.1949 594.627 58.3136Z" fill="#97E7E2"/>
<path d="M587.939 58.3136C587.939 58.4923 587.985 58.6671 588.07 58.8157C588.156 58.9643 588.277 59.0802 588.42 59.1486C588.562 59.2171 588.718 59.235 588.869 59.2001C589.02 59.1653 589.159 59.0792 589.268 58.9528C589.377 58.8264 589.451 58.6654 589.481 58.49C589.511 58.3147 589.496 58.133 589.437 57.9679C589.378 57.8027 589.278 57.6616 589.15 57.5623C589.022 57.4631 588.871 57.4101 588.717 57.4102C588.511 57.4102 588.313 57.5053 588.167 57.6748C588.021 57.8442 587.939 58.074 587.939 58.3136Z" fill="#97E7E2"/>
<path d="M581.249 58.3136C581.249 58.4922 581.295 58.6669 581.38 58.8155C581.466 58.964 581.587 59.0798 581.73 59.1482C581.872 59.2166 582.028 59.2345 582.179 59.1996C582.33 59.1647 582.469 59.0787 582.578 58.9524C582.687 58.826 582.761 58.665 582.791 58.4898C582.821 58.3146 582.805 58.1329 582.746 57.9678C582.688 57.8028 582.588 57.6617 582.46 57.5624C582.332 57.4631 582.181 57.4102 582.027 57.4102C581.821 57.4102 581.623 57.5053 581.477 57.6748C581.331 57.8442 581.249 58.074 581.249 58.3136Z" fill="#97E7E2"/>
<path d="M601.316 65.6768C601.316 65.8555 601.361 66.0302 601.447 66.1787C601.532 66.3273 601.654 66.4431 601.796 66.5115C601.938 66.5799 602.095 66.5978 602.246 66.5629C602.397 66.528 602.535 66.442 602.644 66.3156C602.753 66.1893 602.827 66.0283 602.857 65.8531C602.887 65.6778 602.872 65.4962 602.813 65.3311C602.754 65.1661 602.654 65.025 602.526 64.9257C602.398 64.8264 602.248 64.7734 602.094 64.7734C601.887 64.7734 601.69 64.8686 601.544 65.038C601.398 65.2075 601.316 65.4373 601.316 65.6768Z" fill="#97E7E2"/>
<path d="M594.627 65.6768C594.627 65.8556 594.672 66.0303 594.758 66.179C594.843 66.3276 594.965 66.4435 595.107 66.5119C595.249 66.5803 595.406 66.5983 595.557 66.5634C595.708 66.5286 595.847 66.4425 595.956 66.3162C596.064 66.1898 596.139 66.0288 596.169 65.8535C596.199 65.6782 596.183 65.4965 596.124 65.3313C596.065 65.1662 595.966 65.0251 595.838 64.9258C595.71 64.8264 595.559 64.7734 595.405 64.7734C595.199 64.7734 595.001 64.8686 594.855 65.038C594.709 65.2074 594.627 65.4372 594.627 65.6768Z" fill="#97E7E2"/>
<path d="M587.939 65.6768C587.939 65.8556 587.985 66.0303 588.07 66.179C588.156 66.3276 588.277 66.4435 588.42 66.5119C588.562 66.5804 588.718 66.5983 588.869 66.5634C589.02 66.5286 589.159 66.4425 589.268 66.3161C589.377 66.1897 589.451 66.0287 589.481 65.8533C589.511 65.678 589.496 65.4963 589.437 65.3312C589.378 65.166 589.278 65.0249 589.15 64.9256C589.022 64.8264 588.871 64.7734 588.717 64.7734C588.511 64.7735 588.313 64.8687 588.167 65.0381C588.021 65.2075 587.939 65.4373 587.939 65.6768Z" fill="#97E7E2"/>
<path d="M581.249 65.6768C581.249 65.8555 581.295 66.0302 581.38 66.1787C581.466 66.3273 581.587 66.4431 581.73 66.5115C581.872 66.5799 582.028 66.5978 582.179 66.5629C582.33 66.528 582.469 66.442 582.578 66.3156C582.687 66.1893 582.761 66.0283 582.791 65.8531C582.821 65.6778 582.805 65.4962 582.746 65.3311C582.688 65.1661 582.588 65.025 582.46 64.9257C582.332 64.8264 582.181 64.7734 582.027 64.7734C581.821 64.7734 581.623 64.8686 581.477 65.038C581.331 65.2075 581.249 65.4373 581.249 65.6768Z" fill="#97E7E2"/>
<path d="M601.316 73.0421C601.316 73.2208 601.361 73.3954 601.447 73.544C601.532 73.6925 601.654 73.8083 601.796 73.8767C601.938 73.9451 602.095 73.963 602.246 73.9281C602.397 73.8933 602.535 73.8072 602.644 73.6809C602.753 73.5545 602.827 73.3936 602.857 73.2183C602.887 73.0431 602.872 72.8614 602.813 72.6964C602.754 72.5313 602.654 72.3902 602.526 72.2909C602.398 72.1917 602.248 72.1387 602.094 72.1387C601.887 72.1387 601.69 72.2338 601.544 72.4033C601.398 72.5727 601.316 72.8025 601.316 73.0421Z" fill="#97E7E2"/>
<path d="M594.627 73.0421C594.627 73.2208 594.672 73.3956 594.758 73.5442C594.843 73.6928 594.965 73.8087 595.107 73.8771C595.249 73.9456 595.406 73.9635 595.557 73.9287C595.708 73.8938 595.847 73.8078 595.956 73.6814C596.064 73.555 596.139 73.394 596.169 73.2187C596.199 73.0434 596.183 72.8617 596.124 72.6966C596.065 72.5314 595.966 72.3903 595.838 72.291C595.71 72.1917 595.559 72.1387 595.405 72.1387C595.303 72.1386 595.202 72.162 595.107 72.2074C595.013 72.2528 594.927 72.3193 594.855 72.4032C594.782 72.4871 594.725 72.5867 594.686 72.6963C594.647 72.8059 594.627 72.9234 594.627 73.0421Z" fill="#97E7E2"/>
<path d="M587.939 73.0421C587.939 73.2208 587.985 73.3956 588.07 73.5442C588.156 73.6929 588.277 73.8087 588.42 73.8772C588.562 73.9456 588.718 73.9635 588.869 73.9286C589.02 73.8938 589.159 73.8077 589.268 73.6813C589.377 73.5549 589.451 73.3939 589.481 73.2186C589.511 73.0433 589.496 72.8615 589.437 72.6964C589.378 72.5313 589.278 72.3901 589.15 72.2909C589.022 72.1916 588.871 72.1386 588.717 72.1387C588.511 72.1387 588.313 72.2338 588.167 72.4033C588.021 72.5727 587.939 72.8025 587.939 73.0421Z" fill="#97E7E2"/>
<path d="M581.249 73.0421C581.249 73.2208 581.295 73.3954 581.38 73.544C581.466 73.6925 581.587 73.8083 581.73 73.8767C581.872 73.9451 582.028 73.963 582.179 73.9281C582.33 73.8933 582.469 73.8072 582.578 73.6809C582.687 73.5545 582.761 73.3936 582.791 73.2183C582.821 73.0431 582.805 72.8614 582.746 72.6964C582.688 72.5313 582.588 72.3902 582.46 72.2909C582.332 72.1917 582.181 72.1387 582.027 72.1387C581.821 72.1387 581.623 72.2338 581.477 72.4033C581.331 72.5727 581.249 72.8025 581.249 73.0421Z" fill="#97E7E2"/>
<path d="M601.316 22.2882C601.316 22.4669 601.361 22.6415 601.447 22.7901C601.532 22.9386 601.654 23.0544 601.796 23.1228C601.938 23.1912 602.095 23.2091 602.246 23.1742C602.397 23.1394 602.535 23.0533 602.644 22.927C602.753 22.8006 602.827 22.6397 602.857 22.4644C602.887 22.2892 602.872 22.1075 602.813 21.9425C602.754 21.7774 602.654 21.6363 602.526 21.537C602.398 21.4378 602.248 21.3848 602.094 21.3848C601.887 21.3848 601.69 21.4799 601.544 21.6494C601.398 21.8188 601.316 22.0486 601.316 22.2882Z" fill="#97E7E2"/>
<path d="M594.627 22.2882C594.627 22.4669 594.672 22.6416 594.758 22.7903C594.843 22.9389 594.965 23.0548 595.107 23.1232C595.249 23.1917 595.406 23.2096 595.557 23.1748C595.708 23.1399 595.847 23.0539 595.956 22.9275C596.064 22.8011 596.139 22.6401 596.169 22.4648C596.199 22.2895 596.183 22.1078 596.124 21.9427C596.065 21.7775 595.966 21.6364 595.838 21.5371C595.71 21.4378 595.559 21.3848 595.405 21.3848C595.303 21.3847 595.202 21.4081 595.107 21.4535C595.013 21.4988 594.927 21.5654 594.855 21.6493C594.782 21.7332 594.725 21.8328 594.686 21.9424C594.647 22.052 594.627 22.1695 594.627 22.2882Z" fill="#97E7E2"/>
<path d="M587.939 22.2882C587.939 22.4669 587.985 22.6417 588.07 22.7903C588.156 22.939 588.277 23.0548 588.42 23.1233C588.562 23.1917 588.718 23.2096 588.869 23.1747C589.02 23.1399 589.159 23.0538 589.268 22.9274C589.377 22.801 589.451 22.64 589.481 22.4647C589.511 22.2893 589.496 22.1076 589.437 21.9425C589.378 21.7774 589.278 21.6362 589.15 21.537C589.022 21.4377 588.871 21.3847 588.717 21.3848C588.511 21.3848 588.313 21.4799 588.167 21.6494C588.021 21.8188 587.939 22.0486 587.939 22.2882Z" fill="#97E7E2"/>
<path d="M581.249 22.2882C581.249 22.4669 581.295 22.6415 581.38 22.7901C581.466 22.9386 581.587 23.0544 581.73 23.1228C581.872 23.1912 582.028 23.2091 582.179 23.1742C582.33 23.1394 582.469 23.0533 582.578 22.927C582.687 22.8006 582.761 22.6397 582.791 22.4644C582.821 22.2892 582.805 22.1075 582.746 21.9425C582.688 21.7774 582.588 21.6363 582.46 21.537C582.332 21.4378 582.181 21.3848 582.027 21.3848C581.821 21.3848 581.623 21.4799 581.477 21.6494C581.331 21.8188 581.249 22.0486 581.249 22.2882Z" fill="#97E7E2"/>
<path d="M601.316 29.6514C601.316 29.8301 601.361 30.0048 601.447 30.1534C601.532 30.3019 601.654 30.4177 601.796 30.4861C601.938 30.5545 602.095 30.5724 602.246 30.5375C602.397 30.5026 602.535 30.4166 602.644 30.2903C602.753 30.1639 602.827 30.0029 602.857 29.8277C602.887 29.6525 602.872 29.4708 602.813 29.3057C602.754 29.1407 602.654 28.9996 602.526 28.9003C602.398 28.801 602.248 28.748 602.094 28.748C601.887 28.748 601.69 28.8432 601.544 29.0127C601.398 29.1821 601.316 29.4119 601.316 29.6514Z" fill="#97E7E2"/>
<path d="M594.627 29.6514C594.627 29.8302 594.672 30.0049 594.758 30.1536C594.843 30.3022 594.965 30.4181 595.107 30.4865C595.249 30.5549 595.406 30.5729 595.557 30.538C595.708 30.5032 595.847 30.4172 595.956 30.2908C596.064 30.1644 596.139 30.0034 596.169 29.8281C596.199 29.6528 596.183 29.4711 596.124 29.306C596.065 29.1408 595.966 28.9997 595.838 28.9004C595.71 28.8011 595.559 28.748 595.405 28.748C595.199 28.748 595.001 28.8432 594.855 29.0126C594.709 29.1821 594.627 29.4118 594.627 29.6514Z" fill="#97E7E2"/>
<path d="M587.939 29.6514C587.939 29.8302 587.985 30.005 588.07 30.1536C588.156 30.3022 588.277 30.4181 588.42 30.4865C588.562 30.555 588.718 30.5729 588.869 30.538C589.02 30.5032 589.159 30.4171 589.268 30.2907C589.377 30.1643 589.451 30.0033 589.481 29.8279C589.511 29.6526 589.496 29.4709 589.437 29.3058C589.378 29.1406 589.278 28.9995 589.15 28.9002C589.022 28.801 588.871 28.748 588.717 28.748C588.511 28.7481 588.313 28.8433 588.167 29.0127C588.021 29.1821 587.939 29.4119 587.939 29.6514Z" fill="#97E7E2"/>
<path d="M581.249 29.6514C581.249 29.8301 581.295 30.0048 581.38 30.1534C581.466 30.3019 581.587 30.4177 581.73 30.4861C581.872 30.5545 582.028 30.5724 582.179 30.5375C582.33 30.5026 582.469 30.4166 582.578 30.2903C582.687 30.1639 582.761 30.0029 582.791 29.8277C582.821 29.6525 582.805 29.4708 582.746 29.3057C582.688 29.1407 582.588 28.9996 582.46 28.9003C582.332 28.801 582.181 28.748 582.027 28.748C581.821 28.748 581.623 28.8432 581.477 29.0127C581.331 29.1821 581.249 29.4119 581.249 29.6514Z" fill="#97E7E2"/>
<path d="M601.316 37.0147C601.316 37.1934 601.361 37.3681 601.447 37.5166C601.532 37.6652 601.654 37.781 601.796 37.8494C601.938 37.9177 602.095 37.9356 602.246 37.9008C602.397 37.8659 602.535 37.7799 602.644 37.6535C602.753 37.5272 602.827 37.3662 602.857 37.191C602.887 37.0157 602.872 36.8341 602.813 36.669C602.754 36.5039 602.654 36.3628 602.526 36.2636C602.398 36.1643 602.248 36.1113 602.094 36.1113C601.887 36.1113 601.69 36.2065 601.544 36.3759C601.398 36.5453 601.316 36.7751 601.316 37.0147Z" fill="#97E7E2"/>
<path d="M594.628 37.0147C594.628 37.1935 594.673 37.3682 594.759 37.5169C594.844 37.6655 594.966 37.7814 595.108 37.8498C595.25 37.9182 595.407 37.9362 595.558 37.9013C595.709 37.8665 595.848 37.7804 595.956 37.6541C596.065 37.5277 596.14 37.3667 596.17 37.1914C596.2 37.0161 596.184 36.8344 596.125 36.6692C596.066 36.5041 595.967 36.3629 595.839 36.2636C595.711 36.1643 595.56 36.1113 595.406 36.1113C595.304 36.1113 595.203 36.1346 595.108 36.18C595.014 36.2254 594.928 36.2919 594.856 36.3758C594.783 36.4597 594.726 36.5593 594.687 36.669C594.648 36.7786 594.628 36.8961 594.628 37.0147Z" fill="#97E7E2"/>
<path d="M587.939 37.0147C587.939 37.1935 587.985 37.3682 588.07 37.5169C588.156 37.6655 588.277 37.7814 588.42 37.8498C588.562 37.9182 588.718 37.9362 588.869 37.9013C589.02 37.8664 589.159 37.7804 589.268 37.654C589.377 37.5276 589.451 37.3665 589.481 37.1912C589.511 37.0159 589.496 36.8342 589.437 36.669C589.378 36.5039 589.278 36.3628 589.15 36.2635C589.022 36.1642 588.871 36.1113 588.717 36.1113C588.511 36.1113 588.313 36.2065 588.167 36.3759C588.021 36.5453 587.939 36.7751 587.939 37.0147Z" fill="#97E7E2"/>
<path d="M581.249 37.0147C581.249 37.1934 581.295 37.3681 581.38 37.5166C581.466 37.6652 581.587 37.781 581.73 37.8494C581.872 37.9177 582.028 37.9356 582.179 37.9008C582.33 37.8659 582.469 37.7799 582.578 37.6535C582.687 37.5272 582.761 37.3662 582.791 37.191C582.821 37.0157 582.805 36.8341 582.746 36.669C582.688 36.5039 582.588 36.3628 582.46 36.2636C582.332 36.1643 582.181 36.1113 582.027 36.1113C581.821 36.1113 581.623 36.2065 581.477 36.3759C581.331 36.5453 581.249 36.7751 581.249 37.0147Z" fill="#97E7E2"/>
<path d="M601.316 44.378C601.316 44.5567 601.361 44.7314 601.447 44.8799C601.532 45.0285 601.654 45.1443 601.796 45.2127C601.938 45.281 602.095 45.2989 602.246 45.2641C602.397 45.2292 602.535 45.1432 602.644 45.0168C602.753 44.8905 602.827 44.7295 602.857 44.5543C602.887 44.379 602.872 44.1974 602.813 44.0323C602.754 43.8672 602.654 43.7261 602.526 43.6269C602.398 43.5276 602.248 43.4746 602.094 43.4746C601.887 43.4746 601.69 43.5698 601.544 43.7392C601.398 43.9086 601.316 44.1384 601.316 44.378Z" fill="#97E7E2"/>
<path d="M594.628 44.378C594.628 44.5568 594.673 44.7315 594.759 44.8801C594.844 45.0288 594.966 45.1446 595.108 45.2131C595.25 45.2815 595.407 45.2994 595.558 45.2646C595.709 45.2298 595.848 45.1437 595.956 45.0174C596.065 44.891 596.14 44.73 596.17 44.5547C596.2 44.3794 596.184 44.1977 596.125 44.0325C596.066 43.8674 595.967 43.7262 595.839 43.6269C595.711 43.5276 595.56 43.4746 595.406 43.4746C595.2 43.4746 595.002 43.5698 594.856 43.7392C594.71 43.9086 594.628 44.1384 594.628 44.378Z" fill="#97E7E2"/>
<path d="M587.939 44.378C587.939 44.5568 587.985 44.7315 588.07 44.8802C588.156 45.0288 588.277 45.1447 588.42 45.2131C588.562 45.2815 588.718 45.2994 588.869 45.2646C589.02 45.2297 589.159 45.1437 589.268 45.0173C589.377 44.8909 589.451 44.7298 589.481 44.5545C589.511 44.3792 589.496 44.1975 589.437 44.0323C589.378 43.8672 589.278 43.7261 589.15 43.6268C589.022 43.5275 588.871 43.4746 588.717 43.4746C588.511 43.4747 588.313 43.5699 588.167 43.7393C588.021 43.9087 587.939 44.1384 587.939 44.378Z" fill="#97E7E2"/>
<path d="M581.249 44.378C581.249 44.5567 581.295 44.7314 581.38 44.8799C581.466 45.0285 581.587 45.1443 581.73 45.2127C581.872 45.281 582.028 45.2989 582.179 45.2641C582.33 45.2292 582.469 45.1432 582.578 45.0168C582.687 44.8905 582.761 44.7295 582.791 44.5543C582.821 44.379 582.805 44.1974 582.746 44.0323C582.688 43.8672 582.588 43.7261 582.46 43.6269C582.332 43.5276 582.181 43.4746 582.027 43.4746C581.821 43.4746 581.623 43.5698 581.477 43.7392C581.331 43.9086 581.249 44.1384 581.249 44.378Z" fill="#97E7E2"/>
<path d="M668.74 160.774L714.902 107.187C716.788 104.997 718.284 102.398 719.305 99.5365C720.326 96.6755 720.852 93.609 720.852 90.5123C720.852 87.4155 720.326 84.349 719.305 81.488C718.284 78.6269 716.788 76.0273 714.902 73.8376L668.74 20.2507C666.854 18.0609 664.615 16.3239 662.15 15.1388C659.685 13.9537 657.044 13.3438 654.376 13.3438C651.708 13.3438 649.067 13.9537 646.602 15.1388C644.138 16.3239 641.898 18.0609 640.012 20.2507L593.851 73.8376C591.964 76.0273 590.468 78.6269 589.447 81.488C588.426 84.349 587.901 87.4155 587.901 90.5123C587.901 93.609 588.426 96.6755 589.447 99.5365C590.468 102.398 591.964 104.997 593.851 107.187L640.012 160.774C641.898 162.964 644.138 164.701 646.602 165.886C649.067 167.071 651.708 167.681 654.376 167.681C657.044 167.681 659.685 167.071 662.15 165.886C664.615 164.701 666.854 162.964 668.74 160.774Z" fill="#18727A"/>
</g>
<g opacity="0.45">
<mask id="mask2_10109_106569" style="mask-type:alpha" maskUnits="userSpaceOnUse" x="12" y="299" width="204" height="204">
<path opacity="0.22" d="M92.1221 308.862L21.8627 379.122C9.78825 391.196 9.78825 410.773 21.8627 422.847L92.1221 493.106C104.196 505.181 123.773 505.181 135.847 493.106L206.107 422.847C218.181 410.773 218.181 391.196 206.107 379.122L135.847 308.862C123.773 296.788 104.196 296.788 92.1221 308.862Z" fill="#07909C"/>
</mask>
<g mask="url(#mask2_10109_106569)">
<rect x="143.916" y="312.246" width="72.1353" height="176.731" fill="#D9D9D9"/>
</g>
</g>
<mask id="mask3_10109_106569" style="mask-type:alpha" maskUnits="userSpaceOnUse" x="146" y="145" width="618" height="706">
<rect width="618" height="706" rx="10" transform="matrix(1 0 0 -1 146 851)" fill="#086972"/>
</mask>
<g mask="url(#mask3_10109_106569)">
<g opacity="0.21">
<path opacity="0.3" d="M1429.94 -7.17894C1453.11 -24.1838 1495.22 -64.3745 1511.1 -84.6423C1515.83 -90.6801 1520.23 -95.7873 1520.88 -95.9908C1523.04 -96.6685 1509.72 -59.8988 1493.4 -20.1135C1430.52 133.152 1344.31 243.622 1237.72 307.456C1186.52 338.12 1142.92 354.062 1070.4 368.614C990.676 384.617 949.988 386.925 795.327 384.217C639.204 381.481 613.739 382.737 546.924 396.47C485.867 409.015 462.103 418.49 425.271 444.959C414.164 452.941 404.202 458.898 403.138 458.195C402.074 457.487 407.265 442.037 414.675 423.855C440.798 359.755 492.702 297.18 550.323 260.318C636.274 205.332 729.549 178.665 968.163 140.852C1221.14 100.765 1330.75 65.6255 1429.94 -7.17894Z" fill="white" fill-opacity="0.47"/>
<path d="M356.996 434.549C378.406 291.779 458.368 165.619 457.612 166.001C387.896 201.223 242.223 471.191 188.18 616.918C167.459 672.791 136 749.01 136 749.01C136 749.01 385.603 476.479 293.928 919.092C287.478 968.12 285.798 980.133 286.544 980.279C286.86 980.341 287.612 978.268 288.621 975.98C494.178 800.131 381.055 668.99 457.612 640.276C504.233 622.789 530.88 640.044 585.339 645.512C690.292 656.048 742.831 649.272 801.338 617.649C840.933 596.25 889.289 554.471 924.003 511.669C948.793 481.101 982.63 434.511 985.96 426.36L989.056 418.78L981.804 426.364C959.49 449.705 923.026 466.425 872.512 476.479C827.482 485.441 795.812 487.024 693.99 485.403C648.113 484.673 599.044 484.441 584.946 484.886C507.502 487.341 409.912 503.159 341.689 536.611L356.996 434.549Z" fill="white" fill-opacity="0.33"/>
</g>
</g>
</svg>
