<svg xmlns="http://www.w3.org/2000/svg" width="28" height="24" viewBox="0 0 28 24" fill="none">
  <path d="M14.9208 5.64807C15 5.29621 15.0989 4.59251 15.0791 4.29621C15.0791 4.20362 15.0791 4.12955 15.0791 4.11103C15.0989 4.07399 15.277 4.46288 15.4353 4.92584C16.0884 6.64807 16.1477 8.2777 15.6332 9.79622C15.376 10.5184 15.0791 11.0555 14.4855 11.8888C13.8523 12.7777 13.4565 13.2036 11.9328 14.7222C10.3695 16.2592 10.132 16.5185 9.59776 17.2777C9.10305 17.9629 8.94474 18.2777 8.80622 18.8333C8.76664 18.9999 8.70728 19.1481 8.70728 19.1481C8.68749 19.1481 8.60834 18.9999 8.52918 18.7962C8.25215 18.074 8.25215 17.111 8.5094 16.2777C8.90516 15.037 9.59776 13.9259 11.6162 11.2777C13.7731 8.4814 14.5449 7.14807 14.9208 5.64807Z" fill="#771DFC"/>
  <path d="M15.6532 11.9444C15.7323 11.7221 15.8115 11.2962 15.8313 11.0925C15.8313 11.037 15.8313 10.9814 15.8511 10.9814C15.8511 10.9629 15.95 11.2221 16.0292 11.5184C16.326 12.6481 16.2666 13.6851 15.8511 14.6296C15.6532 15.074 15.4355 15.4073 15.0002 15.8888C14.5252 16.4259 14.268 16.6851 13.1994 17.5555C12.1308 18.4444 11.9527 18.611 11.557 19.0555C11.2008 19.4629 11.0821 19.6481 10.9633 19.9999C10.9237 20.111 10.8842 20.1851 10.8842 20.1851C10.8644 20.1851 10.8248 20.074 10.805 19.9444C10.6665 19.4814 10.7259 18.8703 10.9435 18.3518C11.2601 17.611 11.7746 16.9444 13.2192 15.3703C14.7429 13.7036 15.3168 12.8888 15.6532 11.9444Z" fill="#771DFC"/>
  <path d="M13.2582 0L10.0921 8.61112L0 8.83335L5.48139 12.7963C5.48139 12.7963 8.49507 12.6047 9.81504 11.2593C9.81504 11.2593 8.03409 11.963 6.62911 11.9074L4.23472 10.0926L11.0617 10C11.0617 10 13.4759 3.74075 13.2582 0Z" fill="#771DFC"/>
  <path d="M17.6905 8.77771L27.5451 8.98141L19.4913 14.7777L22.598 24L14.6431 18.7592C14.6431 18.7592 15.9887 17.4444 16.4636 15.9814C16.4636 15.9814 16.246 17.3888 15.9293 17.9999L19.5704 20.1851L17.5718 14.1296L23.0136 10.3703L17.8092 10.3147L17.6905 8.77771Z" fill="#771DFC"/>
</svg>