<svg width="72" height="73" viewBox="0 0 72 73" fill="none" xmlns="http://www.w3.org/2000/svg">
<g filter="url(#filter0_d_1273_9078)">
<rect x="10" width="52" height="52" rx="26" fill="#771DFC"/>
<rect x="10.25" y="0.25" width="51.5" height="51.5" rx="25.75" stroke="#8F43FF" stroke-width="0.5"/>
<path d="M37.3406 16.6512C37.4448 16.1538 37.575 15.159 37.549 14.7401C37.549 14.6092 37.549 14.5045 37.549 14.4783C37.575 14.426 37.8094 14.9757 38.0178 15.6302C38.8773 18.0648 38.9554 20.3686 38.2782 22.5152C37.9397 23.5362 37.549 24.2954 36.7676 25.4735C35.9342 26.73 35.4133 27.3322 33.4079 29.4788C31.3503 31.6517 31.0378 32.0182 30.3346 33.0915C29.6835 34.0601 29.4751 34.5052 29.2928 35.2905C29.2407 35.5262 29.1626 35.7356 29.1626 35.7356C29.1365 35.7356 29.0324 35.5262 28.9282 35.2382C28.5636 34.2172 28.5636 32.8559 28.9021 31.6779C29.423 29.9239 30.3346 28.3531 32.9912 24.6096C35.83 20.6565 36.8458 18.7717 37.3406 16.6512Z" fill="white"/>
<path d="M38.3042 25.552C38.4084 25.2378 38.5126 24.6357 38.5386 24.3477C38.5386 24.2692 38.5386 24.1907 38.5647 24.1907C38.5647 24.1645 38.6949 24.531 38.7991 24.9498C39.1897 26.5468 39.1116 28.0128 38.5647 29.3479C38.3042 29.9762 38.0177 30.4474 37.4447 31.1281C36.8197 31.8873 36.4811 32.2538 35.0747 33.4842C33.6683 34.7408 33.4339 34.9764 32.913 35.6047C32.4442 36.1806 32.2879 36.4424 32.1316 36.9398C32.0795 37.0969 32.0274 37.2016 32.0274 37.2016C32.0014 37.2016 31.9493 37.0445 31.9233 36.8612C31.741 36.2068 31.8191 35.3429 32.1056 34.6099C32.5223 33.5627 33.1995 32.6203 35.1007 30.3951C37.1062 28.039 37.8615 26.8871 38.3042 25.552Z" fill="white"/>
<path d="M35.1521 8.66669L30.9849 20.8399L17.7021 21.154L24.9165 26.7563C24.9165 26.7563 28.883 26.4854 30.6203 24.5835C30.6203 24.5835 28.2763 25.5783 26.4271 25.4997L23.2757 22.9342L32.2611 22.8033C32.2611 22.8033 35.4386 13.9548 35.1521 8.66669Z" fill="white"/>
<path d="M40.9865 21.0755L53.9567 21.3635L43.3565 29.5575L47.4456 42.5946L36.9756 35.1859C36.9756 35.1859 38.7466 33.3272 39.3717 31.2591C39.3717 31.2591 39.0852 33.2487 38.6685 34.1126L43.4607 37.2017L40.8302 28.6412L47.9925 23.3269L41.1427 23.2484L40.9865 21.0755Z" fill="white"/>
</g>
<defs>
<filter id="filter0_d_1273_9078" x="0" y="0" width="72" height="73" filterUnits="userSpaceOnUse" color-interpolation-filters="sRGB">
<feFlood flood-opacity="0" result="BackgroundImageFix"/>
<feColorMatrix in="SourceAlpha" type="matrix" values="0 0 0 0 0 0 0 0 0 0 0 0 0 0 0 0 0 0 127 0" result="hardAlpha"/>
<feOffset dy="11"/>
<feGaussianBlur stdDeviation="5"/>
<feColorMatrix type="matrix" values="0 0 0 0 0 0 0 0 0 0 0 0 0 0 0 0 0 0 0.09 0"/>
<feBlend mode="normal" in2="BackgroundImageFix" result="effect1_dropShadow_1273_9078"/>
<feBlend mode="normal" in="SourceGraphic" in2="effect1_dropShadow_1273_9078" result="shape"/>
</filter>
</defs>
</svg>
