<svg width="51" height="44" viewBox="0 0 51 44" fill="none" xmlns="http://www.w3.org/2000/svg">
<path d="M27.265 10.2093C27.4081 9.5733 27.5869 8.30131 27.5512 7.76573C27.5512 7.59836 27.5512 7.46447 27.5512 7.43099C27.5869 7.36405 27.9089 8.06699 28.195 8.90383C29.3754 12.0169 29.4827 14.9625 28.5527 17.7074C28.0877 19.0128 27.5512 19.9836 26.4781 21.4899C25.3335 23.0966 24.6181 23.8665 21.8639 26.6113C19.0382 29.3896 18.609 29.8583 17.6432 31.2307C16.749 32.4692 16.4629 33.0383 16.2125 34.0425C16.1409 34.3437 16.0336 34.6115 16.0336 34.6115C15.9979 34.6115 15.8548 34.3437 15.7117 33.9755C15.2109 32.6701 15.2109 30.9294 15.6759 29.4231C16.3913 27.1804 17.6432 25.172 21.2916 20.3853C25.1904 15.3308 26.5854 12.9207 27.265 10.2093Z" fill="white"/>
<path d="M28.589 21.5898C28.732 21.1881 28.8751 20.4182 28.9109 20.05C28.9109 19.9496 28.9109 19.8492 28.9466 19.8492C28.9466 19.8157 29.1255 20.2843 29.2686 20.8199C29.8051 22.8618 29.6978 24.7363 28.9466 26.4435C28.589 27.2468 28.1955 27.8493 27.4086 28.7197C26.5501 29.6904 26.0851 30.159 24.1536 31.7323C22.2221 33.339 21.9002 33.6403 21.1848 34.4436C20.541 35.1801 20.3264 35.5148 20.1118 36.1508C20.0402 36.3516 19.9687 36.4855 19.9687 36.4855C19.9329 36.4855 19.8614 36.2847 19.8256 36.0504C19.5752 35.2135 19.6825 34.1089 20.076 33.1716C20.6483 31.8327 21.5783 30.6276 24.1894 27.7824C26.9436 24.7698 27.9809 23.2969 28.589 21.5898Z" fill="white"/>
<path d="M24.2605 0L18.5375 15.5652L0.29541 15.9669L10.2034 23.1302C10.2034 23.1302 15.6508 22.7838 18.0367 20.3519C18.0367 20.3519 14.8175 21.6239 12.2779 21.5235L7.94993 18.2431L20.2901 18.0757C20.2901 18.0757 24.6539 6.76166 24.2605 0Z" fill="white"/>
<path d="M32.2725 15.8661L50.0854 16.2344L35.5275 26.7116L41.1432 43.3814L26.7642 33.9084C26.7642 33.9084 29.1964 31.5318 30.0549 28.8874C30.0549 28.8874 29.6614 31.4314 29.0891 32.536L35.6706 36.4859L32.0579 25.54L41.8943 18.7449L32.4872 18.6445L32.2725 15.8661Z" fill="white"/>
</svg>
