<svg width="187" height="187" viewBox="0 0 187 187" fill="none" xmlns="http://www.w3.org/2000/svg">
<g opacity="0.4" clip-path="url(#clip0_10219_106501)">
<mask id="mask0_10219_106501" style="mask-type:luminance" maskUnits="userSpaceOnUse" x="0" y="0" width="187" height="187">
<path d="M187 0H0V187H187V0Z" fill="white"/>
</mask>
<g mask="url(#mask0_10219_106501)">
<path d="M95.9312 173.911C146.227 173.911 187 150.353 187 121.293C187 92.2335 146.227 68.6758 95.9312 68.6758C45.6352 68.6758 4.8623 92.2335 4.8623 121.293C4.8623 150.353 45.6352 173.911 95.9312 173.911Z" fill="#F5F5F5"/>
<path fill-rule="evenodd" clip-rule="evenodd" d="M130.774 113.1C130.886 113.084 131.012 113.112 131.124 113.096H155.15C155.139 112.183 154.618 110.858 153.82 110.411C153.023 109.964 151.987 109.979 151.202 110.446C151.556 108.571 151.812 106.612 151.296 104.774C150.781 102.937 149.314 101.245 147.419 101.018C145.641 100.806 143.916 101.923 142.893 103.391C141.869 104.859 141.41 106.636 140.971 108.37C141.021 107.55 140.614 106.717 139.937 106.251C139.26 105.785 138.337 105.703 137.588 106.042C136.752 106.42 136.196 107.258 135.938 108.139C135.681 109.02 135.682 109.952 135.684 110.87C135.149 109.656 133.6 109.003 132.358 109.466C131.115 109.929 130.384 111.832 130.774 113.1Z" fill="#087246"/>
<path fill-rule="evenodd" clip-rule="evenodd" d="M135.863 113.099C135.928 113.089 136.001 113.107 136.067 113.097H150.061C150.054 112.567 149.75 111.799 149.286 111.54C148.821 111.282 148.219 111.289 147.761 111.561C147.967 110.474 148.116 109.338 147.816 108.272C147.516 107.207 146.661 106.227 145.557 106.095C144.522 105.972 143.517 106.619 142.921 107.47C142.325 108.322 142.058 109.351 141.802 110.357C141.831 109.881 141.594 109.399 141.2 109.129C140.805 108.859 140.267 108.81 139.831 109.007C139.345 109.227 139.021 109.712 138.871 110.223C138.721 110.734 138.721 111.274 138.723 111.806C138.411 111.103 137.509 110.724 136.785 110.992C136.061 111.261 135.636 112.364 135.863 113.099Z" fill="#FFB201"/>
<path fill-rule="evenodd" clip-rule="evenodd" d="M134.429 113.23C134.429 113.23 132.276 106.51 127.951 100.357C123.625 94.2039 124.256 90.0136 127.951 88.9342C131.645 87.8549 137.649 91.0412 139.507 95.3946C140.708 98.2095 142.749 107.112 137.714 113.23C136.276 113.191 134.429 113.23 134.429 113.23Z" fill="#187E5D"/>
<path fill-rule="evenodd" clip-rule="evenodd" d="M133.521 89.8971C130.873 77.8609 135.457 76.2094 140.552 77.6668C145.647 79.1242 149.083 85.466 148.305 91.5246C147.119 100.772 140.163 113.23 140.163 113.23H136.169C136.169 113.23 136.169 101.933 133.521 89.8971Z" fill="#1E9E75"/>
<path d="M139.184 81.6142C139.254 81.583 139.335 81.6116 139.37 81.6781L139.374 81.6878L139.396 81.7379L139.423 81.8024C139.434 81.8279 139.445 81.8553 139.457 81.8846L139.475 81.9301C139.555 82.1302 139.644 82.3686 139.739 82.6448C140.012 83.4323 140.285 84.3654 140.539 85.4402C141.14 87.9822 141.545 90.9076 141.664 94.198C141.771 97.1471 141.573 99.98 141.065 103.129L141.047 103.242C140.606 105.946 139.981 108.732 138.846 113.243C138.827 113.319 138.749 113.366 138.673 113.346C138.596 113.327 138.55 113.25 138.569 113.173L138.67 112.773C139.74 108.503 140.339 105.809 140.765 103.196C141.283 100.019 141.486 97.1728 141.379 94.2083C141.261 90.9369 140.858 88.03 140.261 85.5059L140.228 85.3677C139.986 84.3605 139.728 83.4829 139.47 82.7382L139.44 82.6535C139.357 82.4173 139.28 82.2113 139.21 82.0359L139.184 81.9708C139.175 81.9501 139.167 81.9306 139.16 81.9122L139.134 81.8501L139.113 81.803C139.081 81.7311 139.113 81.6466 139.184 81.6142Z" fill="#160C1F"/>
<path fill-rule="evenodd" clip-rule="evenodd" d="M152.965 90.6617C160.616 90.272 161.102 96.6232 160.11 99.2382C158.939 102.323 155.426 104.38 152.619 105.602C146.016 108.476 144.335 113.229 144.335 113.229H138.555C138.555 113.229 139.658 91.3395 152.965 90.6617Z" fill="#F5B643"/>
<path d="M154.104 95.5262C154.177 95.4965 154.261 95.5316 154.29 95.6046C154.32 95.6776 154.285 95.7608 154.212 95.7905C147.532 98.5081 143.376 104.317 141.739 113.236C141.725 113.313 141.65 113.365 141.573 113.35C141.495 113.336 141.444 113.262 141.458 113.184C143.111 104.175 147.328 98.2832 154.104 95.5262Z" fill="#160C1F"/>
<path d="M79.2989 15.8894V13.4091C79.2798 13.2659 79.2243 13.1299 79.1377 13.0141C79.0511 12.8984 78.9362 12.8068 78.8042 12.7481L63.8167 4.14891C63.4594 3.96881 63.0649 3.875 62.6647 3.875C62.2646 3.875 61.8701 3.96881 61.5128 4.14891L18.4356 28.8702C18.3035 28.9289 18.1887 29.0205 18.1021 29.1363C18.0155 29.252 17.96 29.388 17.9409 29.5313V32.0119C17.96 32.1552 18.0155 32.2911 18.1021 32.4068C18.1887 32.5224 18.3036 32.6139 18.4356 32.6726L33.4195 41.2722C33.7768 41.4523 34.1713 41.5461 34.5714 41.5461C34.9716 41.5461 35.3661 41.4523 35.7234 41.2722L78.801 16.5509C78.9332 16.4922 79.048 16.4006 79.1346 16.2849C79.2212 16.1692 79.2767 16.0331 79.2957 15.8898L79.2989 15.8894Z" fill="#E4E4E4"/>
<path d="M18.4357 30.1924L33.4195 38.7915C33.7768 38.9716 34.1714 39.0654 34.5715 39.0654C34.9716 39.0654 35.3662 38.9716 35.7235 38.7915L78.8006 14.0702C79.437 13.7051 79.437 13.1132 78.8006 12.7481L63.8168 4.14891C63.4595 3.96881 63.0649 3.875 62.6648 3.875C62.2647 3.875 61.8701 3.96881 61.5128 4.14891L18.4357 28.8702C17.7998 29.2331 17.7998 29.8272 18.4357 30.1924Z" fill="#DBDBDB"/>
<path d="M34.5699 39.0676V41.5474C34.1699 41.5532 33.7749 41.4587 33.4208 41.2726L18.4347 32.6743C18.3023 32.616 18.1872 32.5245 18.1006 32.4087C18.0139 32.2929 17.9586 32.1567 17.94 32.0133H17.9351V29.533H17.94C17.9482 29.4331 17.9806 29.3366 18.0344 29.252C17.8604 29.5722 17.9895 29.9396 18.4352 30.1964L33.4195 38.7924C33.7727 38.982 34.1691 39.0768 34.5699 39.0676Z" fill="#E0E0E0"/>
<path d="M42.6194 18.092L55.3151 25.3298L76.2883 13.2934L63.5949 6.05469L42.6194 18.092Z" fill="#E0E0E0"/>
<path d="M55.4599 24.7784L43.2131 17.7502C43.531 16.7117 43.5078 15.5986 43.147 14.5742L55.3151 21.5283C55.3151 21.5283 55.5476 22.2951 55.4599 24.7784Z" fill="white"/>
<path d="M54.6903 20.538C55.0319 20.7588 55.3166 21.0572 55.521 21.4088C55.7255 21.7605 55.8439 22.1556 55.8667 22.5617V24.9286C55.8667 25.6747 55.3401 25.9769 54.6903 25.6032L42.6206 18.6775V18.0928L54.5288 24.8836C54.9187 25.1085 55.2344 24.9259 55.234 24.4789L55.2232 22.2856C55.2092 22.0418 55.1378 21.8049 55.015 21.5939C54.8921 21.3829 54.7213 21.2039 54.5162 21.0713L42.6206 14.2756V13.6113L54.6903 20.538Z" fill="#DBD6D6"/>
<path d="M42.6204 13.6124L63.5945 1.57422L75.6629 8.49995C76.0045 8.72077 76.2892 9.01917 76.4937 9.37085C76.6983 9.72252 76.8168 10.1175 76.8398 10.5237V12.891C76.8547 13.0365 76.8306 13.1832 76.7699 13.3162C76.7091 13.4492 76.614 13.5635 76.4944 13.6475L55.5207 25.6839C55.6404 25.6 55.7355 25.4856 55.7962 25.3526C55.857 25.2196 55.8811 25.0728 55.8661 24.9274V22.5592C55.8434 22.1526 55.725 21.7572 55.5205 21.4051C55.316 21.053 55.0311 20.7542 54.6891 20.5332L42.6204 13.6124Z" fill="#DBDBDB"/>
<path d="M55.5239 21.41C55.7358 21.7583 55.8545 22.1552 55.8688 22.5627V24.9309C55.8838 25.0763 55.8597 25.2231 55.799 25.3561C55.7383 25.4891 55.6432 25.6035 55.5234 25.6873L76.4972 13.651C76.6168 13.567 76.7119 13.4526 76.7726 13.3197C76.8333 13.1867 76.8575 13.0399 76.8426 12.8945V10.5272C76.8282 10.1199 76.7094 9.72316 76.4976 9.375L55.5239 21.41Z" fill="#E4E4E4"/>
<path d="M29.7127 0.0800781L29.594 1.68334L43.7679 9.28591L44.0877 8.35318L29.7127 0.0800781Z" fill="#DBD6D6"/>
<path d="M43.8982 8.7252L30.1691 0.798828L27.7815 2.17723L41.7814 10.3676L43.8982 8.7252Z" fill="white"/>
<path d="M39.2034 9.51953L37.8457 25.4294C37.8552 25.6057 37.9062 25.7773 37.9944 25.9303C38.0826 26.0833 38.2056 26.2134 38.3534 26.3099L46.3185 30.92C46.4461 30.9888 46.5871 31.0289 46.7318 31.0374L41.7817 10.8844C41.6372 10.8762 41.4962 10.8368 41.3684 10.7689L40.7941 10.4356L39.2034 9.51953Z" fill="#E0E0E0"/>
<path d="M42.3871 10.7705L43.8086 9.55399L44.852 8.66039C44.9586 8.4904 45.0827 8.36402 45.0161 8.22461L49.8997 28.2323L49.9073 28.2481C49.9761 28.3888 49.9941 28.7032 49.8021 28.8129L47.3394 30.9212C47.1534 31.0186 46.943 31.0594 46.7341 31.0386L41.7817 10.8843C41.9903 10.9053 42.2004 10.8658 42.3871 10.7705Z" fill="#E4E4E4"/>
<path d="M44.8501 8.07274C45.1312 8.23509 45.0615 8.41588 44.8501 8.66053L42.387 10.7697C42.2292 10.8498 42.0548 10.8916 41.8779 10.8916C41.701 10.8916 41.5266 10.8498 41.3688 10.7697L39.2034 9.5195C38.9223 9.35715 38.8724 9.12239 39.0923 8.99557C39.2382 8.93536 39.396 8.90983 39.5534 8.92099C39.7108 8.93215 39.8635 8.97969 39.9994 9.05988L41.7083 10.0466C41.7609 10.0732 41.819 10.087 41.8779 10.087C41.9368 10.087 41.9949 10.0732 42.0474 10.0466L43.8463 8.48379C43.8669 8.47688 43.8847 8.4637 43.8974 8.44611C43.91 8.42852 43.9168 8.40741 43.9168 8.38575C43.9168 8.36408 43.91 8.34297 43.8974 8.32538C43.8847 8.30779 43.8669 8.29461 43.8463 8.2877L29.7129 0.0807099L30.3902 -0.310547L44.8501 8.07274Z" fill="#DBDBDB"/>
<path d="M25.6223 0.849609L39.1279 8.65186V34.3454L25.6223 26.545V0.849609Z" fill="#DBD6D6"/>
<path d="M38.6926 9.07695L25.6214 1.57422C24.8233 2.42175 23.7768 2.99401 22.6326 3.20851L35.5927 10.6775C35.5927 10.6775 36.4301 10.4832 38.6926 9.07695Z" fill="white"/>
<path d="M34.3371 10.6347C34.7268 10.831 35.157 10.9333 35.5932 10.9333C36.0295 10.9333 36.4597 10.831 36.8493 10.6347L39.0502 9.37147C39.7437 8.97346 39.7437 8.32811 39.0502 7.93011L26.1679 0.537109L25.622 0.848768L38.292 8.16621C38.3828 8.19633 38.4617 8.25427 38.5177 8.33181C38.5737 8.40935 38.6038 8.50254 38.6038 8.59817C38.6038 8.6938 38.5737 8.78699 38.5177 8.86453C38.4617 8.94207 38.3828 9.00001 38.292 9.03013L36.2462 10.1904C36.0124 10.3082 35.7543 10.3695 35.4925 10.3695C35.2307 10.3695 34.9726 10.3082 34.7388 10.1904L22.0728 2.88691L21.4548 3.24175L34.3371 10.6347Z" fill="#DBDBDB"/>
<path d="M21.4578 3.23828V28.9323L34.3387 36.3248C34.7284 36.5209 35.1586 36.623 35.5948 36.623C36.031 36.623 36.4612 36.5209 36.8509 36.3248L39.0523 35.062C39.1949 34.9989 39.3181 34.899 39.4093 34.7726C39.5005 34.6461 39.5564 34.4977 39.5713 34.3425V8.64935C39.5564 8.80455 39.5005 8.95301 39.4093 9.07947C39.3181 9.20593 39.1949 9.30583 39.0523 9.36891L36.8509 10.6344C36.4613 10.8307 36.0311 10.9329 35.5948 10.9329C35.1585 10.9329 34.7283 10.8307 34.3387 10.6344L21.4578 3.23828Z" fill="#DBD6D6"/>
<path d="M35.593 10.9336C36.0302 10.9422 36.4624 10.8396 36.8491 10.6355L39.0505 9.36995C39.1931 9.30687 39.3163 9.20697 39.4075 9.08051C39.4987 8.95405 39.5546 8.8056 39.5695 8.65039V34.3444C39.5546 34.4996 39.4987 34.6481 39.4075 34.7745C39.3163 34.901 39.1931 35.0009 39.0505 35.064L36.8491 36.3268C36.4624 36.5309 36.0302 36.6335 35.593 36.625V10.9336Z" fill="#E4E4E4"/>
<path d="M142.88 39.0344L117.875 24.6181C117.681 24.4767 117.453 24.3897 117.214 24.366C116.975 24.3423 116.734 24.3827 116.516 24.4832C116.193 24.6698 115.039 25.3377 114.717 25.5229C114.519 25.6606 114.361 25.849 114.261 26.0685C114.16 26.2879 114.12 26.5303 114.145 26.7705V95.2021C114.181 95.8688 114.374 96.5176 114.708 97.0958C115.042 97.674 115.508 98.1654 116.067 98.5301L141.072 112.946C141.266 113.088 141.494 113.175 141.733 113.199C141.972 113.222 142.213 113.182 142.431 113.081C142.754 112.895 143.915 112.227 144.24 112.037C144.435 111.898 144.59 111.71 144.688 111.491C144.787 111.273 144.825 111.032 144.8 110.794V42.3637C144.764 41.6969 144.572 41.0479 144.238 40.4695C143.905 39.891 143.439 39.3994 142.88 39.0344Z" fill="#6C7072"/>
<path d="M119.555 96.3828L117.752 97.4239V103.115C117.761 103.282 117.809 103.444 117.893 103.589C117.976 103.734 118.093 103.856 118.233 103.948L119.074 104.434C119.223 104.509 119.388 104.549 119.555 104.549C119.722 104.549 119.886 104.509 120.035 104.434L120.878 103.948C121.175 103.755 121.407 103.475 121.54 103.146L123.162 98.465L119.555 96.3828Z" fill="#6C7072"/>
<path d="M117.752 103.115C117.761 103.282 117.81 103.444 117.893 103.589C117.977 103.733 118.093 103.856 118.233 103.948L119.075 104.434C119.132 104.471 119.198 104.494 119.266 104.501C119.334 104.509 119.403 104.5 119.468 104.476C119.532 104.452 119.59 104.414 119.637 104.363C119.683 104.313 119.718 104.253 119.737 104.187L121.359 99.506L117.752 97.4238L117.752 103.115Z" fill="#5E6467"/>
<path d="M137.587 106.768L135.783 107.809V113.5C135.792 113.667 135.841 113.829 135.924 113.974C136.008 114.119 136.124 114.241 136.264 114.332L137.106 114.819C137.255 114.895 137.419 114.934 137.586 114.934C137.753 114.934 137.918 114.895 138.067 114.819L138.909 114.333C139.207 114.14 139.438 113.86 139.571 113.531L141.193 108.85L137.587 106.768Z" fill="#6C7072"/>
<path d="M135.784 113.502C135.793 113.669 135.841 113.831 135.925 113.976C136.008 114.12 136.125 114.243 136.265 114.334L137.106 114.821C137.164 114.858 137.229 114.881 137.298 114.889C137.366 114.896 137.435 114.887 137.499 114.863C137.564 114.839 137.621 114.801 137.668 114.751C137.715 114.7 137.749 114.64 137.769 114.574L139.39 109.893L135.783 107.811L135.784 113.502Z" fill="#5E6467"/>
<path d="M116.196 25.6939L141.201 40.1102C141.76 40.4749 142.226 40.9663 142.559 41.5445C142.893 42.1227 143.086 42.7715 143.123 43.4382V111.872C143.171 112.112 143.142 112.361 143.042 112.584C142.941 112.808 142.772 112.994 142.56 113.116C142.348 113.239 142.103 113.292 141.859 113.267C141.615 113.243 141.385 113.143 141.201 112.982L116.196 98.5652C115.637 98.2006 115.171 97.7092 114.837 97.131C114.503 96.5528 114.31 95.904 114.274 95.2373V26.8038C114.226 26.5636 114.254 26.3143 114.355 26.0911C114.456 25.8678 114.625 25.6819 114.837 25.5593C115.049 25.4368 115.294 25.3839 115.538 25.408C115.782 25.4322 116.012 25.5321 116.196 25.6939Z" fill="#5E6467"/>
<path d="M79.8853 119.259L106.932 134.873L144.799 113.011L142.996 111.97L115.948 96.3555L79.8853 117.178V119.259Z" fill="#455A64"/>
<path d="M106.932 134.874V132.792L144.799 110.93V113.012L106.932 134.874Z" fill="#6C7072"/>
<path d="M106.966 131.753C112.025 124.1 111.743 110.571 111.309 108.285C111.309 108.285 113.443 122.586 116.07 126.673" stroke="#FAFAFA" stroke-width="0.74" stroke-miterlimit="10"/>
<path d="M112.212 113.482C113.08 117.652 122.946 120.595 122.946 120.595" stroke="#FAFAFA" stroke-width="0.74" stroke-miterlimit="10"/>
<path d="M111.237 117.63C111.345 117.45 111.505 117.307 111.695 117.22C111.886 117.133 112.098 117.105 112.305 117.14C112.512 117.176 112.702 117.273 112.853 117.419C113.003 117.565 113.106 117.753 113.147 117.959C113.147 117.959 113.306 115.935 114.448 116.509" stroke="#FAFAFA" stroke-width="0.74" stroke-miterlimit="10"/>
<path d="M110.846 120.595C111.353 119.507 113.225 118.91 114.047 121.489C114.047 121.489 114.171 116.872 117.225 118.26" stroke="#FAFAFA" stroke-width="0.74" stroke-miterlimit="10"/>
<path d="M109.977 124.684C111.047 122.624 113.983 121.802 114.738 123.701C114.756 121.355 117.441 118.398 120.72 119.821" stroke="#FAFAFA" stroke-width="0.74" stroke-miterlimit="10"/>
<path d="M108.164 129.643C109.421 127.36 112.503 123.24 115.19 124.9" stroke="#FAFAFA" stroke-width="0.74" stroke-miterlimit="10"/>
<path d="M141.192 90.1094V92.1907L106.931 111.971L79.8853 96.3556V94.2739L114.145 74.4941L141.192 90.1094Z" fill="#6C7072"/>
<path d="M141.192 90.1094L106.932 109.889L79.8853 94.2739L114.145 74.4941L141.192 90.1094Z" fill="#455A64"/>
<path d="M141.192 67.2075V69.2888L106.931 89.0695L79.8855 73.4533V71.3715L114.145 51.5918L141.192 67.2075Z" fill="#6C7072"/>
<path d="M141.192 67.2075L106.933 86.9872L79.8855 71.3715L114.145 51.5918L141.192 67.2075Z" fill="#455A64"/>
<path d="M106.814 59.8293L81.8095 45.413C81.6155 45.2717 81.3872 45.1846 81.1483 45.1609C80.9094 45.1372 80.6685 45.1776 80.4504 45.2781C80.1275 45.4647 78.974 46.1326 78.6515 46.3179C78.4539 46.456 78.2969 46.6446 78.1968 46.864C78.0968 47.0834 78.0573 47.3256 78.0827 47.5654V115.998C78.1189 116.664 78.3118 117.313 78.6458 117.891C78.9797 118.47 79.4453 118.961 80.0048 119.325L105.009 133.742C105.203 133.884 105.432 133.971 105.671 133.994C105.909 134.018 106.15 133.978 106.368 133.877C106.691 133.691 107.853 133.023 108.178 132.833C108.373 132.694 108.527 132.505 108.626 132.287C108.724 132.069 108.763 131.828 108.738 131.59V63.1586C108.702 62.4915 108.509 61.8424 108.174 61.2639C107.84 60.6854 107.374 60.1939 106.814 59.8293Z" fill="#6C7072"/>
<path opacity="0.2" d="M106.932 70.3333L108.738 69.2922V63.041L106.926 64.0839L106.932 70.3333Z" fill="#939191"/>
<path opacity="0.2" d="M143.001 49.513L144.807 48.4718V42.2207L142.995 43.2636L143.001 49.513Z" fill="#939191"/>
<path d="M83.4912 117.176L81.6882 118.217V123.908C81.6972 124.075 81.7454 124.237 81.8289 124.382C81.9123 124.526 82.0287 124.649 82.1685 124.741L83.0104 125.227C83.1593 125.302 83.324 125.342 83.4909 125.342C83.6579 125.342 83.8225 125.302 83.9715 125.227L84.8134 124.741C85.1114 124.548 85.3427 124.268 85.4758 123.939L87.0975 119.258L83.4912 117.176Z" fill="#6C7072"/>
<path d="M81.6887 123.908C81.6977 124.075 81.7459 124.237 81.8293 124.382C81.9128 124.526 82.0291 124.649 82.169 124.74L83.0109 125.227C83.0685 125.264 83.134 125.287 83.2022 125.294C83.2704 125.302 83.3394 125.293 83.4037 125.269C83.4679 125.245 83.5257 125.207 83.5725 125.157C83.6192 125.106 83.6536 125.046 83.6729 124.98L85.295 120.299L81.6882 118.217L81.6887 123.908Z" fill="#5E6467"/>
<path d="M101.523 127.564L99.7197 128.605V134.297C99.7288 134.464 99.7769 134.626 99.8604 134.77C99.9438 134.915 100.06 135.038 100.2 135.129L101.042 135.615C101.191 135.691 101.355 135.73 101.522 135.73C101.689 135.73 101.854 135.691 102.003 135.615L102.845 135.129C103.143 134.936 103.374 134.656 103.507 134.327L105.129 129.647L101.523 127.564Z" fill="#6C7072"/>
<path d="M99.7202 134.295C99.7292 134.462 99.7774 134.624 99.8608 134.769C99.9443 134.913 100.061 135.036 100.2 135.128L101.042 135.614C101.1 135.651 101.166 135.674 101.234 135.682C101.302 135.689 101.371 135.68 101.435 135.656C101.5 135.632 101.557 135.594 101.604 135.543C101.651 135.493 101.685 135.433 101.704 135.367L103.327 130.686L99.7197 128.604L99.7202 134.295Z" fill="#5E6467"/>
<path d="M80.004 46.4574L105.009 60.8737C105.568 61.2384 106.033 61.7298 106.367 62.308C106.701 62.8862 106.894 63.535 106.931 64.2017V132.633C106.931 133.246 106.931 134.874 106.931 134.874C106.931 134.874 105.537 134.049 105.008 133.743L80.0035 119.326C79.4441 118.962 78.9785 118.471 78.6445 117.892C78.3105 117.314 78.1176 116.665 78.0814 115.999V47.5655C78.0333 47.3253 78.0617 47.076 78.1627 46.8528C78.2637 46.6295 78.4321 46.4436 78.6443 46.3211C78.8565 46.1985 79.1017 46.1456 79.3455 46.1698C79.5893 46.1939 79.8195 46.2939 80.0035 46.4556L80.004 46.4574Z" fill="#5E6467"/>
<path opacity="0.2" d="M105.01 60.8716L80.005 46.4553C79.8209 46.2937 79.5908 46.1938 79.347 46.1697C79.1032 46.1457 78.858 46.1986 78.6458 46.3211C78.4337 46.4435 78.2652 46.6294 78.1642 46.8526C78.0631 47.0758 78.0345 47.325 78.0824 47.5652V53.6738L106.933 70.3307V64.2009C106.896 63.5339 106.703 62.8848 106.369 62.3063C106.035 61.7279 105.569 61.2363 105.01 60.8716Z" fill="#939191"/>
<path d="M119.554 57.8365L139.386 46.3848V67.2069" stroke="#FAFAFA" stroke-width="0.74" stroke-linecap="round" stroke-linejoin="round"/>
<path d="M135.782 62.0025L139.388 46.3867L132.175 58.8796" stroke="#FAFAFA" stroke-width="0.74" stroke-linecap="round" stroke-linejoin="round"/>
<path d="M139.388 46.3867L128.569 56.7974" stroke="#FAFAFA" stroke-width="0.74" stroke-linecap="round" stroke-linejoin="round"/>
<path d="M139.388 63.8848C139.393 60.9657 136.06 60.8038 136.06 60.8038C136.176 60.2179 136.136 59.6119 135.945 59.0463C135.753 58.4807 135.416 57.9753 134.968 57.5806C133.893 56.6618 133.166 57.1664 132.949 57.5424C132.949 57.5424 133.174 54.8593 130.854 54.5994C130.854 54.5994 132.393 51.7616 130.854 51.3164" stroke="#FAFAFA" stroke-width="0.74" stroke-linecap="round" stroke-linejoin="round"/>
<path d="M139.388 59.3978C139.271 57.9043 138.129 56.0046 136.955 56.9207C136.955 56.9207 137.265 53.6616 134.941 54.0875C134.941 54.0875 136.03 51.0644 133.746 51.8132C133.746 51.8132 135.392 49.7319 134.115 49.4297" stroke="#FAFAFA" stroke-width="0.74" stroke-linecap="round" stroke-linejoin="round"/>
<path d="M149.077 39.1005C149.057 38.8616 148.973 38.6324 148.833 38.4371C148.694 38.2418 148.505 38.0876 148.286 37.9906L121.476 22.5125C120.88 22.2102 120.222 22.0527 119.554 22.0527C118.886 22.0527 118.227 22.2102 117.631 22.5125L76.3973 46.319C76.178 46.416 75.9889 46.5701 75.8497 46.7653C75.7106 46.9605 75.6264 47.1896 75.6062 47.4285C75.6093 47.8008 75.6093 49.1374 75.6062 49.5107C75.6264 49.7496 75.7105 49.9787 75.8497 50.174C75.9889 50.3693 76.178 50.5235 76.3973 50.6206L103.207 66.0987C103.802 66.4009 104.461 66.5584 105.129 66.5584C105.797 66.5584 106.455 66.4009 107.051 66.0987L148.285 42.2922C148.504 42.1952 148.693 42.0409 148.833 41.8456C148.972 41.6503 149.056 41.4212 149.076 41.1823C149.073 40.8103 149.073 39.4729 149.077 39.1005Z" fill="#5E6467"/>
<path d="M103.207 64.0165L76.3982 48.5384C75.3364 47.9254 75.3364 46.932 76.3982 46.319L117.632 22.5125C118.228 22.2102 118.887 22.0527 119.554 22.0527C120.222 22.0527 120.881 22.2102 121.477 22.5125L148.286 37.9906C149.347 38.6035 149.347 39.5974 148.286 40.21L107.052 64.0165C106.456 64.3187 105.798 64.4762 105.13 64.4762C104.462 64.4762 103.803 64.3187 103.207 64.0165Z" fill="#455A64"/>
<path opacity="0.1" d="M142.995 45.3457L130.374 60.9614L108.739 73.4556L108.736 65.1254L142.995 45.3457Z" fill="#939191"/>
<path opacity="0.1" d="M141.193 69.2891L130.374 83.8646L108.739 96.3588V88.0277L141.193 69.2891Z" fill="#939191"/>
<path opacity="0.1" d="M141.193 92.1914L130.374 106.766L108.739 119.26V110.928L141.193 92.1914Z" fill="#939191"/>
<path d="M36.4785 113.555C39.3246 113.144 41.9247 111.32 43.5748 109.005C44.3493 107.929 44.9198 106.72 45.2578 105.437C45.6165 104.238 45.6761 102.969 45.4313 101.742C44.9167 99.6919 43.0168 98.4757 41.0076 98.2191C39.9882 98.0855 38.9518 98.1879 37.9782 98.5183C36.9652 98.8679 36.0883 99.5284 35.4724 100.406C35.092 100.866 34.8523 101.426 34.782 102.019C34.7774 102.253 34.8608 102.481 35.0156 102.658C35.1705 102.834 35.3857 102.946 35.619 102.972C36.2218 103.021 36.8239 102.869 37.3305 102.538C37.9458 102.193 38.4879 101.731 38.9267 101.178C39.8667 100.016 40.571 98.6823 40.9998 97.2508C41.3027 96.0158 41.3053 94.7261 41.0073 93.4899C40.7794 92.2052 40.1909 91.0119 39.3104 90.0491C38.3045 89.1309 37.0264 88.5662 35.6703 88.4409C34.3198 88.2599 32.9458 88.3916 31.6543 88.8257C31.0872 88.9972 30.5618 89.2842 30.1111 89.6687C29.7903 89.9679 29.4234 90.4642 29.5546 90.9485C29.7005 91.4878 30.3958 91.6498 30.8778 91.5877C31.5932 91.4541 32.2486 91.0993 32.7516 90.5734C33.3107 90.0248 33.7855 89.3964 34.1604 88.7087C34.4393 88.2136 34.5851 87.6548 34.5834 87.0866C34.5348 84.7128 31.9149 83.1791 29.8598 82.7463C29.3055 82.6293 28.7373 82.5915 28.1723 82.6341C27.9816 82.6484 28.0975 82.9476 28.2524 82.936C29.3467 82.8929 30.4329 83.1415 31.3996 83.6563C32.3625 84.0998 33.1713 84.8204 33.7225 85.726C33.9685 86.1719 34.0902 86.6757 34.0749 87.1847C34.0596 87.6938 33.9078 88.1894 33.6353 88.6196C33.2687 89.2578 32.8124 89.8401 32.2803 90.3486C31.8349 90.7533 31.1658 91.2197 30.5315 91.1737C30.4286 91.1743 30.3275 91.1457 30.2402 91.091C30.153 91.0364 30.083 90.958 30.0386 90.8651C30.021 90.7423 30.0321 90.617 30.0711 90.4992C30.11 90.3814 30.1757 90.2742 30.263 90.186C30.5974 89.8287 31.0111 89.5549 31.4706 89.3867C32.5925 88.9208 33.8072 88.7215 35.0191 88.8044C36.2687 88.8293 37.4835 89.2206 38.5127 89.9298C39.4085 90.6741 40.0451 91.6834 40.3307 92.8126C40.6907 93.9602 40.8024 95.1714 40.6583 96.3656C40.4385 97.5703 39.9772 98.718 39.3022 99.7398C38.6103 100.882 37.7411 101.971 36.44 102.433C36.1183 102.545 35.4451 102.716 35.318 102.246C35.1912 101.784 35.5573 101.205 35.7952 100.842C36.3146 100.021 37.0744 99.3794 37.9711 99.0052C38.8364 98.6597 39.77 98.5189 40.6987 98.5939C42.4599 98.727 44.2483 99.647 44.8617 101.397C45.1682 102.443 45.2008 103.551 44.9563 104.613C44.737 105.778 44.3182 106.897 43.7184 107.919C42.4275 110.088 40.475 111.787 38.1477 112.764C37.5938 113.005 37.0189 113.205 36.4456 113.395C36.3854 113.415 36.4119 113.565 36.4792 113.555H36.4785Z" fill="#E0E0E0"/>
<path d="M24.5897 81.0832C23.0739 80.9767 21.033 82.1529 21.7656 83.0135C22.4983 83.874 24.4457 82.4816 24.4457 82.4816C24.4457 82.4816 24.2621 84.2211 24.899 84.4178C25.5359 84.6146 26.3782 82.9592 25.7592 81.8967C26.0646 82.015 26.3948 82.0549 26.7196 82.0126C27.0444 81.9703 27.3534 81.8473 27.6184 81.6547C28.5216 80.989 27.5638 80.3625 26.2884 80.4744C26.2884 80.4744 27.2014 77.4913 25.3575 78.0553C24.4457 78.3336 24.1185 79.416 24.5897 81.0832Z" fill="#27DEBF"/>
<path opacity="0.65" d="M24.5897 81.0832C23.0739 80.9767 21.033 82.1529 21.7656 83.0135C22.4983 83.874 24.4457 82.4816 24.4457 82.4816C24.4457 82.4816 24.2621 84.2211 24.899 84.4178C25.5359 84.6146 26.3782 82.9592 25.7592 81.8967C26.0646 82.015 26.3948 82.0549 26.7196 82.0126C27.0444 81.9703 27.3534 81.8473 27.6184 81.6547C28.5216 80.989 27.5638 80.3625 26.2884 80.4744C26.2884 80.4744 27.2014 77.4913 25.3575 78.0553C24.4457 78.3336 24.1185 79.416 24.5897 81.0832Z" fill="white"/>
<path d="M25.9814 81.718C25.8993 81.6364 25.8118 81.5605 25.7196 81.4906C25.5883 81.3892 25.4518 81.2935 25.3183 81.1955C25.1906 81.1029 25.0568 81.019 24.9177 80.9445C24.8373 80.9008 24.7551 80.86 24.6713 80.8234C24.552 80.7666 24.4187 80.746 24.2879 80.7643C24.1563 80.7807 24.0392 80.9311 24.1383 81.0564C24.2468 81.1695 24.3818 81.2539 24.531 81.3017C24.5995 81.3369 24.6668 81.3743 24.733 81.4139C24.8678 81.4966 24.9983 81.5862 25.1238 81.6824C25.2514 81.7763 25.3834 81.8638 25.509 81.96C25.7006 82.1216 25.9161 82.2524 26.1478 82.3478C26.1589 82.3516 26.1707 82.3524 26.1822 82.3503C26.1937 82.3481 26.2044 82.343 26.2133 82.3354C26.37 82.1829 26.0914 81.8279 25.9814 81.718Z" fill="#455A64"/>
<path fill-rule="evenodd" clip-rule="evenodd" d="M15.4308 111.453C13.1056 106.729 10.8489 105.012 10.1328 104.46C10.7939 105.784 16.0152 120.86 16.7376 124.808C14.3135 120.03 13.0637 118.997 12.6118 118.532C11.3885 117.274 9.85732 116.38 8.97583 115.939C9.36176 116.475 13.8789 121.899 15.4765 126.645L16.7436 128.907H23.0789C23.0789 128.907 23.74 126.71 24.7867 125.739C25.8334 124.768 29.7778 119.91 30.3839 117.04C28.9217 118.733 24.2721 124.768 23.445 125.739C25.4834 119.967 25.7894 119.434 27.5314 116.233C29.2735 113.032 32.885 108.346 33.0503 108.235C31.1771 109.229 25.67 112.7 23.0583 119.578C21.9669 122.452 21.6248 124.282 21.6248 124.282C21.6248 124.282 22.8043 118.538 22.7491 112.909C22.6941 107.28 23.0789 94.6543 23.0789 94.6543C23.0789 94.6543 20.5679 99.0629 19.6374 106.21C19.2932 108.853 19.0029 119.709 19.113 122.335C19.113 122.335 17.6883 116.04 15.4308 111.453Z" fill="#009BA0"/>
<path fill-rule="evenodd" clip-rule="evenodd" d="M23.5297 135.597H16.2355C15.1633 135.597 14.2942 134.115 14.2942 133.039V125.762H25.6738V132.836C25.6738 134.019 24.7089 135.597 23.5297 135.597Z" fill="#E2CA4D"/>
<path d="M91.5603 137.679L58.3879 156.831L21.033 135.216L54.2054 116.064L91.5603 137.679Z" fill="#086972"/>
<path opacity="0.5" d="M91.5603 137.679L58.3879 156.831L21.033 135.216L54.2054 116.064L91.5603 137.679Z" fill="black"/>
<path d="M54.2059 90.1055V116.066L21.033 135.218V109.257L54.2059 90.1055Z" fill="#086972"/>
<path opacity="0.23" d="M54.2059 90.1055V116.066L21.033 135.218V109.257L54.2059 90.1055Z" fill="black"/>
<path d="M58.3878 130.872V156.835L21.033 135.219V109.258L58.3878 130.872Z" fill="#086972"/>
<path opacity="0.38" d="M58.3878 130.872V156.835L21.033 135.219V109.258L58.3878 130.872Z" fill="black"/>
<path d="M91.5595 111.718V137.681L54.2046 116.066V90.1055L91.5595 111.718Z" fill="#086972"/>
<path opacity="0.4" d="M91.5595 111.718V137.681L54.2046 116.066V90.1055L91.5595 111.718Z" fill="black"/>
<path d="M91.5599 137.681V111.719L58.3875 130.871V156.834L91.5599 137.681Z" fill="#086972"/>
<path opacity="0.23" d="M91.5599 137.681V111.719L58.3875 130.871V156.834L91.5599 137.681Z" fill="black"/>
<path d="M54.2058 90.1056L54.2508 75.7324L91.5135 97.3731L91.5585 111.719L54.2058 90.1056Z" fill="#086972"/>
<path opacity="0.2" d="M54.2058 90.1056L54.2508 75.7324L91.5135 97.3731L91.5585 111.719L54.2058 90.1056Z" fill="black"/>
<path d="M58.3875 130.87L61.4982 118.297L94.3702 99.3184L91.5599 111.718L58.3875 130.87Z" fill="#086972"/>
<path opacity="0.3" d="M58.3875 130.87L61.4982 118.297L94.3702 99.3184L91.5599 111.718L58.3875 130.87Z" fill="black"/>
<path d="M21.0325 109.256L17.075 96.2144L50.247 77.0625L54.2045 90.1045L21.0325 109.256Z" fill="#086972"/>
<path opacity="0.1" d="M21.0325 109.256L17.075 96.2144L50.247 77.0625L54.2045 90.1045L21.0325 109.256Z" fill="black"/>
<path d="M21.0331 109.257L13.2263 98.4785L50.5844 120.091L58.3875 130.871L21.0331 109.257Z" fill="#086972"/>
<path opacity="0.45" d="M21.0331 109.257L13.2263 98.4785L50.5844 120.091L58.3875 130.871L21.0331 109.257Z" fill="black"/>
<g opacity="0.7">
<path d="M68.1544 149.109C68.1002 149.109 68.0483 149.088 68.01 149.049C67.9717 149.011 67.9502 148.959 67.9502 148.905V144.337C67.9502 144.283 67.9717 144.231 68.0099 144.193C68.0482 144.154 68.1001 144.133 68.1541 144.133C68.2082 144.133 68.2601 144.154 68.2984 144.193C68.3366 144.231 68.3581 144.283 68.3581 144.337V148.903C68.3584 148.93 68.3533 148.957 68.3432 148.982C68.3331 149.007 68.3182 149.029 68.2993 149.048C68.2803 149.068 68.2578 149.083 68.2329 149.093C68.208 149.104 68.1813 149.109 68.1544 149.109Z" fill="white"/>
<path d="M67.5574 145.92C67.5297 145.92 67.5023 145.914 67.4769 145.903C67.4521 145.893 67.4296 145.877 67.4108 145.858C67.392 145.839 67.3772 145.816 67.3673 145.791C67.3574 145.766 67.3526 145.739 67.3531 145.712C67.3536 145.685 67.3594 145.658 67.3703 145.634L68.0961 143.957L68.9056 144.892C68.9414 144.933 68.9595 144.986 68.9558 145.041C68.9522 145.095 68.9272 145.145 68.8863 145.181C68.8454 145.217 68.7919 145.235 68.7377 145.231C68.6835 145.228 68.6329 145.203 68.5971 145.162L68.2126 144.718L67.7449 145.797C67.729 145.833 67.7028 145.865 67.6695 145.886C67.6362 145.908 67.5972 145.92 67.5574 145.92Z" fill="white"/>
<path d="M70.0401 148.036C69.9861 148.036 69.9343 148.014 69.8961 147.976C69.8579 147.938 69.8364 147.886 69.8364 147.832V143.264C69.8364 143.21 69.8579 143.158 69.8961 143.12C69.9343 143.082 69.9861 143.061 70.0401 143.061C70.0942 143.061 70.146 143.082 70.1842 143.12C70.2224 143.158 70.2439 143.21 70.2439 143.264V147.832C70.2439 147.859 70.2386 147.885 70.2284 147.91C70.2181 147.935 70.2031 147.957 70.1842 147.976C70.1653 147.995 70.1428 148.01 70.1181 148.02C70.0934 148.031 70.0669 148.036 70.0401 148.036Z" fill="white"/>
<path d="M69.4421 144.847C69.4082 144.847 69.3749 144.838 69.3451 144.822C69.3153 144.806 69.29 144.783 69.2714 144.755C69.2529 144.726 69.2416 144.694 69.2388 144.66C69.2359 144.626 69.2415 144.593 69.255 144.561L69.9804 142.887L70.7899 143.82C70.8257 143.861 70.8438 143.914 70.8402 143.968C70.8366 144.023 70.8116 144.073 70.7708 144.109C70.7299 144.145 70.6765 144.163 70.6224 144.159C70.5682 144.156 70.5176 144.131 70.4818 144.09L70.0969 143.645L69.6296 144.725C69.6135 144.761 69.5872 144.792 69.5539 144.813C69.5206 144.835 69.4818 144.847 69.4421 144.847Z" fill="white"/>
</g>
<g opacity="0.7">
<path d="M62.7187 152.212C62.6408 152.213 62.5641 152.193 62.4961 152.155C62.4152 152.102 62.3498 152.029 62.3069 151.943C62.2639 151.857 62.2449 151.761 62.2519 151.665V151.106C62.2519 151.052 62.2734 151 62.3116 150.962C62.3499 150.923 62.4018 150.902 62.4558 150.902C62.5099 150.902 62.5618 150.923 62.6001 150.962C62.6383 151 62.6598 151.052 62.6598 151.106V151.665C62.6598 151.749 62.6827 151.792 62.6985 151.8C62.7142 151.808 62.7614 151.806 62.8334 151.765C62.9592 151.648 63.0583 151.505 63.1237 151.345C63.1891 151.186 63.2194 151.015 63.2125 150.843V148.505C63.2125 148.451 63.234 148.399 63.2722 148.361C63.3105 148.322 63.3624 148.301 63.4165 148.301C63.4705 148.301 63.5224 148.322 63.5607 148.361C63.5989 148.399 63.6204 148.451 63.6204 148.505V150.843C63.6302 151.086 63.5829 151.328 63.4821 151.549C63.3813 151.77 63.23 151.965 63.0403 152.117C62.9435 152.177 62.8325 152.21 62.7187 152.212Z" fill="white"/>
<path d="M60.5718 150.327V149.974C60.6214 149.07 60.8835 148.189 61.3366 147.404C61.7898 146.62 62.4213 145.953 63.1802 145.457C63.4515 145.228 63.7869 145.089 64.1405 145.058C64.4941 145.026 64.8487 145.105 65.1561 145.282C65.4635 145.46 65.7087 145.728 65.8583 146.05C66.0078 146.372 66.0545 146.732 65.9918 147.081V147.199L60.5718 150.327ZM64.3994 145.495C64.0391 145.51 63.6889 145.618 63.383 145.809C62.736 146.234 62.1882 146.794 61.7769 147.449C61.3655 148.105 61.1004 148.842 60.9995 149.609L65.5812 146.963C65.5983 146.706 65.5494 146.449 65.4392 146.217C65.329 145.984 65.1612 145.783 64.9516 145.634C64.783 145.539 64.5925 145.492 64.3994 145.495Z" fill="white"/>
</g>
<path opacity="0.7" d="M13.2263 98.4785L50.5844 120.091L58.3875 130.871L50.1711 120.473L13.2263 98.4785Z" fill="white"/>
<path opacity="0.7" d="M91.5606 111.719L58.3882 130.872V156.835L59.007 131.394L91.5606 111.719Z" fill="white"/>
</g>
</g>
<defs>
<clipPath id="clip0_10219_106501">
<rect width="187" height="187" fill="white"/>
</clipPath>
</defs>
</svg>
