<svg width="13" height="18" viewBox="0 0 13 18" fill="none" xmlns="http://www.w3.org/2000/svg">
<path d="M7.4375 4.375C7.4375 4.97266 7.90234 5.4375 8.5 5.4375H12.75V15.5312C12.75 16.4277 12.0195 17.125 11.1562 17.125H1.59375C0.697266 17.125 0 16.4277 0 15.5312V1.71875C0 0.855469 0.697266 0.125 1.59375 0.125H7.4375V4.375ZM9.03125 8.92383C9.26367 8.55859 8.99805 8.09375 8.59961 8.09375H7.70312C7.53711 8.09375 7.37109 8.19336 7.27148 8.35938L6.375 9.82031L5.44531 8.35938C5.3457 8.19336 5.17969 8.09375 5.01367 8.09375H4.11719C3.71875 8.09375 3.45312 8.55859 3.68555 8.92383L5.3125 11.5469L3.65234 14.2031C3.45312 14.5684 3.71875 15 4.11719 15H5.01367C5.17969 15 5.3457 14.9336 5.44531 14.7676L6.375 13.2734L7.27148 14.7676C7.37109 14.9336 7.53711 15 7.70312 15H8.59961C8.99805 15 9.26367 14.5684 9.03125 14.2031L7.4375 11.5469L9.03125 8.92383ZM8.5 0.125L12.75 4.375H8.5V0.125Z" fill="#F8F9FA"/>
</svg>
