<svg width="448" height="121" viewBox="0 0 448 121" fill="none" xmlns="http://www.w3.org/2000/svg">
<path d="M87.3681 18.4923C88.8238 17.424 91.4694 14.899 92.4672 13.6257C92.7646 13.2463 93.0409 12.9255 93.0814 12.9127C93.2171 12.8701 92.3806 15.1802 91.3552 17.6797C87.4051 27.3087 81.9884 34.249 75.2922 38.2593C72.0755 40.1859 69.336 41.1874 64.7805 42.1016C59.7715 43.107 57.2153 43.252 47.4986 43.0819C37.6902 42.91 36.0903 42.9889 31.8926 43.8517C28.0567 44.6398 26.5638 45.2351 24.2498 46.898C23.552 47.3995 22.9261 47.7738 22.8593 47.7296C22.7924 47.6851 23.1185 46.7145 23.5841 45.5722C25.2253 41.5451 28.4861 37.6137 32.1062 35.2979C37.5061 31.8434 43.3661 30.168 58.3571 27.7924C74.2505 25.274 81.137 23.0663 87.3681 18.4923Z" fill="white"/>
<path d="M16.2795 47.9433C17.8566 37.2027 23.747 27.7116 23.6913 27.7403C18.5557 30.3901 7.82482 50.7 3.84379 61.6631C2.31742 65.8665 0 71.6005 0 71.6005C0 71.6005 18.3868 51.0978 11.6337 84.3959C11.1585 88.0843 11.0348 88.9881 11.0897 88.999C11.1129 89.0037 11.1683 88.8478 11.2427 88.6756C26.3849 75.4464 18.0517 65.5806 23.6913 63.4203C27.1256 62.1048 29.0885 63.4029 33.1002 63.8143C40.8315 64.6069 44.7017 64.0972 49.0116 61.7181C51.9283 60.1083 55.4904 56.9652 58.0476 53.7452C59.8737 51.4455 62.3663 47.9405 62.6116 47.3273L62.8397 46.7571L62.3055 47.3276C60.6617 49.0836 57.9756 50.3414 54.2546 51.0978C50.9375 51.772 48.6045 51.8911 41.1039 51.7691C37.7244 51.7142 34.1098 51.6968 33.0712 51.7302C27.3664 51.915 20.1775 53.105 15.1519 55.6216L16.2795 47.9433Z" fill="white"/>
<path d="M113.671 89V48.008H104.455V36.776H113.671V35.048C113.671 31.08 114.471 27.72 116.071 24.968C117.735 22.152 120.039 20.008 122.983 18.536C125.927 17.064 129.415 16.328 133.447 16.328C134.215 16.328 135.047 16.392 135.943 16.52C136.903 16.584 137.703 16.68 138.343 16.808V27.656C137.703 27.528 137.095 27.464 136.519 27.464C136.007 27.4 135.527 27.368 135.079 27.368C132.263 27.368 130.087 28.008 128.551 29.288C127.015 30.504 126.247 32.424 126.247 35.048V36.776H137.863V48.008H126.247V89H113.671ZM164.131 90.152C158.563 90.152 153.731 88.936 149.635 86.504C145.539 84.072 142.371 80.776 140.131 76.616C137.891 72.456 136.771 67.848 136.771 62.792C136.771 57.544 137.891 52.904 140.131 48.872C142.435 44.776 145.539 41.544 149.443 39.176C153.411 36.808 157.827 35.624 162.691 35.624C166.787 35.624 170.371 36.296 173.443 37.64C176.579 38.984 179.235 40.84 181.411 43.208C183.587 45.576 185.251 48.296 186.403 51.368C187.555 54.376 188.131 57.64 188.131 61.16C188.131 62.056 188.067 62.984 187.939 63.944C187.875 64.904 187.715 65.736 187.459 66.44H147.139V56.84H180.355L174.403 61.352C174.979 58.408 174.819 55.784 173.923 53.48C173.091 51.176 171.683 49.352 169.699 48.008C167.779 46.664 165.443 45.992 162.691 45.992C160.067 45.992 157.731 46.664 155.683 48.008C153.635 49.288 152.067 51.208 150.979 53.768C149.955 56.264 149.571 59.304 149.827 62.888C149.571 66.088 149.987 68.936 151.075 71.432C152.227 73.864 153.923 75.752 156.163 77.096C158.403 78.44 161.059 79.112 164.131 79.112H183.043V90.152H164.131ZM191.424 89V36.776H247.104C251.776 36.776 255.776 37.608 259.104 39.272C262.432 40.936 264.992 43.304 266.784 46.376C268.576 49.384 269.472 53 269.472 57.224V89H256.896V57.8C256.896 54.792 256 52.424 254.208 50.696C252.48 48.904 250.112 48.008 247.104 48.008H236.736V89H224.16V48.008H204V89H191.424ZM297.679 89.576C291.791 89.576 287.215 87.976 283.951 84.776C280.751 81.512 279.151 76.936 279.151 71.048V48.008H270.127V36.776H271.087C273.647 36.776 275.631 36.104 277.039 34.76C278.447 33.416 279.151 31.464 279.151 28.904V24.872H291.727V36.776H303.727V48.008H291.727V70.376C291.727 72.104 292.015 73.576 292.591 74.792C293.231 76.008 294.191 76.936 295.471 77.576C296.815 78.216 298.511 78.536 300.559 78.536C301.007 78.536 301.519 78.504 302.095 78.44C302.735 78.376 303.343 78.312 303.919 78.248V89C303.023 89.128 301.999 89.256 300.847 89.384C299.695 89.512 298.639 89.576 297.679 89.576ZM332.355 90.152C327.235 90.152 322.563 88.968 318.339 86.6C314.179 84.232 310.851 81 308.355 76.904C305.923 72.808 304.707 68.136 304.707 62.888C304.707 57.64 305.923 52.968 308.355 48.872C310.851 44.776 314.179 41.544 318.339 39.176C322.499 36.808 327.171 35.624 332.355 35.624C337.475 35.624 342.115 36.808 346.275 39.176C350.435 41.544 353.731 44.776 356.163 48.872C358.659 52.904 359.907 57.576 359.907 62.888C359.907 68.136 358.659 72.808 356.163 76.904C353.667 81 350.339 84.232 346.179 86.6C342.019 88.968 337.411 90.152 332.355 90.152ZM332.355 78.632C335.171 78.632 337.635 77.96 339.747 76.616C341.923 75.272 343.619 73.416 344.835 71.048C346.115 68.616 346.755 65.896 346.755 62.888C346.755 59.816 346.115 57.128 344.835 54.824C343.619 52.456 341.923 50.6 339.747 49.256C337.635 47.848 335.171 47.144 332.355 47.144C329.475 47.144 326.947 47.848 324.771 49.256C322.595 50.6 320.867 52.456 319.587 54.824C318.371 57.128 317.763 59.816 317.763 62.888C317.763 65.896 318.371 68.616 319.587 71.048C320.867 73.416 322.595 75.272 324.771 76.616C326.947 77.96 329.475 78.632 332.355 78.632Z" fill="white"/>
</svg>
