<svg width="11" height="15" viewBox="0 0 11 15" fill="none" xmlns="http://www.w3.org/2000/svg">
<path d="M9.98047 3.32031C10.3086 3.64844 10.5 4.08594 10.5 4.55078V13C10.5 13.9844 9.70703 14.75 8.75 14.75H1.75C0.765625 14.75 0 13.9844 0 13V2.5C0 1.54297 0.765625 0.75 1.75 0.75H6.69922C7.16406 0.75 7.60156 0.941406 7.92969 1.26953L9.98047 3.32031ZM9.1875 13H9.16016V5.125H7C6.50781 5.125 6.125 4.74219 6.125 4.25V2.08984H1.75C1.50391 2.08984 1.3125 2.28125 1.3125 2.52734V13C1.3125 13.2461 1.50391 13.4375 1.75 13.4375H8.75C8.96875 13.4375 9.1875 13.2461 9.1875 13ZM5.25 7.75C5.60547 7.75 5.90625 8.05078 5.90625 8.40625V11.9062C5.90625 12.2891 5.60547 12.5625 5.25 12.5625C4.86719 12.5625 4.59375 12.2891 4.59375 11.9062V8.40625C4.59375 8.05078 4.86719 7.75 5.25 7.75ZM7 11.9062V9.28125C7 8.92578 7.27344 8.625 7.65625 8.625C8.01172 8.625 8.3125 8.92578 8.3125 9.28125V11.9062C8.3125 12.2891 8.01172 12.5625 7.65625 12.5625C7.27344 12.5625 7 12.2891 7 11.9062ZM2.84375 9.5C3.19922 9.5 3.5 9.80078 3.5 10.1562V11.9062C3.5 12.2891 3.19922 12.5625 2.84375 12.5625C2.46094 12.5625 2.1875 12.2891 2.1875 11.9062V10.1562C2.1875 9.80078 2.46094 9.5 2.84375 9.5Z" fill="#086972"/>
</svg>
