<svg width="26" height="33" viewBox="0 0 26 33" fill="none" xmlns="http://www.w3.org/2000/svg">
<path d="M25.0858 30.5801L22.3257 25.4543C21.9737 24.7994 21.2274 24.4826 20.5302 24.6587L19.967 23.6166C20.5302 23.2575 21.0231 22.8139 21.4385 22.2929C21.9455 21.6662 22.3186 20.9551 22.551 20.1806C22.7833 19.4061 22.8608 18.6104 22.7904 17.8078C22.7129 16.977 22.4735 16.1813 22.0722 15.442C21.6779 14.7027 21.1428 14.062 20.495 13.541C19.8684 13.034 19.1572 12.6608 18.3827 12.4285C17.6083 12.1962 16.8126 12.1187 16.01 12.1891C15.1791 12.2666 14.3835 12.506 13.6442 12.9073C12.9049 13.3016 12.2641 13.8367 11.7431 14.4845C11.2362 15.1111 10.863 15.8222 10.6307 16.5967C10.3983 17.3712 10.3209 18.1669 10.3913 18.9695C10.4687 19.8004 10.7081 20.596 11.1094 21.3353C11.5037 22.0746 12.0389 22.7154 12.6866 23.2364C13.3133 23.7433 14.0244 24.1165 14.7989 24.3488C15.3833 24.5249 15.9888 24.6164 16.5873 24.6164C16.7774 24.6164 16.9745 24.6093 17.1717 24.5882C17.8335 24.5249 18.4813 24.3559 19.0868 24.0883L19.6783 25.1867C19.2699 25.6725 19.1713 26.3837 19.4952 26.9822L22.2553 32.108C22.6777 32.8896 23.6494 33.1782 24.4239 32.7628C25.2125 32.3263 25.5083 31.3546 25.0858 30.5801ZM12.525 15.1037C12.9615 14.5616 13.5037 14.1109 14.1233 13.7801C14.7429 13.4492 15.4118 13.2449 16.1088 13.1745C16.2708 13.1605 16.4327 13.1534 16.5947 13.1534C17.1016 13.1534 17.6086 13.2309 18.1014 13.3787C18.7492 13.5759 19.3477 13.8857 19.8757 14.3152C20.4179 14.7517 20.8685 15.2939 21.1994 15.9135C21.5303 16.5331 21.7345 17.202 21.8049 17.8991C21.8049 17.9272 21.812 17.9484 21.812 17.9765C21.5444 17.7301 21.0867 17.3428 20.4812 16.9485C19.9109 16.5824 19.3335 16.2867 18.7562 16.0755C18.0239 15.8079 17.2987 15.6671 16.5946 15.6671C15.8905 15.6671 15.1653 15.8009 14.433 16.0755C13.8556 16.2867 13.2782 16.5824 12.7079 16.9485C12.1024 17.3428 11.6377 17.7371 11.3772 17.9765C11.4054 17.6104 11.4758 17.2443 11.5814 16.8852C11.7926 16.2233 12.1025 15.6318 12.525 15.1037ZM15.6723 20.3634C15.3836 20.307 15.095 20.2225 14.7993 20.1169C14.2994 19.9339 13.7854 19.6733 13.2854 19.3495C12.8348 19.0608 12.4757 18.765 12.2293 18.5538C12.4757 18.3356 12.8419 18.0469 13.2854 17.7582C13.7853 17.4343 14.2993 17.1738 14.7993 16.9908C15.095 16.8851 15.3837 16.8006 15.6723 16.7443C15.0175 17.0823 14.5669 17.7652 14.5669 18.5538C14.5669 19.3424 15.0175 20.0254 15.6723 20.3634ZM18.2282 17.4765C18.2282 17.8075 17.9606 18.068 17.6368 18.068C17.3058 18.068 17.0453 17.8004 17.0453 17.4765C17.0453 17.1526 17.3129 16.8851 17.6368 16.8851C17.6931 16.8851 17.7494 16.8921 17.7987 16.9062C17.7142 16.8499 17.6297 16.7936 17.5382 16.7443C17.8269 16.8006 18.1155 16.8851 18.4112 16.9907C18.9111 17.1738 19.4251 17.4343 19.9251 17.7582C20.3757 18.0469 20.7348 18.3426 20.9812 18.5538C20.7348 18.7721 20.3686 19.0607 19.9251 19.3494C19.4252 19.6733 18.9112 19.9338 18.4112 20.1169C18.1155 20.2225 17.8268 20.307 17.5382 20.3633C18.193 20.0253 18.6436 19.3424 18.6436 18.5538C18.6436 18.075 18.4746 17.6314 18.2 17.2864C18.2141 17.3427 18.2282 17.4061 18.2282 17.4765ZM17.0946 23.5882C16.4187 23.6515 15.7498 23.5811 15.102 23.391C14.4543 23.1939 13.8558 22.8841 13.3277 22.4546C12.7856 22.018 12.3349 21.4759 12.004 20.8562C11.7224 20.3282 11.5323 19.7649 11.4408 19.1734C11.7083 19.4199 12.1589 19.793 12.7293 20.1662C13.2996 20.5323 13.877 20.8281 14.4543 21.0393C15.1866 21.3068 15.9119 21.4476 16.6159 21.4476C17.32 21.4476 18.0452 21.3139 18.7775 21.0393C19.3549 20.828 19.9323 20.5323 20.5026 20.1662C21.0729 19.793 21.5165 19.4269 21.7911 19.1805C21.7559 19.4199 21.6996 19.6523 21.6291 19.8846C21.432 20.5324 21.1222 21.1309 20.6927 21.6589C20.2561 22.2011 19.714 22.6517 19.0944 22.9826C18.4537 23.3206 17.7846 23.5248 17.0946 23.5882Z" fill="#086972"/>
<path d="M14.0946 5.29536H18.7346C18.8684 5.29536 18.9317 5.13342 18.8402 5.04189L14.0523 0.253999C13.9608 0.162464 13.7988 0.225835 13.7988 0.359613V4.99261C13.7988 5.1616 13.9326 5.29536 14.0946 5.29536Z" fill="#086972"/>
<path d="M9.64461 19.0318C9.56012 18.1306 9.65165 17.2364 9.91216 16.3703C10.1727 15.5043 10.5951 14.7016 11.1584 13.9975C11.7428 13.2653 12.461 12.6738 13.2918 12.2232C14.1227 11.7796 15.0169 11.5051 15.9463 11.4205C16.1646 11.3994 16.3828 11.3924 16.6011 11.3924C17.277 11.3924 17.96 11.4909 18.6148 11.6881C18.7556 11.7303 18.8965 11.7796 19.0302 11.8289V6.28056H13.3059C13.0313 6.28056 12.813 6.05525 12.813 5.78769V0H0.921036C0.470412 0 0.111328 0.366133 0.111328 0.809708V22.1442C0.111328 22.5948 0.477461 22.9539 0.921036 22.9539H11.3208C10.9899 22.5667 10.7012 22.1442 10.4548 21.6936C10.0041 20.8628 9.72907 19.9683 9.64461 19.0318ZM3.04746 4.38653H10.3984C10.673 4.38653 10.8913 4.61185 10.8913 4.8794C10.8913 5.154 10.666 5.37227 10.3984 5.37227H3.04746C2.77287 5.37227 2.5546 5.14696 2.5546 4.8794C2.54755 4.6048 2.77287 4.38653 3.04746 4.38653ZM3.04746 8.01265H15.6366C15.9112 8.01265 16.1295 8.23796 16.1295 8.50552C16.1295 8.78011 15.9042 8.99838 15.6366 8.99838H3.04746C2.77287 8.99838 2.5546 8.77307 2.5546 8.50552C2.54755 8.23092 2.77287 8.01265 3.04746 8.01265Z" fill="#086972"/>
</svg>
