<svg width="307" height="307" viewBox="0 0 307 307" fill="none" xmlns="http://www.w3.org/2000/svg">
<g opacity="0.4" clip-path="url(#clip0_6283_257909)">
<mask id="mask0_6283_257909" style="mask-type:luminance" maskUnits="userSpaceOnUse" x="0" y="0" width="307" height="307">
<path d="M307 0H0V307H307V0Z" fill="white"/>
</mask>
<g mask="url(#mask0_6283_257909)">
<path d="M307 0H0V307H307V0Z" fill="white"/>
<path d="M157.491 285.51C240.063 285.51 307 246.835 307 199.127C307 151.419 240.063 112.744 157.491 112.744C74.9198 112.744 7.98242 151.419 7.98242 199.127C7.98242 246.835 74.9198 285.51 157.491 285.51Z" fill="#F5F5F5"/>
<path fill-rule="evenodd" clip-rule="evenodd" d="M214.693 185.677C214.877 185.651 215.083 185.697 215.268 185.671H254.712C254.694 184.17 253.838 181.996 252.528 181.262C251.219 180.529 249.519 180.552 248.231 181.319C248.811 178.241 249.232 175.025 248.385 172.008C247.539 168.991 245.13 166.214 242.019 165.842C239.101 165.493 236.268 167.326 234.588 169.737C232.908 172.147 232.155 175.065 231.434 177.912C231.516 176.565 230.848 175.197 229.737 174.432C228.625 173.667 227.109 173.533 225.88 174.089C224.507 174.71 223.595 176.086 223.171 177.532C222.749 178.979 222.75 180.509 222.754 182.015C221.875 180.023 219.333 178.95 217.293 179.71C215.252 180.471 214.053 183.596 214.693 185.677Z" fill="#087246"/>
<path fill-rule="evenodd" clip-rule="evenodd" d="M223.048 185.675C223.155 185.66 223.275 185.688 223.383 185.672H246.356C246.346 184.802 245.847 183.542 245.085 183.117C244.322 182.692 243.332 182.705 242.582 183.15C242.92 181.366 243.164 179.5 242.672 177.752C242.179 176.003 240.775 174.393 238.963 174.177C237.264 173.975 235.614 175.038 234.635 176.435C233.657 177.832 233.219 179.523 232.798 181.174C232.845 180.393 232.457 179.601 231.809 179.158C231.162 178.714 230.279 178.635 229.563 178.958C228.764 179.319 228.232 180.116 227.986 180.954C227.74 181.792 227.74 182.68 227.743 183.552C227.231 182.398 225.75 181.776 224.562 182.217C223.373 182.658 222.675 184.469 223.048 185.675Z" fill="#FFB201"/>
<path fill-rule="evenodd" clip-rule="evenodd" d="M220.693 185.891C220.693 185.891 217.16 174.857 210.058 164.756C202.957 154.655 203.993 147.776 210.058 146.004C216.124 144.232 225.98 149.463 229.03 156.61C231.002 161.231 234.352 175.846 226.087 185.891C223.726 185.826 220.693 185.891 220.693 185.891Z" fill="#187E5D"/>
<path fill-rule="evenodd" clip-rule="evenodd" d="M219.203 147.583C214.855 127.823 222.381 125.112 230.746 127.505C239.111 129.897 244.751 140.309 243.475 150.255C241.527 165.437 230.108 185.89 230.108 185.89H223.55C223.55 185.89 223.55 167.343 219.203 147.583Z" fill="#1E9E75"/>
<path d="M228.501 133.986C228.615 133.934 228.748 133.981 228.805 134.091L228.812 134.106L228.848 134.189L228.893 134.295C228.91 134.337 228.928 134.381 228.948 134.43L228.978 134.504C229.109 134.833 229.255 135.224 229.412 135.678C229.86 136.971 230.307 138.502 230.724 140.267C231.711 144.44 232.376 149.243 232.572 154.645C232.747 159.486 232.421 164.137 231.588 169.307L231.558 169.492C230.834 173.932 229.808 178.506 227.945 185.911C227.913 186.036 227.786 186.112 227.661 186.081C227.535 186.049 227.459 185.922 227.491 185.796L227.656 185.139C229.412 178.13 230.396 173.707 231.096 169.417C231.946 164.202 232.279 159.528 232.103 154.662C231.909 149.291 231.248 144.519 230.268 140.375L230.214 140.148C229.816 138.494 229.393 137.054 228.969 135.831L228.921 135.692C228.785 135.304 228.658 134.966 228.543 134.678L228.5 134.571C228.486 134.537 228.473 134.505 228.46 134.475L228.417 134.373L228.384 134.296C228.33 134.178 228.383 134.039 228.501 133.986Z" fill="#160C1F"/>
<path fill-rule="evenodd" clip-rule="evenodd" d="M251.124 148.839C263.685 148.199 264.483 158.626 262.854 162.919C260.931 167.984 255.164 171.36 250.557 173.366C239.717 178.084 236.957 185.888 236.957 185.888H227.467C227.467 185.888 229.278 149.952 251.124 148.839Z" fill="#F5B643"/>
<path d="M252.995 156.824C253.115 156.775 253.251 156.833 253.3 156.953C253.349 157.073 253.291 157.209 253.171 157.258C242.205 161.72 235.381 171.256 232.694 185.898C232.671 186.025 232.549 186.11 232.421 186.086C232.294 186.063 232.21 185.941 232.233 185.814C234.948 171.024 241.869 161.35 252.995 156.824Z" fill="#160C1F"/>
<path d="M130.186 26.0874V22.0156C130.155 21.7804 130.064 21.5571 129.921 21.3671C129.779 21.1771 129.591 21.0267 129.374 20.9303L104.769 6.81296C104.182 6.5173 103.535 6.36328 102.878 6.36328C102.221 6.36328 101.573 6.5173 100.986 6.81296L30.2662 47.3981C30.0493 47.4946 29.8608 47.645 29.7187 47.835C29.5765 48.025 29.4854 48.2482 29.454 48.4835V52.556C29.4854 52.7911 29.5765 53.0143 29.7187 53.2042C29.8609 53.3941 30.0493 53.5443 30.2662 53.6406L54.8653 67.7587C55.4519 68.0543 56.0997 68.2083 56.7565 68.2083C57.4134 68.2083 58.0612 68.0543 58.6477 67.7587L129.369 27.1735C129.586 27.0771 129.774 26.9268 129.916 26.7368C130.059 26.5467 130.15 26.3234 130.181 26.0881L130.186 26.0874Z" fill="#E4E4E4"/>
<path d="M30.2663 49.5688L54.8655 63.6861C55.4521 63.9818 56.0998 64.1358 56.7567 64.1358C57.4136 64.1358 58.0613 63.9818 58.6479 63.6861L129.368 23.1009C130.413 22.5014 130.413 21.5298 129.368 20.9303L104.769 6.81296C104.182 6.5173 103.535 6.36328 102.878 6.36328C102.221 6.36328 101.573 6.5173 100.987 6.81296L30.2663 47.3981C29.2223 47.994 29.2223 48.9693 30.2663 49.5688Z" fill="#DBDBDB"/>
<path d="M56.7538 64.1399V68.2109C56.0972 68.2205 55.4486 68.0654 54.8674 67.7598L30.2645 53.644C30.0472 53.5482 29.8583 53.398 29.716 53.2079C29.5737 53.0178 29.4829 52.7941 29.4524 52.5586H29.4442V48.4868H29.4524C29.4659 48.3227 29.5191 48.1644 29.6074 48.0254C29.3217 48.5511 29.5336 49.1543 30.2653 49.5759L54.8652 63.688C55.4451 63.9992 56.0958 64.1549 56.7538 64.1399Z" fill="#E0E0E0"/>
<path d="M69.9687 29.7012L90.8113 41.5836L125.243 21.8234L104.404 9.93945L69.9687 29.7012Z" fill="#E0E0E0"/>
<path d="M91.0492 40.6801L70.9434 29.1417C71.4653 27.4368 71.4273 25.6095 70.8349 23.9277L90.8115 35.3443C90.8115 35.3443 91.1932 36.6031 91.0492 40.6801Z" fill="white"/>
<path d="M89.7855 33.7172C90.3464 34.0797 90.8138 34.5696 91.1494 35.147C91.485 35.7243 91.6795 36.3729 91.7169 37.0396V40.9254C91.7169 42.1503 90.8524 42.6464 89.7855 42.0329L69.9706 30.6628V29.703L89.5205 40.8516C90.1606 41.2207 90.6789 40.921 90.6781 40.1871L90.6604 36.5863C90.6374 36.1862 90.5203 35.7971 90.3186 35.4507C90.1169 35.1044 89.8364 34.8104 89.4998 34.5929L69.9706 23.4362V22.3457L89.7855 33.7172Z" fill="#DBD6D6"/>
<path d="M69.9706 22.3472L104.404 2.58398L124.217 13.954C124.778 14.3166 125.245 14.8065 125.581 15.3838C125.917 15.9611 126.111 16.6096 126.149 17.2765V21.1629C126.174 21.4017 126.134 21.6426 126.034 21.8609C125.935 22.0792 125.778 22.267 125.582 22.4048L91.1492 42.1651C91.3457 42.0273 91.5019 41.8396 91.6016 41.6213C91.7013 41.4029 91.7409 41.162 91.7162 40.9232V37.0353C91.6791 36.3678 91.4847 35.7186 91.1489 35.1405C90.8131 34.5625 90.3455 34.072 89.784 33.7091L69.9706 22.3472Z" fill="#DBDBDB"/>
<path d="M91.154 35.1487C91.5018 35.7205 91.6968 36.3721 91.7203 37.041V40.9289C91.7449 41.1677 91.7053 41.4087 91.6057 41.627C91.506 41.8453 91.3498 42.0331 91.1532 42.1708L125.586 22.4105C125.782 22.2727 125.939 22.0849 126.038 21.8666C126.138 21.6483 126.178 21.4074 126.153 21.1687V17.2822C126.13 16.6136 125.935 15.9622 125.587 15.3906L91.154 35.1487Z" fill="#E4E4E4"/>
<path d="M48.7798 0.130859L48.5849 2.76295L71.8544 15.2442L72.3793 13.7129L48.7798 0.130859Z" fill="#DBD6D6"/>
<path d="M72.0683 14.3256L49.529 1.31274L45.6093 3.57568L68.593 17.0219L72.0683 14.3256Z" fill="white"/>
<path d="M64.3607 15.627L62.1317 41.7463C62.1474 42.0358 62.231 42.3176 62.3758 42.5687C62.5206 42.8199 62.7226 43.0334 62.9653 43.192L76.0416 50.7604C76.251 50.8733 76.4826 50.9391 76.7201 50.9531L68.5935 17.8677C68.3563 17.8542 68.1248 17.7895 67.915 17.678L66.9721 17.1309L64.3607 15.627Z" fill="#E0E0E0"/>
<path d="M69.5873 17.6814L71.9212 15.6843L73.634 14.2173C73.809 13.9382 74.0128 13.7307 73.9035 13.5018L81.9209 46.3487L81.9334 46.3746C82.0464 46.6057 82.0759 47.1218 81.7607 47.3019L77.7177 50.7631C77.4123 50.923 77.0669 50.9899 76.7239 50.9558L68.5936 17.8682C68.9359 17.9028 69.2809 17.8379 69.5873 17.6814Z" fill="#E4E4E4"/>
<path d="M73.6311 13.2532C74.0926 13.5197 73.9781 13.8165 73.6311 14.2181L69.5874 17.6808C69.3284 17.8124 69.0421 17.8809 68.7516 17.8809C68.4612 17.8809 68.1748 17.8124 67.9158 17.6808L64.3608 15.6283C63.8994 15.3618 63.8174 14.9764 64.1785 14.7682C64.4179 14.6693 64.6771 14.6274 64.9355 14.6458C65.1939 14.6641 65.4445 14.7421 65.6677 14.8738L68.4733 16.4936C68.5595 16.5373 68.6549 16.56 68.7516 16.56C68.8483 16.56 68.9437 16.5373 69.0299 16.4936L71.9832 13.928C72.0169 13.9167 72.0462 13.895 72.067 13.8661C72.0877 13.8373 72.0989 13.8026 72.0989 13.767C72.0989 13.7315 72.0877 13.6968 72.067 13.6679C72.0462 13.6391 72.0169 13.6174 71.9832 13.6061L48.7802 0.132565L49.8921 -0.509766L73.6311 13.2532Z" fill="#DBDBDB"/>
<path d="M42.0644 1.39453L64.2367 14.2036V56.385L42.0644 43.5789V1.39453Z" fill="#DBD6D6"/>
<path d="M63.5221 14.9032L42.063 2.58594C40.7528 3.97735 39.0346 4.91682 37.1562 5.26897L58.4329 17.5309C58.4329 17.5309 59.8077 17.212 63.5221 14.9032Z" fill="white"/>
<path d="M56.3716 17.4602C57.0112 17.7824 57.7175 17.9503 58.4337 17.9503C59.1499 17.9503 59.8562 17.7824 60.4958 17.4602L64.1091 15.3863C65.2476 14.7329 65.2476 13.6734 64.1091 13.02L42.9601 0.882812L42.0638 1.39447L62.8643 13.4076C63.0133 13.457 63.143 13.5522 63.2349 13.6795C63.3268 13.8068 63.3762 13.9598 63.3762 14.1167C63.3762 14.2737 63.3268 14.4267 63.2349 14.554C63.143 14.6813 63.0133 14.7765 62.8643 14.8259L59.5057 16.7308C59.1219 16.9241 58.6981 17.0248 58.2683 17.0248C57.8386 17.0248 57.4148 16.9241 57.0309 16.7308L36.237 4.74051L35.2226 5.32305L56.3716 17.4602Z" fill="#DBDBDB"/>
<path d="M35.2274 5.31641V47.4986L56.3743 59.635C57.014 59.9569 57.7202 60.1245 58.4364 60.1245C59.1525 60.1245 59.8588 59.9569 60.4985 59.635L64.1126 57.5618C64.3466 57.4582 64.5489 57.2942 64.6987 57.0866C64.8484 56.879 64.9402 56.6353 64.9646 56.3805V14.1998C64.9402 14.4546 64.8484 14.6983 64.6987 14.906C64.5489 15.1136 64.3466 15.2776 64.1126 15.3811L60.4985 17.4587C59.8589 17.781 59.1526 17.9488 58.4364 17.9488C57.7202 17.9488 57.0139 17.781 56.3743 17.4587L35.2274 5.31641Z" fill="#DBD6D6"/>
<path d="M58.4335 17.9515C59.1512 17.9656 59.8608 17.7972 60.4956 17.462L64.1097 15.3844C64.3438 15.2809 64.5461 15.1169 64.6958 14.9093C64.8455 14.7017 64.9373 14.4579 64.9617 14.2031V56.3853C64.9373 56.6401 64.8455 56.8838 64.6958 57.0914C64.5461 57.299 64.3438 57.463 64.1097 57.5666L60.4956 59.6398C59.8608 59.9749 59.1512 60.1433 58.4335 60.1293V17.9515Z" fill="#E4E4E4"/>
<path d="M234.567 64.0824L193.517 40.415C193.198 40.1829 192.824 40.04 192.432 40.0011C192.039 39.9621 191.644 40.0286 191.286 40.1935C190.756 40.4999 188.861 41.5963 188.333 41.9005C188.007 42.1265 187.748 42.4358 187.583 42.7961C187.417 43.1563 187.352 43.5543 187.393 43.9486V156.294C187.452 157.388 187.769 158.453 188.317 159.402C188.866 160.352 189.63 161.158 190.548 161.757L231.599 185.425C231.917 185.657 232.292 185.8 232.684 185.838C233.076 185.877 233.472 185.811 233.83 185.646C234.361 185.34 236.266 184.243 236.801 183.932C237.121 183.703 237.375 183.394 237.536 183.036C237.698 182.677 237.761 182.282 237.72 181.891V69.5482C237.661 68.4535 237.345 67.388 236.797 66.4384C236.249 65.4887 235.485 64.6816 234.567 64.0824Z" fill="#6C7072"/>
<path d="M196.275 158.23L193.314 159.94V169.283C193.329 169.557 193.409 169.823 193.546 170.061C193.683 170.298 193.874 170.5 194.104 170.65L195.485 171.448C195.73 171.572 196 171.637 196.274 171.637C196.548 171.637 196.818 171.572 197.063 171.448L198.446 170.65C198.935 170.333 199.314 169.874 199.533 169.334L202.196 161.649L196.275 158.23Z" fill="#6C7072"/>
<path d="M193.315 169.283C193.33 169.557 193.409 169.823 193.546 170.061C193.684 170.298 193.875 170.5 194.104 170.649L195.486 171.448C195.581 171.509 195.688 171.547 195.8 171.559C195.912 171.571 196.026 171.557 196.131 171.517C196.237 171.478 196.332 171.415 196.409 171.332C196.485 171.25 196.542 171.15 196.573 171.042L199.236 163.358L193.314 159.939L193.315 169.283Z" fill="#5E6467"/>
<path d="M225.878 175.279L222.917 176.988V186.333C222.932 186.606 223.011 186.873 223.148 187.11C223.285 187.347 223.476 187.549 223.706 187.698L225.088 188.497C225.332 188.621 225.602 188.686 225.877 188.686C226.151 188.686 226.421 188.621 226.665 188.497L228.048 187.699C228.537 187.383 228.917 186.923 229.135 186.383L231.798 178.698L225.878 175.279Z" fill="#6C7072"/>
<path d="M222.918 186.336C222.933 186.61 223.012 186.876 223.149 187.114C223.286 187.351 223.477 187.553 223.707 187.702L225.088 188.501C225.183 188.562 225.291 188.6 225.403 188.612C225.515 188.624 225.628 188.61 225.734 188.571C225.839 188.532 225.934 188.468 226.011 188.386C226.088 188.303 226.144 188.204 226.176 188.096L228.838 180.411L222.917 176.992L222.918 186.336Z" fill="#5E6467"/>
<path d="M190.76 42.1818L231.811 65.8492C232.729 66.448 233.493 67.2547 234.041 68.2039C234.59 69.1531 234.906 70.2182 234.966 71.3127V183.661C235.045 184.055 234.998 184.464 234.833 184.831C234.667 185.197 234.39 185.503 234.042 185.704C233.694 185.905 233.291 185.992 232.891 185.952C232.491 185.912 232.113 185.748 231.811 185.483L190.76 161.815C189.842 161.217 189.078 160.41 188.529 159.461C187.981 158.512 187.664 157.446 187.605 156.352V44.0039C187.526 43.6095 187.573 43.2003 187.738 42.8338C187.904 42.4673 188.181 42.162 188.529 41.9609C188.877 41.7597 189.28 41.6729 189.68 41.7125C190.08 41.7521 190.458 41.9162 190.76 42.1818Z" fill="#5E6467"/>
<path d="M131.148 195.788L175.552 221.423L237.718 185.532L234.758 183.823L190.353 158.188L131.148 192.371V195.788Z" fill="#455A64"/>
<path d="M175.552 221.423V218.004L237.718 182.113V185.532L175.552 221.423Z" fill="#6C7072"/>
<path d="M175.607 216.298C183.912 203.734 183.451 181.524 182.737 177.771C182.737 177.771 186.24 201.25 190.553 207.958" stroke="#FAFAFA" stroke-width="0.74" stroke-miterlimit="10"/>
<path d="M184.22 186.305C185.645 193.15 201.843 197.982 201.843 197.982" stroke="#FAFAFA" stroke-width="0.74" stroke-miterlimit="10"/>
<path d="M182.619 193.112C182.796 192.817 183.059 192.583 183.371 192.439C183.684 192.296 184.033 192.25 184.372 192.309C184.711 192.367 185.025 192.527 185.272 192.767C185.519 193.006 185.687 193.315 185.756 193.653C185.756 193.653 186.016 190.33 187.89 191.271" stroke="#FAFAFA" stroke-width="0.74" stroke-miterlimit="10"/>
<path d="M181.977 197.981C182.81 196.195 185.883 195.214 187.232 199.449C187.232 199.449 187.436 191.869 192.449 194.148" stroke="#FAFAFA" stroke-width="0.74" stroke-miterlimit="10"/>
<path d="M180.55 204.693C182.308 201.311 187.128 199.962 188.367 203.08C188.396 199.229 192.805 194.374 198.187 196.71" stroke="#FAFAFA" stroke-width="0.74" stroke-miterlimit="10"/>
<path d="M177.574 212.836C179.638 209.088 184.697 202.323 189.108 205.048" stroke="#FAFAFA" stroke-width="0.74" stroke-miterlimit="10"/>
<path d="M231.796 147.933V151.35L175.549 183.824L131.148 158.187V154.769L187.393 122.297L231.796 147.933Z" fill="#6C7072"/>
<path d="M231.796 147.933L175.552 180.405L131.148 154.769L187.393 122.297L231.796 147.933Z" fill="#455A64"/>
<path d="M231.796 110.334V113.751L175.549 146.225L131.149 120.588V117.17L187.393 84.6975L231.796 110.334Z" fill="#6C7072"/>
<path d="M231.796 110.334L175.552 142.807L131.149 117.17L187.393 84.6975L231.796 110.334Z" fill="#455A64"/>
<path d="M175.358 98.2231L134.307 74.5556C133.989 74.3235 133.614 74.1806 133.222 74.1417C132.83 74.1028 132.434 74.1692 132.076 74.3341C131.546 74.6405 129.652 75.7369 129.123 76.0411C128.798 76.2679 128.541 76.5775 128.376 76.9377C128.212 77.2979 128.147 77.6955 128.189 78.0892V190.435C128.248 191.53 128.565 192.595 129.113 193.544C129.662 194.493 130.426 195.3 131.345 195.898L172.395 219.567C172.713 219.799 173.088 219.942 173.48 219.981C173.873 220.02 174.268 219.953 174.626 219.788C175.156 219.482 177.063 218.385 177.597 218.074C177.917 217.845 178.171 217.536 178.332 217.178C178.494 216.82 178.557 216.425 178.516 216.034V103.689C178.457 102.594 178.14 101.528 177.591 100.578C177.042 99.6285 176.277 98.8216 175.358 98.2231Z" fill="#6C7072"/>
<path opacity="0.2" d="M175.551 115.466L178.517 113.757V103.494L175.542 105.206L175.551 115.466Z" fill="#939191"/>
<path opacity="0.2" d="M234.766 81.2862L237.731 79.577V69.3145L234.757 71.0266L234.766 81.2862Z" fill="#939191"/>
<path d="M137.068 192.369L134.108 194.078V203.422C134.123 203.695 134.202 203.962 134.339 204.199C134.476 204.437 134.667 204.639 134.897 204.788L136.279 205.586C136.524 205.71 136.794 205.775 137.068 205.775C137.342 205.775 137.612 205.71 137.857 205.586L139.239 204.788C139.728 204.472 140.108 204.012 140.326 203.472L142.989 195.787L137.068 192.369Z" fill="#6C7072"/>
<path d="M134.109 203.422C134.124 203.695 134.203 203.962 134.34 204.199C134.477 204.437 134.668 204.638 134.898 204.788L136.28 205.586C136.374 205.647 136.482 205.685 136.594 205.698C136.706 205.71 136.819 205.696 136.925 205.656C137.03 205.617 137.125 205.554 137.202 205.471C137.279 205.389 137.335 205.29 137.367 205.182L140.03 197.497L134.108 194.078L134.109 203.422Z" fill="#5E6467"/>
<path d="M166.671 209.426L163.711 211.134V220.478C163.726 220.752 163.805 221.018 163.942 221.256C164.079 221.493 164.27 221.695 164.499 221.845L165.882 222.643C166.126 222.767 166.396 222.832 166.67 222.832C166.945 222.832 167.215 222.767 167.459 222.643L168.841 221.845C169.331 221.529 169.711 221.069 169.929 220.529L172.591 212.844L166.671 209.426Z" fill="#6C7072"/>
<path d="M163.712 220.477C163.726 220.751 163.806 221.017 163.943 221.254C164.08 221.492 164.271 221.694 164.5 221.844L165.882 222.642C165.977 222.703 166.085 222.741 166.197 222.753C166.309 222.765 166.422 222.751 166.527 222.712C166.633 222.672 166.728 222.609 166.805 222.526C166.881 222.444 166.938 222.344 166.969 222.236L169.632 214.552L163.711 211.133L163.712 220.477Z" fill="#5E6467"/>
<path d="M131.343 76.2707L172.393 99.9381C173.312 100.537 174.076 101.343 174.624 102.293C175.172 103.242 175.489 104.307 175.549 105.402V217.747C175.549 218.753 175.549 221.425 175.549 221.425C175.549 221.425 173.26 220.072 172.393 219.569L131.342 195.901C130.424 195.302 129.66 194.495 129.111 193.546C128.563 192.597 128.246 191.532 128.187 190.437V78.0899C128.108 77.6954 128.155 77.2862 128.32 76.9197C128.486 76.5532 128.763 76.248 129.111 76.0468C129.459 75.8457 129.862 75.7588 130.262 75.7984C130.662 75.838 131.04 76.0022 131.342 76.2677L131.343 76.2707Z" fill="#5E6467"/>
<path opacity="0.2" d="M172.395 99.9347L131.345 76.2672C131.043 76.0019 130.665 75.8379 130.265 75.7984C129.864 75.7588 129.462 75.8457 129.113 76.0468C128.765 76.2479 128.489 76.5531 128.323 76.9194C128.157 77.2858 128.11 77.695 128.189 78.0894V88.1179L175.552 115.464V105.4C175.493 104.305 175.176 103.24 174.627 102.29C174.079 101.34 173.314 100.533 172.395 99.9347Z" fill="#939191"/>
<path d="M196.272 94.9489L228.832 76.1484V110.332" stroke="#FAFAFA" stroke-width="0.74" stroke-linecap="round" stroke-linejoin="round"/>
<path d="M222.914 101.787L228.834 76.1504L216.993 96.6601" stroke="#FAFAFA" stroke-width="0.74" stroke-linecap="round" stroke-linejoin="round"/>
<path d="M228.834 76.1504L211.073 93.2416" stroke="#FAFAFA" stroke-width="0.74" stroke-linecap="round" stroke-linejoin="round"/>
<path d="M228.835 104.878C228.843 100.085 223.372 99.8195 223.372 99.8195C223.562 98.8577 223.496 97.8628 223.182 96.9343C222.867 96.0057 222.314 95.176 221.578 94.528C219.813 93.0196 218.62 93.848 218.264 94.4653C218.264 94.4653 218.633 90.0605 214.825 89.6337C214.825 89.6337 217.35 84.975 214.825 84.244" stroke="#FAFAFA" stroke-width="0.74" stroke-linecap="round" stroke-linejoin="round"/>
<path d="M228.835 97.5133C228.642 95.0614 226.768 91.9427 224.841 93.4467C224.841 93.4467 225.349 88.0961 221.533 88.7953C221.533 88.7953 223.322 83.8323 219.571 85.0616C219.571 85.0616 222.274 81.6447 220.178 81.1486" stroke="#FAFAFA" stroke-width="0.74" stroke-linecap="round" stroke-linejoin="round"/>
<path d="M244.74 64.1906C244.707 63.7984 244.57 63.4222 244.341 63.1016C244.113 62.7809 243.802 62.5277 243.442 62.3685L199.428 36.9579C198.45 36.4617 197.369 36.2031 196.272 36.2031C195.176 36.2031 194.095 36.4617 193.117 36.9579L125.422 76.0413C125.062 76.2005 124.752 76.4536 124.523 76.7741C124.295 77.0946 124.156 77.4706 124.123 77.8627C124.128 78.4741 124.128 80.6683 124.123 81.2811C124.156 81.6734 124.295 82.0495 124.523 82.3701C124.751 82.6907 125.062 82.9439 125.422 83.1033L169.435 108.514C170.413 109.01 171.494 109.269 172.591 109.269C173.687 109.269 174.768 109.01 175.746 108.514L243.441 69.4304C243.801 69.2712 244.111 69.0179 244.34 68.6973C244.568 68.3767 244.706 68.0005 244.739 67.6083C244.735 66.9977 244.735 64.8019 244.74 64.1906Z" fill="#5E6467"/>
<path d="M169.437 105.095L125.424 79.6849C123.68 78.6786 123.68 77.0476 125.424 76.0413L193.118 36.9579C194.096 36.4617 195.177 36.2031 196.274 36.2031C197.37 36.2031 198.451 36.4617 199.429 36.9579L243.443 62.3685C245.185 63.3748 245.185 65.0065 243.443 66.012L175.748 105.095C174.77 105.592 173.689 105.85 172.592 105.85C171.496 105.85 170.415 105.592 169.437 105.095Z" fill="#455A64"/>
<path opacity="0.1" d="M234.757 74.4434L214.037 100.08L178.518 120.592L178.513 106.916L234.757 74.4434Z" fill="#939191"/>
<path opacity="0.1" d="M231.799 113.752L214.036 137.681L178.518 158.193V144.515L231.799 113.752Z" fill="#939191"/>
<path opacity="0.1" d="M231.799 151.352L214.036 175.278L178.518 195.79V182.112L231.799 151.352Z" fill="#939191"/>
<path d="M59.8873 186.424C64.5598 185.748 68.8284 182.754 71.5373 178.954C72.8089 177.187 73.7454 175.202 74.3003 173.097C74.8893 171.128 74.9871 169.045 74.5852 167.03C73.7404 163.665 70.6212 161.668 67.3228 161.247C65.6493 161.027 63.9477 161.195 62.3494 161.738C60.6862 162.312 59.2466 163.396 58.2356 164.836C57.611 165.591 57.2175 166.511 57.1022 167.484C57.0946 167.87 57.2314 168.244 57.4857 168.533C57.7399 168.823 58.0933 169.007 58.4763 169.049C59.4659 169.13 60.4543 168.88 61.286 168.338C62.2962 167.77 63.1862 167.012 63.9065 166.104C65.4498 164.197 66.6059 162.007 67.3099 159.657C67.8073 157.629 67.8115 155.512 67.3222 153.483C66.9482 151.374 65.982 149.414 64.5365 147.834C62.8851 146.326 60.7868 145.399 58.5604 145.194C56.3433 144.896 54.0876 145.113 51.9673 145.825C51.0364 146.107 50.1738 146.578 49.4339 147.209C48.9071 147.701 48.3048 148.515 48.5203 149.31C48.7598 150.196 49.9012 150.462 50.6926 150.36C51.867 150.14 52.943 149.558 53.7688 148.695C54.6867 147.794 55.4662 146.762 56.0817 145.633C56.5396 144.821 56.7788 143.903 56.7762 142.97C56.6963 139.073 52.3953 136.555 49.0213 135.845C48.1112 135.653 47.1785 135.591 46.251 135.661C45.9378 135.684 46.1282 136.175 46.3824 136.156C48.179 136.085 49.9621 136.494 51.5492 137.339C53.13 138.067 54.4578 139.25 55.3627 140.737C55.7666 141.469 55.9665 142.296 55.9413 143.131C55.9161 143.967 55.6669 144.781 55.2197 145.487C54.6177 146.535 53.8686 147.491 52.9951 148.326C52.2639 148.99 51.1654 149.756 50.1241 149.68C49.955 149.681 49.7892 149.634 49.6459 149.544C49.5026 149.455 49.3878 149.326 49.3148 149.174C49.286 148.972 49.3042 148.766 49.3681 148.573C49.4321 148.379 49.5399 148.203 49.6832 148.059C50.2323 147.472 50.9114 147.023 51.6658 146.746C53.5076 145.982 55.5018 145.654 57.4915 145.79C59.5429 145.831 61.5372 146.474 63.2268 147.638C64.6975 148.86 65.7426 150.517 66.2115 152.371C66.8025 154.255 66.9858 156.243 66.7494 158.204C66.3885 160.181 65.6312 162.066 64.523 163.743C63.3871 165.618 61.9602 167.406 59.824 168.164C59.296 168.348 58.1908 168.629 57.982 167.857C57.7739 167.099 58.375 166.148 58.7655 165.553C59.6182 164.204 60.8655 163.152 62.3378 162.537C63.7584 161.97 65.2909 161.739 66.8157 161.862C69.707 162.08 72.6431 163.591 73.6501 166.464C74.1533 168.182 74.2068 170 73.8054 171.744C73.4454 173.657 72.7578 175.493 71.7731 177.171C69.6538 180.733 66.4484 183.521 62.6276 185.126C61.7182 185.521 60.7745 185.85 59.8333 186.161C59.7344 186.193 59.778 186.44 59.8885 186.424H59.8873Z" fill="#E0E0E0"/>
<path d="M40.3693 133.115C37.8808 132.94 34.5302 134.871 35.733 136.284C36.9358 137.696 40.1329 135.411 40.1329 135.411C40.1329 135.411 39.8315 138.266 40.8771 138.589C41.9227 138.912 43.3055 136.195 42.2893 134.45C42.7907 134.645 43.3328 134.71 43.866 134.641C44.3992 134.571 44.9065 134.369 45.3415 134.053C46.8243 132.96 45.2518 131.932 43.1581 132.115C43.1581 132.115 44.6569 127.218 41.6299 128.144C40.1329 128.601 39.5957 130.378 40.3693 133.115Z" fill="#27DEBF"/>
<path opacity="0.65" d="M40.3693 133.115C37.8808 132.94 34.5302 134.871 35.733 136.284C36.9358 137.696 40.1329 135.411 40.1329 135.411C40.1329 135.411 39.8315 138.266 40.8771 138.589C41.9227 138.912 43.3055 136.195 42.2893 134.45C42.7907 134.645 43.3328 134.71 43.866 134.641C44.3992 134.571 44.9065 134.369 45.3415 134.053C46.8243 132.96 45.2518 131.932 43.1581 132.115C43.1581 132.115 44.6569 127.218 41.6299 128.144C40.1329 128.601 39.5957 130.378 40.3693 133.115Z" fill="white"/>
<path d="M42.6539 134.158C42.5191 134.024 42.3755 133.9 42.2241 133.785C42.0086 133.619 41.7845 133.461 41.5653 133.301C41.3557 133.149 41.136 133.011 40.9077 132.889C40.7757 132.817 40.6406 132.75 40.5031 132.69C40.3073 132.596 40.0885 132.563 39.8737 132.593C39.6576 132.62 39.4654 132.866 39.6281 133.072C39.8062 133.258 40.0278 133.396 40.2728 133.475C40.3852 133.533 40.4957 133.594 40.6044 133.659C40.8258 133.795 41.0399 133.942 41.246 134.1C41.4554 134.254 41.6721 134.398 41.8785 134.556C42.1929 134.821 42.5467 135.036 42.9272 135.192C42.9453 135.199 42.9647 135.2 42.9836 135.196C43.0024 135.193 43.02 135.184 43.0346 135.172C43.2919 134.922 42.8345 134.339 42.6539 134.158Z" fill="#455A64"/>
<path fill-rule="evenodd" clip-rule="evenodd" d="M25.3327 182.974C21.5154 175.218 17.8106 172.398 16.6349 171.492C17.7202 173.666 26.2922 198.417 27.4781 204.898C23.4985 197.053 21.4467 195.359 20.7047 194.595C18.6964 192.53 16.1827 191.062 14.7355 190.337C15.3691 191.217 22.7849 200.122 25.4078 207.914L27.4879 211.628H37.8887C37.8887 211.628 38.9741 208.02 40.6925 206.427C42.4108 204.833 48.8864 196.856 49.8814 192.145C47.4809 194.926 39.8476 204.833 38.4897 206.427C41.8362 196.951 42.3386 196.076 45.1985 190.821C48.0584 185.566 53.9876 177.872 54.2588 177.691C51.1837 179.322 42.1425 185.021 37.8549 196.312C36.0632 201.03 35.5015 204.035 35.5015 204.035C35.5015 204.035 37.4379 194.604 37.3473 185.363C37.2569 176.122 37.8887 155.395 37.8887 155.395C37.8887 155.395 33.7664 162.632 32.2387 174.365C31.6737 178.704 31.1971 196.527 31.3779 200.838C31.3779 200.838 29.0388 190.503 25.3327 182.974Z" fill="#009BA0"/>
<path fill-rule="evenodd" clip-rule="evenodd" d="M38.629 222.612H26.6539C24.8938 222.612 23.4669 220.179 23.4669 218.413V206.465H42.1489V218.079C42.1489 220.021 40.5649 222.612 38.629 222.612Z" fill="#E2CA4D"/>
<path d="M150.316 226.033L95.8562 257.474L34.5303 221.988L88.9899 190.547L150.316 226.033Z" fill="#086972"/>
<path opacity="0.5" d="M150.316 226.033L95.8562 257.474L34.5303 221.988L88.9899 190.547L150.316 226.033Z" fill="black"/>
<path d="M88.9906 147.928V190.548L34.5303 221.989V179.369L88.9906 147.928Z" fill="#086972"/>
<path opacity="0.23" d="M88.9906 147.928V190.548L34.5303 221.989V179.369L88.9906 147.928Z" fill="black"/>
<path d="M95.8562 214.855V257.479L34.5303 221.991V179.371L95.8562 214.855Z" fill="#086972"/>
<path opacity="0.38" d="M95.8562 214.855V257.479L34.5303 221.991V179.371L95.8562 214.855Z" fill="black"/>
<path d="M150.314 183.41V226.033L88.9883 190.548V147.928L150.314 183.41Z" fill="#086972"/>
<path opacity="0.4" d="M150.314 183.41V226.033L88.9883 190.548V147.928L150.314 183.41Z" fill="black"/>
<path d="M150.315 226.033V183.41L95.8554 214.853V257.477L150.315 226.033Z" fill="#086972"/>
<path opacity="0.23" d="M150.315 226.033V183.41L95.8554 214.853V257.477L150.315 226.033Z" fill="black"/>
<path d="M88.9902 147.929L89.064 124.332L150.239 159.86L150.312 183.412L88.9902 147.929Z" fill="#086972"/>
<path opacity="0.2" d="M88.9902 147.929L89.064 124.332L150.239 159.86L150.312 183.412L88.9902 147.929Z" fill="black"/>
<path d="M95.8554 214.854L100.962 194.212L154.929 163.055L150.315 183.412L95.8554 214.854Z" fill="#086972"/>
<path opacity="0.3" d="M95.8554 214.854L100.962 194.212L154.929 163.055L150.315 183.412L95.8554 214.854Z" fill="black"/>
<path d="M34.5294 179.369L28.0322 157.958L82.4911 126.516L88.9883 147.927L34.5294 179.369Z" fill="#086972"/>
<path opacity="0.1" d="M34.5294 179.369L28.0322 157.958L82.4911 126.516L88.9883 147.927L34.5294 179.369Z" fill="black"/>
<path d="M34.5303 179.369L21.7138 161.674L83.045 197.156L95.8555 214.853L34.5303 179.369Z" fill="#086972"/>
<path opacity="0.45" d="M34.5303 179.369L21.7138 161.674L83.045 197.156L95.8555 214.853L34.5303 179.369Z" fill="black"/>
<g opacity="0.7">
<path d="M111.89 244.797C111.801 244.797 111.716 244.762 111.653 244.699C111.59 244.636 111.555 244.551 111.555 244.462V236.962C111.555 236.873 111.59 236.788 111.653 236.725C111.716 236.663 111.801 236.627 111.889 236.627C111.978 236.627 112.063 236.663 112.126 236.725C112.189 236.788 112.224 236.873 112.224 236.962V244.458C112.225 244.503 112.217 244.546 112.2 244.588C112.183 244.629 112.159 244.666 112.128 244.697C112.097 244.729 112.06 244.754 112.019 244.771C111.978 244.788 111.934 244.797 111.89 244.797Z" fill="white"/>
<path d="M110.91 239.561C110.864 239.561 110.819 239.551 110.777 239.534C110.737 239.516 110.7 239.491 110.669 239.459C110.638 239.427 110.614 239.39 110.598 239.349C110.581 239.307 110.573 239.263 110.574 239.219C110.575 239.175 110.585 239.131 110.603 239.091L111.794 236.338L113.123 237.873C113.182 237.94 113.212 238.028 113.206 238.117C113.2 238.206 113.159 238.289 113.091 238.348C113.024 238.407 112.936 238.436 112.847 238.43C112.758 238.424 112.675 238.383 112.617 238.316L111.985 237.587L111.218 239.359C111.191 239.419 111.148 239.47 111.094 239.506C111.039 239.542 110.975 239.561 110.91 239.561Z" fill="white"/>
<path d="M114.986 243.033C114.897 243.033 114.812 242.998 114.749 242.936C114.687 242.873 114.651 242.788 114.651 242.699V235.2C114.651 235.111 114.687 235.026 114.749 234.963C114.812 234.901 114.897 234.865 114.986 234.865C115.075 234.865 115.16 234.901 115.222 234.963C115.285 235.026 115.32 235.111 115.32 235.2V242.699C115.32 242.743 115.312 242.786 115.295 242.827C115.278 242.868 115.253 242.904 115.222 242.936C115.191 242.967 115.154 242.991 115.114 243.008C115.073 243.025 115.03 243.033 114.986 243.033Z" fill="white"/>
<path d="M114.004 237.798C113.948 237.798 113.894 237.784 113.845 237.758C113.796 237.732 113.754 237.693 113.724 237.647C113.693 237.6 113.675 237.547 113.67 237.492C113.666 237.436 113.675 237.381 113.697 237.33L114.888 234.58L116.217 236.112C116.275 236.179 116.305 236.267 116.299 236.356C116.293 236.445 116.252 236.528 116.185 236.587C116.118 236.645 116.031 236.675 115.942 236.669C115.853 236.663 115.77 236.622 115.711 236.555L115.079 235.826L114.312 237.598C114.285 237.657 114.242 237.708 114.188 237.744C114.133 237.779 114.069 237.798 114.004 237.798Z" fill="white"/>
</g>
<g opacity="0.7">
<path d="M102.966 249.889C102.838 249.889 102.712 249.857 102.6 249.794C102.468 249.708 102.36 249.588 102.29 249.447C102.219 249.306 102.188 249.148 102.2 248.99V248.072C102.2 247.983 102.235 247.898 102.298 247.836C102.36 247.773 102.446 247.737 102.534 247.737C102.623 247.737 102.708 247.773 102.771 247.836C102.834 247.898 102.869 247.983 102.869 248.072V248.99C102.869 249.127 102.907 249.198 102.933 249.211C102.959 249.225 103.036 249.222 103.154 249.154C103.361 248.961 103.523 248.727 103.631 248.466C103.738 248.204 103.788 247.923 103.777 247.641V243.802C103.777 243.713 103.812 243.628 103.875 243.565C103.937 243.502 104.023 243.467 104.111 243.467C104.2 243.467 104.285 243.502 104.348 243.565C104.411 243.628 104.446 243.713 104.446 243.802V247.641C104.462 248.04 104.385 248.437 104.219 248.8C104.054 249.163 103.805 249.482 103.494 249.732C103.335 249.83 103.153 249.884 102.966 249.889Z" fill="white"/>
<path d="M99.4414 246.796V246.216C99.5229 244.731 99.9531 243.285 100.697 241.997C101.441 240.709 102.478 239.614 103.724 238.8C104.169 238.425 104.72 238.196 105.3 238.144C105.881 238.093 106.463 238.221 106.968 238.513C107.472 238.804 107.875 239.244 108.12 239.773C108.366 240.301 108.442 240.893 108.34 241.467V241.66L99.4414 246.796ZM105.725 238.862C105.134 238.887 104.559 239.065 104.057 239.379C102.994 240.076 102.095 240.994 101.42 242.071C100.745 243.147 100.309 244.357 100.144 245.617L107.665 241.273C107.693 240.851 107.613 240.429 107.432 240.047C107.251 239.665 106.976 239.336 106.632 239.09C106.355 238.935 106.042 238.857 105.725 238.862Z" fill="white"/>
</g>
<path opacity="0.7" d="M21.7138 161.674L83.045 197.156L95.8555 214.853L82.3664 197.782L21.7138 161.674Z" fill="white"/>
<path opacity="0.7" d="M150.316 183.41L95.8564 214.854V257.477L96.8723 215.711L150.316 183.41Z" fill="white"/>
</g>
</g>
<defs>
<clipPath id="clip0_6283_257909">
<rect width="307" height="307" fill="white"/>
</clipPath>
</defs>
</svg>
