<svg width="24" height="24" viewBox="0 0 24 24" fill="none" xmlns="http://www.w3.org/2000/svg">
<g clip-path="url(#clip0_530_1100)">
<path d="M12 24C18.6274 24 24 18.6274 24 12C24 5.37258 18.6274 0 12 0C5.37258 0 0 5.37258 0 12C0 18.6274 5.37258 24 12 24Z" fill="white"/>
<path d="M2.90765 12.1297C2.90861 14.8426 5.09645 17.0487 7.80941 17.0727H8.50349V15.2593H7.80941C6.12749 15.7181 4.39277 14.7265 3.93485 13.0445C3.93101 13.0311 3.92813 13.0177 3.92429 13.0042C3.45293 11.3002 5.05902 9.53766 6.05742 9.13446L6.81102 9.00006C6.97902 9.00006 7.35822 9.00006 7.81997 9.00006L9.49037 9.04422V18.6721C9.48173 19.6906 10.3006 20.5239 11.3192 20.5335V7.13766H7.81997C5.08781 7.15206 2.88557 9.3783 2.89997 12.1105L2.90765 12.1297ZM16.2277 7.13958H15.5336V9.04902H16.2277C17.9057 8.5911 19.6366 9.5799 20.0945 11.257C20.0984 11.2695 20.1013 11.2829 20.1051 11.2954C20.5736 12.9937 19.5896 14.7524 17.8981 15.242H17.5515C17.1166 15.337 16.6664 15.337 16.2315 15.242H14.5457V5.6151C14.5544 4.59654 13.7355 3.76326 12.7169 3.75366V17.1687H16.2161C18.9723 17.1255 21.1717 14.857 21.1294 12.1009C21.0872 9.40518 18.9128 7.22982 16.2161 7.18758L16.2277 7.13958Z" fill="#086972"/>
</g>
<defs>
<clipPath id="clip0_530_1100">
<rect width="24" height="24" fill="white"/>
</clipPath>
</defs>
</svg>
