<svg width="80" height="87" viewBox="0 0 80 87" fill="none" xmlns="http://www.w3.org/2000/svg">
<path d="M76.767 48.7171C76.767 49.0115 76.8543 49.2993 77.0179 49.544C77.1814 49.7888 77.4139 49.9796 77.6858 50.0923C77.9578 50.205 78.2571 50.2345 78.5458 50.1771C78.8346 50.1197 79.0998 49.9779 79.308 49.7698C79.5162 49.5617 79.658 49.2965 79.7155 49.0078C79.773 48.719 79.7436 48.4197 79.631 48.1477C79.5184 47.8757 79.3276 47.6432 79.0829 47.4796C78.8382 47.316 78.5504 47.2286 78.256 47.2285C77.8612 47.2285 77.4825 47.3853 77.2033 47.6645C76.9241 47.9436 76.7672 48.3222 76.767 48.7171Z" fill="#97E7E2"/>
<path d="M63.9732 48.7171C63.9731 49.0116 64.0604 49.2996 64.224 49.5445C64.3875 49.7894 64.6201 49.9803 64.8922 50.0931C65.1643 50.2058 65.4637 50.2353 65.7525 50.1779C66.0414 50.1205 66.3068 49.9786 66.515 49.7704C66.7233 49.5621 66.8651 49.2968 66.9226 49.0079C66.98 48.719 66.9505 48.4196 66.8377 48.1475C66.725 47.8754 66.5341 47.6429 66.2891 47.4793C66.0442 47.3157 65.7562 47.2284 65.4617 47.2285C65.067 47.2286 64.6884 47.3855 64.4093 47.6646C64.1301 47.9438 63.9733 48.3223 63.9732 48.7171Z" fill="#97E7E2"/>
<path d="M51.1792 48.7171C51.1792 49.0115 51.2664 49.2993 51.43 49.5441C51.5936 49.7889 51.8261 49.9797 52.0981 50.0923C52.3701 50.205 52.6694 50.2345 52.9581 50.177C53.2469 50.1196 53.5121 49.9778 53.7203 49.7697C53.9285 49.5615 54.0702 49.2962 54.1276 49.0075C54.1851 48.7187 54.1556 48.4194 54.0429 48.1474C53.9303 47.8754 53.7395 47.643 53.4947 47.4794C53.2499 47.3158 52.9621 47.2285 52.6677 47.2285C52.2729 47.2285 51.8943 47.3854 51.6151 47.6645C51.336 47.9437 51.1792 48.3223 51.1792 48.7171Z" fill="#97E7E2"/>
<path d="M38.3852 48.7171C38.3852 49.0115 38.4725 49.2993 38.636 49.5441C38.7996 49.7889 39.0321 49.9797 39.3041 50.0923C39.5761 50.205 39.8754 50.2345 40.1641 50.177C40.4529 50.1196 40.7181 49.9778 40.9263 49.7697C41.1345 49.5615 41.2763 49.2962 41.3337 49.0075C41.3911 48.7187 41.3617 48.4194 41.249 48.1474C41.1363 47.8754 40.9455 47.643 40.7007 47.4794C40.4559 47.3158 40.1681 47.2285 39.8737 47.2285C39.4789 47.2285 39.1003 47.3854 38.8212 47.6645C38.542 47.9437 38.3852 48.3223 38.3852 48.7171Z" fill="#97E7E2"/>
<path d="M76.767 60.8499C76.767 61.1443 76.8543 61.4321 77.0179 61.6768C77.1814 61.9216 77.4139 62.1124 77.6858 62.2251C77.9578 62.3378 78.2571 62.3673 78.5458 62.3099C78.8346 62.2525 79.0998 62.1107 79.308 61.9026C79.5162 61.6945 79.658 61.4293 79.7155 61.1406C79.773 60.8518 79.7436 60.5525 79.631 60.2805C79.5184 60.0085 79.3276 59.776 79.0829 59.6124C78.8382 59.4488 78.5504 59.3614 78.256 59.3613C78.0605 59.3613 77.8669 59.3997 77.6862 59.4745C77.5056 59.5493 77.3414 59.6589 77.2032 59.7972C77.0649 59.9354 76.9552 60.0995 76.8804 60.2801C76.8055 60.4608 76.767 60.6544 76.767 60.8499Z" fill="#97E7E2"/>
<path d="M63.9732 60.8499C63.9731 61.1444 64.0604 61.4324 64.224 61.6773C64.3875 61.9222 64.6201 62.1131 64.8922 62.2259C65.1643 62.3386 65.4637 62.3681 65.7525 62.3107C66.0414 62.2533 66.3068 62.1115 66.515 61.9032C66.7233 61.6949 66.8651 61.4296 66.9226 61.1407C66.98 60.8518 66.9505 60.5524 66.8377 60.2803C66.725 60.0082 66.5341 59.7757 66.2891 59.6121C66.0442 59.4485 65.7562 59.3612 65.4617 59.3613C65.0669 59.3613 64.6883 59.5182 64.4092 59.7973C64.13 60.0765 63.9732 60.4551 63.9732 60.8499Z" fill="#97E7E2"/>
<path d="M51.1792 60.8499C51.1792 61.1443 51.2664 61.4321 51.43 61.6769C51.5936 61.9217 51.8261 62.1125 52.0981 62.2251C52.3701 62.3378 52.6694 62.3673 52.9581 62.3099C53.2469 62.2524 53.5121 62.1106 53.7203 61.9025C53.9285 61.6943 54.0702 61.429 54.1276 61.1403C54.1851 60.8515 54.1556 60.5522 54.0429 60.2802C53.9303 60.0082 53.7395 59.7758 53.4947 59.6122C53.2499 59.4486 52.9621 59.3613 52.6677 59.3613C52.4722 59.3613 52.2786 59.3997 52.098 59.4745C51.9174 59.5493 51.7533 59.659 51.615 59.7972C51.4768 59.9354 51.3671 60.0995 51.2923 60.2802C51.2175 60.4608 51.1791 60.6544 51.1792 60.8499Z" fill="#97E7E2"/>
<path d="M38.3852 60.8499C38.3852 61.1443 38.4725 61.4321 38.636 61.6769C38.7996 61.9217 39.0321 62.1125 39.3041 62.2251C39.5761 62.3378 39.8754 62.3673 40.1641 62.3099C40.4529 62.2524 40.7181 62.1106 40.9263 61.9025C41.1345 61.6943 41.2763 61.429 41.3337 61.1403C41.3911 60.8515 41.3617 60.5522 41.249 60.2802C41.1363 60.0082 40.9455 59.7758 40.7007 59.6122C40.4559 59.4486 40.1681 59.3613 39.8737 59.3613C39.4789 59.3613 39.1003 59.5182 38.8212 59.7973C38.542 60.0765 38.3852 60.4551 38.3852 60.8499Z" fill="#97E7E2"/>
<path d="M76.767 72.9827C76.767 73.2771 76.8543 73.5649 77.0179 73.8097C77.1814 74.0545 77.4139 74.2452 77.6858 74.3579C77.9578 74.4706 78.2571 74.5001 78.5458 74.4427C78.8346 74.3853 79.0998 74.2436 79.308 74.0354C79.5162 73.8273 79.658 73.5621 79.7155 73.2734C79.773 72.9847 79.7436 72.6854 79.631 72.4134C79.5184 72.1414 79.3276 71.9088 79.0829 71.7452C78.8382 71.5816 78.5504 71.4942 78.256 71.4941C77.8612 71.4941 77.4825 71.651 77.2033 71.9301C76.9241 72.2093 76.7672 72.5879 76.767 72.9827Z" fill="#97E7E2"/>
<path d="M63.9732 72.9827C63.9731 73.2772 64.0604 73.5652 64.224 73.8101C64.3875 74.055 64.6201 74.246 64.8922 74.3587C65.1643 74.4715 65.4637 74.501 65.7525 74.4435C66.0414 74.3861 66.3068 74.2443 66.515 74.036C66.7233 73.8277 66.8651 73.5624 66.9226 73.2735C66.98 72.9846 66.9505 72.6852 66.8377 72.4131C66.725 72.141 66.5341 71.9085 66.2891 71.7449C66.0442 71.5813 65.7562 71.4941 65.4617 71.4941C65.067 71.4943 64.6884 71.6511 64.4093 71.9303C64.1301 72.2094 63.9733 72.588 63.9732 72.9827Z" fill="#97E7E2"/>
<path d="M51.1792 72.9827C51.1792 73.2771 51.2664 73.5649 51.43 73.8097C51.5936 74.0545 51.8261 74.2453 52.0981 74.358C52.3701 74.4706 52.6694 74.5001 52.9581 74.4427C53.2469 74.3852 53.5121 74.2435 53.7203 74.0353C53.9285 73.8271 54.0702 73.5619 54.1276 73.2731C54.1851 72.9844 54.1556 72.6851 54.0429 72.4131C53.9303 72.1411 53.7395 71.9086 53.4947 71.745C53.2499 71.5814 52.9621 71.4941 52.6677 71.4941C52.2729 71.4941 51.8943 71.651 51.6151 71.9301C51.336 72.2093 51.1792 72.5879 51.1792 72.9827Z" fill="#97E7E2"/>
<path d="M38.3852 72.9827C38.3852 73.2771 38.4725 73.5649 38.636 73.8097C38.7996 74.0545 39.0321 74.2453 39.3041 74.358C39.5761 74.4706 39.8754 74.5001 40.1641 74.4427C40.4529 74.3852 40.7181 74.2435 40.9263 74.0353C41.1345 73.8271 41.2763 73.5619 41.3337 73.2731C41.3911 72.9844 41.3617 72.6851 41.249 72.4131C41.1363 72.1411 40.9455 71.9086 40.7007 71.745C40.4559 71.5814 40.1681 71.4941 39.8737 71.4941C39.4789 71.4941 39.1003 71.651 38.8212 71.9301C38.542 72.2093 38.3852 72.5879 38.3852 72.9827Z" fill="#97E7E2"/>
<path d="M76.767 85.1175C76.767 85.4119 76.8543 85.6996 77.0179 85.9444C77.1814 86.1892 77.4139 86.38 77.6858 86.4927C77.9578 86.6054 78.2571 86.6349 78.5458 86.5775C78.8346 86.5201 79.0998 86.3783 79.308 86.1702C79.5162 85.9621 79.658 85.6969 79.7155 85.4081C79.773 85.1194 79.7436 84.8201 79.631 84.5481C79.5184 84.2761 79.3276 84.0436 79.0829 83.88C78.8382 83.7164 78.5504 83.629 78.256 83.6289C78.0605 83.6289 77.8669 83.6673 77.6862 83.7421C77.5056 83.8169 77.3414 83.9265 77.2032 84.0647C77.0649 84.203 76.9552 84.3671 76.8804 84.5477C76.8055 84.7284 76.767 84.922 76.767 85.1175Z" fill="#97E7E2"/>
<path d="M63.9732 85.1175C63.9731 85.412 64.0604 85.6999 64.224 85.9449C64.3875 86.1898 64.6201 86.3807 64.8922 86.4935C65.1643 86.6062 65.4637 86.6357 65.7525 86.5783C66.0414 86.5209 66.3068 86.379 66.515 86.1708C66.7233 85.9625 66.8651 85.6972 66.9226 85.4083C66.98 85.1194 66.9505 84.82 66.8377 84.5479C66.725 84.2758 66.5341 84.0433 66.2891 83.8797C66.0442 83.7161 65.7562 83.6288 65.4617 83.6289C65.0669 83.6289 64.6883 83.7857 64.4092 84.0649C64.13 84.3441 63.9732 84.7227 63.9732 85.1175Z" fill="#97E7E2"/>
<path d="M51.1792 85.1175C51.1792 85.4119 51.2664 85.6997 51.43 85.9445C51.5936 86.1893 51.8261 86.3801 52.0981 86.4927C52.3701 86.6054 52.6694 86.6349 52.9581 86.5774C53.2469 86.52 53.5121 86.3782 53.7203 86.17C53.9285 85.9619 54.0702 85.6966 54.1276 85.4079C54.1851 85.1191 54.1556 84.8198 54.0429 84.5478C53.9303 84.2758 53.7395 84.0433 53.4947 83.8798C53.2499 83.7162 52.9621 83.6289 52.6677 83.6289C52.4722 83.6289 52.2786 83.6673 52.098 83.7421C51.9174 83.8169 51.7533 83.9265 51.615 84.0648C51.4768 84.203 51.3671 84.3671 51.2923 84.5478C51.2175 84.7284 51.1791 84.922 51.1792 85.1175Z" fill="#97E7E2"/>
<path d="M38.3852 85.1175C38.3852 85.4119 38.4725 85.6997 38.636 85.9445C38.7996 86.1893 39.0321 86.3801 39.3041 86.4927C39.5761 86.6054 39.8754 86.6349 40.1641 86.5774C40.4529 86.52 40.7181 86.3782 40.9263 86.17C41.1345 85.9619 41.2763 85.6966 41.3337 85.4079C41.3911 85.1191 41.3617 84.8198 41.249 84.5478C41.1363 84.2758 40.9455 84.0433 40.7007 83.8798C40.4559 83.7162 40.1681 83.6289 39.8737 83.6289C39.4789 83.6289 39.1003 83.7857 38.8212 84.0649C38.542 84.3441 38.3852 84.7227 38.3852 85.1175Z" fill="#97E7E2"/>
<path d="M76.767 1.48857C76.767 1.78297 76.8543 2.07074 77.0179 2.31553C77.1814 2.56031 77.4139 2.75111 77.6858 2.86379C77.9578 2.97647 78.2571 3.00597 78.5458 2.94856C78.8346 2.89116 79.0998 2.74943 79.308 2.54129C79.5162 2.33316 79.658 2.06796 79.7155 1.77923C79.773 1.49051 79.7436 1.19123 79.631 0.919219C79.5184 0.647212 79.3276 0.414696 79.0829 0.251079C78.8382 0.087463 78.5504 8.3885e-05 78.256 6.03413e-08C78.0605 -5.56107e-05 77.8669 0.038411 77.6862 0.113193C77.5056 0.187976 77.3414 0.29761 77.2032 0.435842C77.0649 0.574073 76.9552 0.738189 76.8804 0.918818C76.8055 1.09945 76.767 1.29306 76.767 1.48857Z" fill="#97E7E2"/>
<path d="M63.9732 1.48857C63.9731 1.7831 64.0604 2.07104 64.224 2.31597C64.3875 2.5609 64.6201 2.75181 64.8922 2.86456C65.1643 2.97731 65.4637 3.00683 65.7525 2.94939C66.0414 2.89195 66.3068 2.75013 66.515 2.54186C66.7233 2.3336 66.8651 2.06825 66.9226 1.77938C66.98 1.4905 66.9505 1.19108 66.8377 0.918986C66.725 0.646892 66.5341 0.414349 66.2891 0.250769C66.0442 0.0871891 65.7562 -8.37678e-05 65.4617 6.03328e-08C65.0669 6.03328e-08 64.6883 0.156837 64.4092 0.435997C64.13 0.715157 63.9732 1.09378 63.9732 1.48857Z" fill="#97E7E2"/>
<path d="M51.1792 1.48857C51.1792 1.78299 51.2664 2.07077 51.43 2.31557C51.5936 2.56036 51.8261 2.75116 52.0981 2.86383C52.3701 2.97649 52.6694 3.00597 52.9581 2.94854C53.2469 2.8911 53.5121 2.74932 53.7203 2.54114C53.9285 2.33296 54.0702 2.06773 54.1276 1.77898C54.1851 1.49022 54.1556 1.19092 54.0429 0.918922C53.9303 0.646922 53.7395 0.414438 53.4947 0.250873C53.2499 0.087307 52.9621 6.03683e-08 52.6677 6.03683e-08C52.4722 -5.56288e-05 52.2786 0.0384187 52.098 0.113206C51.9174 0.187994 51.7533 0.29763 51.615 0.435868C51.4768 0.574105 51.3671 0.738231 51.2923 0.918857C51.2175 1.09948 51.1791 1.29308 51.1792 1.48857Z" fill="#97E7E2"/>
<path d="M38.3852 1.48857C38.3852 1.78298 38.4725 2.07077 38.636 2.31557C38.7996 2.56036 39.0321 2.75116 39.3041 2.86383C39.5761 2.97649 39.8754 3.00597 40.1641 2.94854C40.4529 2.8911 40.7181 2.74932 40.9263 2.54114C41.1345 2.33296 41.2763 2.06773 41.3337 1.77898C41.3911 1.49022 41.3617 1.19092 41.249 0.918921C41.1363 0.646922 40.9455 0.414438 40.7007 0.250872C40.4559 0.0873069 40.1681 0 39.8737 0C39.4789 0 39.1003 0.156837 38.8212 0.435997C38.542 0.715157 38.3852 1.09378 38.3852 1.48857Z" fill="#97E7E2"/>
<path d="M76.767 13.6214C76.767 13.9158 76.8543 14.2036 77.0179 14.4483C77.1814 14.6931 77.4139 14.8839 77.6858 14.9966C77.9578 15.1093 78.2571 15.1388 78.5458 15.0814C78.8346 15.024 79.0998 14.8822 79.308 14.6741C79.5162 14.466 79.658 14.2008 79.7155 13.912C79.773 13.6233 79.7436 13.324 79.631 13.052C79.5184 12.78 79.3276 12.5475 79.0829 12.3839C78.8382 12.2203 78.5504 12.1329 78.256 12.1328C77.8612 12.1328 77.4825 12.2896 77.2033 12.5688C76.9241 12.8479 76.7672 13.2265 76.767 13.6214Z" fill="#97E7E2"/>
<path d="M63.9732 13.6214C63.9731 13.9159 64.0604 14.2039 64.224 14.4488C64.3875 14.6937 64.6201 14.8846 64.8922 14.9974C65.1643 15.1101 65.4637 15.1396 65.7525 15.0822C66.0414 15.0248 66.3068 14.8829 66.515 14.6747C66.7233 14.4664 66.8651 14.2011 66.9226 13.9122C66.98 13.6233 66.9505 13.3239 66.8377 13.0518C66.725 12.7797 66.5341 12.5472 66.2891 12.3836C66.0442 12.22 65.7562 12.1327 65.4617 12.1328C65.067 12.1329 64.6884 12.2898 64.4093 12.5689C64.1301 12.8481 63.9733 13.2266 63.9732 13.6214Z" fill="#97E7E2"/>
<path d="M51.1792 13.6214C51.1792 13.9158 51.2664 14.2036 51.43 14.4484C51.5936 14.6932 51.8261 14.884 52.0981 14.9966C52.3701 15.1093 52.6694 15.1388 52.9581 15.0813C53.2469 15.0239 53.5121 14.8821 53.7203 14.674C53.9285 14.4658 54.0702 14.2005 54.1276 13.9118C54.1851 13.623 54.1556 13.3237 54.0429 13.0517C53.9303 12.7797 53.7395 12.5473 53.4947 12.3837C53.2499 12.2201 52.9621 12.1328 52.6677 12.1328C52.2729 12.1328 51.8943 12.2896 51.6151 12.5688C51.336 12.848 51.1792 13.2266 51.1792 13.6214Z" fill="#97E7E2"/>
<path d="M38.3852 13.6214C38.3852 13.9158 38.4725 14.2036 38.636 14.4484C38.7996 14.6932 39.0321 14.884 39.3041 14.9966C39.5761 15.1093 39.8754 15.1388 40.1641 15.0813C40.4529 15.0239 40.7181 14.8821 40.9263 14.674C41.1345 14.4658 41.2763 14.2005 41.3337 13.9118C41.3911 13.623 41.3617 13.3237 41.249 13.0517C41.1363 12.7797 40.9455 12.5473 40.7007 12.3837C40.4559 12.2201 40.1681 12.1328 39.8737 12.1328C39.4789 12.1328 39.1003 12.2896 38.8212 12.5688C38.542 12.848 38.3852 13.2266 38.3852 13.6214Z" fill="#97E7E2"/>
<path d="M76.767 25.7542C76.767 26.0486 76.8543 26.3364 77.0179 26.5811C77.1814 26.8259 77.4139 27.0167 77.6858 27.1294C77.9578 27.2421 78.2571 27.2716 78.5458 27.2142C78.8346 27.1568 79.0998 27.015 79.308 26.8069C79.5162 26.5988 79.658 26.3336 79.7155 26.0448C79.773 25.7561 79.7436 25.4568 79.631 25.1848C79.5184 24.9128 79.3276 24.6803 79.0829 24.5167C78.8382 24.3531 78.5504 24.2657 78.256 24.2656C78.0605 24.2656 77.8669 24.304 77.6862 24.3788C77.5056 24.4536 77.3414 24.5632 77.2032 24.7015C77.0649 24.8397 76.9552 25.0038 76.8804 25.1844C76.8055 25.3651 76.767 25.5587 76.767 25.7542Z" fill="#97E7E2"/>
<path d="M63.9732 25.7542C63.9731 26.0487 64.0604 26.3367 64.224 26.5816C64.3875 26.8265 64.6201 27.0174 64.8922 27.1302C65.1643 27.2429 65.4637 27.2724 65.7525 27.215C66.0414 27.1576 66.3068 27.0158 66.515 26.8075C66.7233 26.5992 66.8651 26.3339 66.9226 26.045C66.98 25.7561 66.9505 25.4567 66.8377 25.1846C66.725 24.9125 66.5341 24.68 66.2891 24.5164C66.0442 24.3528 65.7562 24.2655 65.4617 24.2656C65.0669 24.2656 64.6883 24.4224 64.4092 24.7016C64.13 24.9808 63.9732 25.3594 63.9732 25.7542Z" fill="#97E7E2"/>
<path d="M51.1792 25.7542C51.1792 26.0486 51.2664 26.3364 51.43 26.5812C51.5936 26.826 51.8261 27.0168 52.0981 27.1294C52.3701 27.2421 52.6694 27.2716 52.9581 27.2141C53.2469 27.1567 53.5121 27.0149 53.7203 26.8068C53.9285 26.5986 54.0702 26.3333 54.1276 26.0446C54.1851 25.7558 54.1556 25.4565 54.0429 25.1845C53.9303 24.9125 53.7395 24.6801 53.4947 24.5165C53.2499 24.3529 52.9621 24.2656 52.6677 24.2656C52.4722 24.2656 52.2786 24.304 52.098 24.3788C51.9174 24.4536 51.7533 24.5633 51.615 24.7015C51.4768 24.8397 51.3671 25.0038 51.2923 25.1845C51.2175 25.3651 51.1791 25.5587 51.1792 25.7542Z" fill="#97E7E2"/>
<path d="M38.3852 25.7542C38.3852 26.0486 38.4725 26.3364 38.636 26.5812C38.7996 26.826 39.0321 27.0168 39.3041 27.1294C39.5761 27.2421 39.8754 27.2716 40.1641 27.2141C40.4529 27.1567 40.7181 27.0149 40.9263 26.8068C41.1345 26.5986 41.2763 26.3333 41.3337 26.0446C41.3911 25.7558 41.3617 25.4565 41.249 25.1845C41.1363 24.9125 40.9455 24.6801 40.7007 24.5165C40.4559 24.3529 40.1681 24.2656 39.8737 24.2656C39.4789 24.2656 39.1003 24.4224 38.8212 24.7016C38.542 24.9808 38.3852 25.3594 38.3852 25.7542Z" fill="#97E7E2"/>
<path d="M76.767 37.887C76.767 38.1814 76.8543 38.4692 77.0179 38.714C77.1814 38.9588 77.4139 39.1495 77.6858 39.2622C77.9578 39.3749 78.2571 39.4044 78.5458 39.347C78.8346 39.2896 79.0998 39.1479 79.308 38.9397C79.5162 38.7316 79.658 38.4664 79.7155 38.1777C79.773 37.8889 79.7436 37.5897 79.631 37.3176C79.5184 37.0456 79.3276 36.8131 79.0829 36.6495C78.8382 36.4859 78.5504 36.3985 78.256 36.3984C77.8612 36.3984 77.4825 36.5553 77.2033 36.8344C76.9241 37.1136 76.7672 37.4922 76.767 37.887Z" fill="#97E7E2"/>
<path d="M63.9732 37.887C63.9731 38.1815 64.0604 38.4695 64.224 38.7144C64.3875 38.9593 64.6201 39.1502 64.8922 39.263C65.1643 39.3757 65.4637 39.4053 65.7525 39.3478C66.0414 39.2904 66.3068 39.1486 66.515 38.9403C66.7233 38.732 66.8651 38.4667 66.9226 38.1778C66.98 37.8889 66.9505 37.5895 66.8377 37.3174C66.725 37.0453 66.5341 36.8128 66.2891 36.6492C66.0442 36.4856 65.7562 36.3984 65.4617 36.3984C65.067 36.3985 64.6884 36.5554 64.4093 36.8346C64.1301 37.1137 63.9733 37.4922 63.9732 37.887Z" fill="#97E7E2"/>
<path d="M51.1792 37.887C51.1792 38.1814 51.2664 38.4692 51.43 38.714C51.5936 38.9588 51.8261 39.1496 52.0981 39.2623C52.3701 39.3749 52.6694 39.4044 52.9581 39.347C53.2469 39.2895 53.5121 39.1478 53.7203 38.9396C53.9285 38.7314 54.0702 38.4662 54.1276 38.1774C54.1851 37.8887 54.1556 37.5894 54.0429 37.3174C53.9303 37.0454 53.7395 36.8129 53.4947 36.6493C53.2499 36.4857 52.9621 36.3984 52.6677 36.3984C52.2729 36.3984 51.8943 36.5553 51.6151 36.8344C51.336 37.1136 51.1792 37.4922 51.1792 37.887Z" fill="#97E7E2"/>
<path d="M38.3852 37.887C38.3852 38.1814 38.4725 38.4692 38.636 38.714C38.7996 38.9588 39.0321 39.1496 39.3041 39.2623C39.5761 39.3749 39.8754 39.4044 40.1641 39.347C40.4529 39.2895 40.7181 39.1478 40.9263 38.9396C41.1345 38.7314 41.2763 38.4662 41.3337 38.1774C41.3911 37.8887 41.3617 37.5894 41.249 37.3174C41.1363 37.0454 40.9455 36.8129 40.7007 36.6493C40.4559 36.4857 40.1681 36.3984 39.8737 36.3984C39.4789 36.3984 39.1003 36.5553 38.8212 36.8344C38.542 37.1136 38.3852 37.4922 38.3852 37.887Z" fill="#97E7E2"/>
<path d="M38.3852 48.7171C38.3852 49.0115 38.4725 49.2993 38.636 49.5441C38.7996 49.7889 39.0321 49.9797 39.3041 50.0923C39.5761 50.205 39.8754 50.2345 40.1641 50.177C40.4529 50.1196 40.7181 49.9778 40.9263 49.7697C41.1345 49.5615 41.2763 49.2962 41.3337 49.0075C41.3911 48.7187 41.3617 48.4194 41.249 48.1474C41.1363 47.8754 40.9455 47.643 40.7007 47.4794C40.4559 47.3158 40.1681 47.2285 39.8737 47.2285C39.4789 47.2285 39.1003 47.3854 38.8212 47.6645C38.542 47.9437 38.3852 48.3223 38.3852 48.7171Z" fill="#97E7E2"/>
<path d="M25.5904 48.7171C25.5903 49.0116 25.6775 49.2995 25.8411 49.5444C26.0047 49.7894 26.2372 49.9803 26.5093 50.093C26.7813 50.2058 27.0807 50.2353 27.3696 50.1779C27.6584 50.1205 27.9238 49.9788 28.1321 49.7705C28.3404 49.5623 28.4822 49.297 28.5397 49.0082C28.5972 48.7193 28.5677 48.4199 28.455 48.1478C28.3423 47.8757 28.1515 47.6431 27.9066 47.4795C27.6618 47.3159 27.3739 47.2285 27.0794 47.2285C26.6845 47.2285 26.3059 47.3853 26.0266 47.6645C25.7474 47.9436 25.5905 48.3222 25.5904 48.7171Z" fill="#97E7E2"/>
<path d="M12.7984 48.7171C12.7983 49.0116 12.8856 49.2996 13.0491 49.5445C13.2127 49.7894 13.4453 49.9803 13.7174 50.0931C13.9895 50.2058 14.2889 50.2353 14.5777 50.1779C14.8666 50.1205 15.132 49.9786 15.3403 49.7704C15.5485 49.5621 15.6903 49.2968 15.7478 49.0079C15.8052 48.719 15.7757 48.4196 15.6629 48.1475C15.5502 47.8754 15.3593 47.6429 15.1143 47.4793C14.8694 47.3157 14.5815 47.2284 14.287 47.2285C13.8922 47.2286 13.5137 47.3855 13.2345 47.6646C12.9554 47.9438 12.7985 48.3223 12.7984 48.7171Z" fill="#97E7E2"/>
<path d="M0.00332584 48.7171C0.00332584 49.0115 0.0906457 49.2993 0.254211 49.5441C0.417777 49.7889 0.650274 49.9797 0.922273 50.0923C1.19427 50.205 1.49354 50.2345 1.78229 50.177C2.07104 50.1196 2.33629 49.9778 2.54447 49.7697C2.75264 49.5615 2.89443 49.2962 2.95186 49.0075C3.0093 48.7187 2.97983 48.4194 2.86717 48.1474C2.7545 47.8754 2.56373 47.643 2.31893 47.4794C2.07414 47.3158 1.78634 47.2285 1.49193 47.2285C1.09713 47.2285 0.718496 47.3854 0.439336 47.6645C0.160176 47.9437 0.00332584 48.3223 0.00332584 48.7171Z" fill="#97E7E2"/>
<path d="M38.3852 60.8499C38.3852 61.1443 38.4725 61.4321 38.636 61.6769C38.7996 61.9217 39.0321 62.1125 39.3041 62.2251C39.5761 62.3378 39.8754 62.3673 40.1641 62.3099C40.4529 62.2524 40.7181 62.1106 40.9263 61.9025C41.1345 61.6943 41.2763 61.429 41.3337 61.1403C41.3911 60.8515 41.3617 60.5522 41.249 60.2802C41.1363 60.0082 40.9455 59.7758 40.7007 59.6122C40.4559 59.4486 40.1681 59.3613 39.8737 59.3613C39.4789 59.3613 39.1003 59.5182 38.8212 59.7973C38.542 60.0765 38.3852 60.4551 38.3852 60.8499Z" fill="#97E7E2"/>
<path d="M25.5904 60.8499C25.5903 61.1444 25.6775 61.4323 25.8411 61.6772C26.0047 61.9222 26.2372 62.1131 26.5093 62.2258C26.7813 62.3386 27.0807 62.3682 27.3696 62.3107C27.6584 62.2533 27.9238 62.1116 28.1321 61.9033C28.3404 61.6951 28.4822 61.4298 28.5397 61.141C28.5972 60.8521 28.5677 60.5527 28.455 60.2806C28.3423 60.0085 28.1515 59.7759 27.9066 59.6123C27.6618 59.4487 27.3739 59.3613 27.0794 59.3613C26.8839 59.3613 26.6902 59.3997 26.5096 59.4745C26.3289 59.5493 26.1648 59.6589 26.0265 59.7972C25.8883 59.9354 25.7786 60.0995 25.7037 60.2801C25.6289 60.4608 25.5904 60.6544 25.5904 60.8499Z" fill="#97E7E2"/>
<path d="M12.7984 60.8499C12.7983 61.1444 12.8856 61.4324 13.0491 61.6773C13.2127 61.9222 13.4453 62.1131 13.7174 62.2259C13.9895 62.3386 14.2889 62.3681 14.5777 62.3107C14.8666 62.2533 15.132 62.1115 15.3403 61.9032C15.5485 61.6949 15.6903 61.4296 15.7478 61.1407C15.8052 60.8518 15.7757 60.5524 15.6629 60.2803C15.5502 60.0082 15.3593 59.7757 15.1143 59.6121C14.8694 59.4485 14.5815 59.3612 14.287 59.3613C13.8922 59.3613 13.5135 59.5182 13.2344 59.7973C12.9552 60.0765 12.7984 60.4551 12.7984 60.8499Z" fill="#97E7E2"/>
<path d="M0.00332584 60.8499C0.00332584 61.1443 0.0906457 61.4321 0.254211 61.6769C0.417777 61.9217 0.650274 62.1125 0.922273 62.2251C1.19427 62.3378 1.49354 62.3673 1.78229 62.3099C2.07104 62.2524 2.33629 62.1106 2.54447 61.9025C2.75264 61.6943 2.89443 61.429 2.95186 61.1403C3.0093 60.8515 2.97983 60.5522 2.86717 60.2802C2.7545 60.0082 2.56373 59.7758 2.31893 59.6122C2.07414 59.4486 1.78634 59.3613 1.49193 59.3613C1.09713 59.3613 0.718496 59.5182 0.439336 59.7973C0.160176 60.0765 0.00332584 60.4551 0.00332584 60.8499Z" fill="#97E7E2"/>
<path d="M38.3852 72.9827C38.3852 73.2771 38.4725 73.5649 38.636 73.8097C38.7996 74.0545 39.0321 74.2453 39.3041 74.358C39.5761 74.4706 39.8754 74.5001 40.1641 74.4427C40.4529 74.3852 40.7181 74.2435 40.9263 74.0353C41.1345 73.8271 41.2763 73.5619 41.3337 73.2731C41.3911 72.9844 41.3617 72.6851 41.249 72.4131C41.1363 72.1411 40.9455 71.9086 40.7007 71.745C40.4559 71.5814 40.1681 71.4941 39.8737 71.4941C39.4789 71.4941 39.1003 71.651 38.8212 71.9301C38.542 72.2093 38.3852 72.5879 38.3852 72.9827Z" fill="#97E7E2"/>
<path d="M25.5904 72.9827C25.5903 73.2772 25.6775 73.5651 25.8411 73.8101C26.0047 74.055 26.2372 74.2459 26.5093 74.3587C26.7813 74.4714 27.0807 74.501 27.3696 74.4436C27.6584 74.3862 27.9238 74.2444 28.1321 74.0362C28.3404 73.8279 28.4822 73.5626 28.5397 73.2738C28.5972 72.9849 28.5677 72.6855 28.455 72.4134C28.3423 72.1413 28.1515 71.9087 27.9066 71.7451C27.6618 71.5815 27.3739 71.4941 27.0794 71.4941C26.6845 71.4941 26.3059 71.651 26.0266 71.9301C25.7474 72.2093 25.5905 72.5879 25.5904 72.9827Z" fill="#97E7E2"/>
<path d="M12.7984 72.9827C12.7983 73.2772 12.8856 73.5652 13.0491 73.8101C13.2127 74.055 13.4453 74.246 13.7174 74.3587C13.9895 74.4715 14.2889 74.501 14.5777 74.4435C14.8666 74.3861 15.132 74.2443 15.3403 74.036C15.5485 73.8277 15.6903 73.5624 15.7478 73.2735C15.8052 72.9846 15.7757 72.6852 15.6629 72.4131C15.5502 72.141 15.3593 71.9085 15.1143 71.7449C14.8694 71.5813 14.5815 71.4941 14.287 71.4941C13.8922 71.4943 13.5137 71.6511 13.2345 71.9303C12.9554 72.2094 12.7985 72.588 12.7984 72.9827Z" fill="#97E7E2"/>
<path d="M0.00332584 72.9827C0.00332584 73.2771 0.0906457 73.5649 0.254211 73.8097C0.417777 74.0545 0.650274 74.2453 0.922273 74.358C1.19427 74.4706 1.49354 74.5001 1.78229 74.4427C2.07104 74.3852 2.33629 74.2435 2.54447 74.0353C2.75264 73.8271 2.89443 73.5619 2.95186 73.2731C3.0093 72.9844 2.97983 72.6851 2.86717 72.4131C2.7545 72.1411 2.56373 71.9086 2.31893 71.745C2.07414 71.5814 1.78634 71.4941 1.49193 71.4941C1.09713 71.4941 0.718496 71.651 0.439336 71.9301C0.160176 72.2093 0.00332584 72.5879 0.00332584 72.9827Z" fill="#97E7E2"/>
<path d="M38.3852 85.1175C38.3852 85.4119 38.4725 85.6997 38.636 85.9445C38.7996 86.1893 39.0321 86.3801 39.3041 86.4927C39.5761 86.6054 39.8754 86.6349 40.1641 86.5774C40.4529 86.52 40.7181 86.3782 40.9263 86.17C41.1345 85.9619 41.2763 85.6966 41.3337 85.4079C41.3911 85.1191 41.3617 84.8198 41.249 84.5478C41.1363 84.2758 40.9455 84.0433 40.7007 83.8798C40.4559 83.7162 40.1681 83.6289 39.8737 83.6289C39.4789 83.6289 39.1003 83.7857 38.8212 84.0649C38.542 84.3441 38.3852 84.7227 38.3852 85.1175Z" fill="#97E7E2"/>
<path d="M25.5904 85.1175C25.5903 85.412 25.6775 85.6999 25.8411 85.9448C26.0047 86.1897 26.2372 86.3807 26.5093 86.4934C26.7813 86.6062 27.0807 86.6357 27.3696 86.5783C27.6584 86.5209 27.9238 86.3791 28.1321 86.1709C28.3404 85.9627 28.4822 85.6974 28.5397 85.4085C28.5972 85.1197 28.5677 84.8203 28.455 84.5482C28.3423 84.2761 28.1515 84.0435 27.9066 83.8799C27.6618 83.7162 27.3739 83.6289 27.0794 83.6289C26.8839 83.6289 26.6902 83.6673 26.5096 83.7421C26.3289 83.8169 26.1648 83.9265 26.0265 84.0647C25.8883 84.203 25.7786 84.3671 25.7037 84.5477C25.6289 84.7284 25.5904 84.922 25.5904 85.1175Z" fill="#97E7E2"/>
<path d="M12.7984 85.1175C12.7983 85.412 12.8856 85.6999 13.0491 85.9449C13.2127 86.1898 13.4453 86.3807 13.7174 86.4935C13.9895 86.6062 14.2889 86.6357 14.5777 86.5783C14.8666 86.5209 15.132 86.379 15.3403 86.1708C15.5485 85.9625 15.6903 85.6972 15.7478 85.4083C15.8052 85.1194 15.7757 84.82 15.6629 84.5479C15.5502 84.2758 15.3593 84.0433 15.1143 83.8797C14.8694 83.7161 14.5815 83.6288 14.287 83.6289C13.8922 83.6289 13.5135 83.7857 13.2344 84.0649C12.9552 84.3441 12.7984 84.7227 12.7984 85.1175Z" fill="#97E7E2"/>
<path d="M0.00332584 85.1175C0.00332584 85.4119 0.0906457 85.6997 0.254211 85.9445C0.417777 86.1893 0.650274 86.3801 0.922273 86.4927C1.19427 86.6054 1.49354 86.6349 1.78229 86.5774C2.07104 86.52 2.33629 86.3782 2.54447 86.17C2.75264 85.9619 2.89443 85.6966 2.95186 85.4079C3.0093 85.1191 2.97983 84.8198 2.86717 84.5478C2.7545 84.2758 2.56373 84.0433 2.31893 83.8798C2.07414 83.7162 1.78634 83.6289 1.49193 83.6289C1.09713 83.6289 0.718496 83.7857 0.439336 84.0649C0.160176 84.3441 0.00332584 84.7227 0.00332584 85.1175Z" fill="#97E7E2"/>
<path d="M38.3852 1.48857C38.3852 1.78298 38.4725 2.07077 38.636 2.31557C38.7996 2.56036 39.0321 2.75116 39.3041 2.86383C39.5761 2.97649 39.8754 3.00597 40.1641 2.94854C40.4529 2.8911 40.7181 2.74932 40.9263 2.54114C41.1345 2.33296 41.2763 2.06773 41.3337 1.77898C41.3911 1.49022 41.3617 1.19092 41.249 0.918921C41.1363 0.646922 40.9455 0.414438 40.7007 0.250872C40.4559 0.0873069 40.1681 0 39.8737 0C39.4789 0 39.1003 0.156837 38.8212 0.435997C38.542 0.715157 38.3852 1.09378 38.3852 1.48857Z" fill="#97E7E2"/>
<path d="M25.5904 1.48857C25.5903 1.78309 25.6775 2.071 25.8411 2.31592C26.0047 2.56084 26.2372 2.75175 26.5093 2.86451C26.7813 2.97728 27.0807 3.00682 27.3696 2.94942C27.6584 2.89201 27.9238 2.75024 28.1321 2.54202C28.3404 2.3338 28.4822 2.06848 28.5397 1.77964C28.5972 1.49079 28.5677 1.19139 28.455 0.919284C28.3423 0.647182 28.1515 0.414607 27.9066 0.250976C27.6618 0.0873451 27.3739 7.22734e-08 27.0794 6.03413e-08C26.8839 -5.56107e-05 26.6902 0.038411 26.5096 0.113193C26.3289 0.187976 26.1648 0.29761 26.0265 0.435842C25.8883 0.574073 25.7786 0.73819 25.7037 0.918818C25.6289 1.09945 25.5904 1.29306 25.5904 1.48857Z" fill="#97E7E2"/>
<path d="M12.7984 1.48857C12.7983 1.7831 12.8856 2.07104 13.0491 2.31597C13.2127 2.5609 13.4453 2.75181 13.7174 2.86456C13.9895 2.97731 14.2889 3.00683 14.5777 2.94939C14.8666 2.89195 15.132 2.75013 15.3403 2.54186C15.5485 2.3336 15.6903 2.06825 15.7478 1.77938C15.8052 1.4905 15.7757 1.19108 15.6629 0.918986C15.5502 0.646892 15.3593 0.414349 15.1143 0.250769C14.8694 0.0871891 14.5815 -8.37678e-05 14.287 6.03328e-08C13.8922 6.03328e-08 13.5135 0.156837 13.2344 0.435997C12.9552 0.715157 12.7984 1.09378 12.7984 1.48857Z" fill="#97E7E2"/>
<path d="M0.00332584 1.48857C0.00332584 1.78298 0.0906457 2.07077 0.254211 2.31557C0.417777 2.56036 0.650274 2.75116 0.922273 2.86383C1.19427 2.97649 1.49354 3.00597 1.78229 2.94854C2.07104 2.8911 2.33629 2.74932 2.54447 2.54114C2.75264 2.33296 2.89443 2.06773 2.95186 1.77898C3.0093 1.49022 2.97983 1.19092 2.86717 0.918921C2.7545 0.646922 2.56373 0.414438 2.31893 0.250872C2.07414 0.0873069 1.78634 0 1.49193 0C1.09713 0 0.718496 0.156837 0.439336 0.435997C0.160176 0.715157 0.00332584 1.09378 0.00332584 1.48857Z" fill="#97E7E2"/>
<path d="M38.3852 13.6214C38.3852 13.9158 38.4725 14.2036 38.636 14.4484C38.7996 14.6932 39.0321 14.884 39.3041 14.9966C39.5761 15.1093 39.8754 15.1388 40.1641 15.0813C40.4529 15.0239 40.7181 14.8821 40.9263 14.674C41.1345 14.4658 41.2763 14.2005 41.3337 13.9118C41.3911 13.623 41.3617 13.3237 41.249 13.0517C41.1363 12.7797 40.9455 12.5473 40.7007 12.3837C40.4559 12.2201 40.1681 12.1328 39.8737 12.1328C39.4789 12.1328 39.1003 12.2896 38.8212 12.5688C38.542 12.848 38.3852 13.2266 38.3852 13.6214Z" fill="#97E7E2"/>
<path d="M25.5904 13.6214C25.5903 13.9159 25.6775 14.2038 25.8411 14.4487C26.0047 14.6936 26.2372 14.8846 26.5093 14.9973C26.7813 15.1101 27.0807 15.1396 27.3696 15.0822C27.6584 15.0248 27.9238 14.8831 28.1321 14.6748C28.3404 14.4666 28.4822 14.2013 28.5397 13.9124C28.5972 13.6236 28.5677 13.3242 28.455 13.0521C28.3423 12.78 28.1515 12.5474 27.9066 12.3838C27.6618 12.2202 27.3739 12.1328 27.0794 12.1328C26.6845 12.1328 26.3059 12.2896 26.0266 12.5688C25.7474 12.8479 25.5905 13.2265 25.5904 13.6214Z" fill="#97E7E2"/>
<path d="M12.7984 13.6214C12.7983 13.9159 12.8856 14.2039 13.0491 14.4488C13.2127 14.6937 13.4453 14.8846 13.7174 14.9974C13.9895 15.1101 14.2889 15.1396 14.5777 15.0822C14.8666 15.0248 15.132 14.8829 15.3403 14.6747C15.5485 14.4664 15.6903 14.2011 15.7478 13.9122C15.8052 13.6233 15.7757 13.3239 15.6629 13.0518C15.5502 12.7797 15.3593 12.5472 15.1143 12.3836C14.8694 12.22 14.5815 12.1327 14.287 12.1328C13.8922 12.1329 13.5137 12.2898 13.2345 12.5689C12.9554 12.8481 12.7985 13.2266 12.7984 13.6214Z" fill="#97E7E2"/>
<path d="M0.00332584 13.6214C0.00332584 13.9158 0.0906457 14.2036 0.254211 14.4484C0.417777 14.6932 0.650274 14.884 0.922273 14.9966C1.19427 15.1093 1.49354 15.1388 1.78229 15.0813C2.07104 15.0239 2.33629 14.8821 2.54447 14.674C2.75264 14.4658 2.89443 14.2005 2.95186 13.9118C3.0093 13.623 2.97983 13.3237 2.86717 13.0517C2.7545 12.7797 2.56373 12.5473 2.31893 12.3837C2.07414 12.2201 1.78634 12.1328 1.49193 12.1328C1.09713 12.1328 0.718496 12.2896 0.439336 12.5688C0.160176 12.848 0.00332584 13.2266 0.00332584 13.6214Z" fill="#97E7E2"/>
<path d="M38.3852 25.7542C38.3852 26.0486 38.4725 26.3364 38.636 26.5812C38.7996 26.826 39.0321 27.0168 39.3041 27.1294C39.5761 27.2421 39.8754 27.2716 40.1641 27.2141C40.4529 27.1567 40.7181 27.0149 40.9263 26.8068C41.1345 26.5986 41.2763 26.3333 41.3337 26.0446C41.3911 25.7558 41.3617 25.4565 41.249 25.1845C41.1363 24.9125 40.9455 24.6801 40.7007 24.5165C40.4559 24.3529 40.1681 24.2656 39.8737 24.2656C39.4789 24.2656 39.1003 24.4224 38.8212 24.7016C38.542 24.9808 38.3852 25.3594 38.3852 25.7542Z" fill="#97E7E2"/>
<path d="M25.5913 25.7542C25.5913 26.0487 25.6785 26.3366 25.8421 26.5815C26.0056 26.8265 26.2382 27.0174 26.5102 27.1301C26.7823 27.2429 27.0817 27.2724 27.3706 27.215C27.6594 27.1576 27.9248 27.0159 28.133 26.8076C28.3413 26.5994 28.4832 26.3341 28.5407 26.0452C28.5982 25.7564 28.5687 25.457 28.456 25.1849C28.3433 24.9128 28.1525 24.6802 27.9076 24.5166C27.6627 24.353 27.3749 24.2656 27.0804 24.2656C26.8848 24.2656 26.6912 24.304 26.5105 24.3788C26.3299 24.4536 26.1658 24.5632 26.0275 24.7015C25.8892 24.8397 25.7795 25.0038 25.7047 25.1844C25.6299 25.3651 25.5913 25.5587 25.5913 25.7542Z" fill="#97E7E2"/>
<path d="M12.7984 25.7542C12.7983 26.0487 12.8856 26.3367 13.0491 26.5816C13.2127 26.8265 13.4453 27.0174 13.7174 27.1302C13.9895 27.2429 14.2889 27.2724 14.5777 27.215C14.8666 27.1576 15.132 27.0158 15.3403 26.8075C15.5485 26.5992 15.6903 26.3339 15.7478 26.045C15.8052 25.7561 15.7757 25.4567 15.6629 25.1846C15.5502 24.9125 15.3593 24.68 15.1143 24.5164C14.8694 24.3528 14.5815 24.2655 14.287 24.2656C13.8922 24.2656 13.5135 24.4224 13.2344 24.7016C12.9552 24.9808 12.7984 25.3594 12.7984 25.7542Z" fill="#97E7E2"/>
<path d="M0.00332584 25.7542C0.00332584 26.0486 0.0906457 26.3364 0.254211 26.5812C0.417777 26.826 0.650274 27.0168 0.922273 27.1294C1.19427 27.2421 1.49354 27.2716 1.78229 27.2141C2.07104 27.1567 2.33629 27.0149 2.54447 26.8068C2.75264 26.5986 2.89443 26.3333 2.95186 26.0446C3.0093 25.7558 2.97983 25.4565 2.86717 25.1845C2.7545 24.9125 2.56373 24.6801 2.31893 24.5165C2.07414 24.3529 1.78634 24.2656 1.49193 24.2656C1.09713 24.2656 0.718496 24.4224 0.439336 24.7016C0.160176 24.9808 0.00332584 25.3594 0.00332584 25.7542Z" fill="#97E7E2"/>
<path d="M38.3852 37.887C38.3852 38.1814 38.4725 38.4692 38.636 38.714C38.7996 38.9588 39.0321 39.1496 39.3041 39.2623C39.5761 39.3749 39.8754 39.4044 40.1641 39.347C40.4529 39.2895 40.7181 39.1478 40.9263 38.9396C41.1345 38.7314 41.2763 38.4662 41.3337 38.1774C41.3911 37.8887 41.3617 37.5894 41.249 37.3174C41.1363 37.0454 40.9455 36.8129 40.7007 36.6493C40.4559 36.4857 40.1681 36.3984 39.8737 36.3984C39.4789 36.3984 39.1003 36.5553 38.8212 36.8344C38.542 37.1136 38.3852 37.4922 38.3852 37.887Z" fill="#97E7E2"/>
<path d="M25.5913 37.887C25.5913 38.1815 25.6785 38.4694 25.8421 38.7144C26.0056 38.9593 26.2382 39.1502 26.5102 39.2629C26.7823 39.3757 27.0817 39.4053 27.3706 39.3479C27.6594 39.2904 27.9248 39.1487 28.133 38.9405C28.3413 38.7322 28.4832 38.4669 28.5407 38.1781C28.5982 37.8892 28.5687 37.5898 28.456 37.3177C28.3433 37.0456 28.1525 36.813 27.9076 36.6494C27.6627 36.4858 27.3749 36.3984 27.0804 36.3984C26.6855 36.3984 26.3068 36.5553 26.0276 36.8344C25.7484 37.1136 25.5915 37.4922 25.5913 37.887Z" fill="#97E7E2"/>
<path d="M12.7984 37.887C12.7983 38.1815 12.8856 38.4695 13.0491 38.7144C13.2127 38.9593 13.4453 39.1502 13.7174 39.263C13.9895 39.3757 14.2889 39.4053 14.5777 39.3478C14.8666 39.2904 15.132 39.1486 15.3403 38.9403C15.5485 38.732 15.6903 38.4667 15.7478 38.1778C15.8052 37.8889 15.7757 37.5895 15.6629 37.3174C15.5502 37.0453 15.3593 36.8128 15.1143 36.6492C14.8694 36.4856 14.5815 36.3984 14.287 36.3984C13.8922 36.3985 13.5137 36.5554 13.2345 36.8346C12.9554 37.1137 12.7985 37.4922 12.7984 37.887Z" fill="#97E7E2"/>
<path d="M0.00332584 37.887C0.00332584 38.1814 0.0906457 38.4692 0.254211 38.714C0.417777 38.9588 0.650274 39.1496 0.922273 39.2623C1.19427 39.3749 1.49354 39.4044 1.78229 39.347C2.07104 39.2895 2.33629 39.1478 2.54447 38.9396C2.75264 38.7314 2.89443 38.4662 2.95186 38.1774C3.0093 37.8887 2.97983 37.5894 2.86717 37.3174C2.7545 37.0454 2.56373 36.8129 2.31893 36.6493C2.07414 36.4857 1.78634 36.3984 1.49193 36.3984C1.09713 36.3984 0.718496 36.5553 0.439336 36.8344C0.160176 37.1136 0.00332584 37.4922 0.00332584 37.887Z" fill="#97E7E2"/>
</svg>
