<svg width="309" height="194" viewBox="0 0 309 194" fill="none" xmlns="http://www.w3.org/2000/svg">
<path d="M319.773 188.331C325.865 189.733 337.737 194.135 342.655 196.816C344.12 197.615 345.439 198.256 345.585 198.241C346.075 198.191 340.247 191.992 333.559 185.449C307.795 160.244 281.058 145.6 254.275 142.028C241.409 140.312 231.329 140.883 215.597 144.222C198.299 147.893 189.976 150.937 159.329 164.8C128.394 178.795 123.201 180.738 108.677 183.75C95.4047 186.503 89.8434 186.657 80.2079 184.541C77.3023 183.903 74.7998 183.571 74.648 183.803C74.4964 184.036 76.8646 186.676 79.9113 189.67C90.6522 200.226 106.409 208.257 121.091 210.658C142.992 214.24 163.914 211.533 214.815 198.534C268.78 184.751 293.695 182.329 319.773 188.331Z" fill="url(#paint0_linear_8095_327023)" fill-opacity="0.35"/>
<path d="M45.853 193.572C38.2755 200.212 24.7828 215.526 19.8478 223.087C18.377 225.34 16.995 227.257 16.776 227.348C16.0424 227.65 19.5837 214.398 24.084 200.002C41.4202 144.544 68.1967 103.341 103.489 77.8236C120.442 65.5656 135.187 58.6819 160.066 51.4138C187.422 43.4214 201.559 41.3902 255.642 37.6823C310.236 33.94 319.09 32.7347 342.005 25.9245C362.946 19.7023 370.958 15.676 383.02 5.31644C386.658 2.19278 389.957 -0.189248 390.35 0.0247077C390.743 0.239843 389.396 5.79575 387.356 12.3735C380.166 35.5621 363.928 58.994 344.92 73.6111C316.565 95.415 284.801 107.542 202.626 127.939C115.504 149.562 78.2903 165.142 45.853 193.572Z" fill="url(#paint1_linear_8095_327023)" fill-opacity="0.35"/>
<defs>
<linearGradient id="paint0_linear_8095_327023" x1="204.19" y1="259.246" x2="87.4344" y2="-11.3799" gradientUnits="userSpaceOnUse">
<stop stop-color="#CEE5E1"/>
<stop offset="1" stop-color="#CEE5E1" stop-opacity="0"/>
</linearGradient>
<linearGradient id="paint1_linear_8095_327023" x1="264.042" y1="206.039" x2="223.238" y2="-267.373" gradientUnits="userSpaceOnUse">
<stop stop-color="#CEE5E1"/>
<stop offset="1" stop-color="#CEE5E1" stop-opacity="0"/>
</linearGradient>
</defs>
</svg>
