<svg width="512" height="852" viewBox="0 0 512 852" fill="none" xmlns="http://www.w3.org/2000/svg">
<mask id="mask0_10263_140992" style="mask-type:alpha" maskUnits="userSpaceOnUse" x="0" y="0" width="512" height="852">
<rect width="512" height="852" rx="10" fill="#086972"/>
</mask>
<g mask="url(#mask0_10263_140992)">
<rect width="512" height="852" rx="10" fill="#086972"/>
<mask id="mask1_10263_140992" style="mask-type:alpha" maskUnits="userSpaceOnUse" x="-1" y="77" width="46" height="110">
<rect width="44.8462" height="110" transform="matrix(-1 0 0 1 44.8457 77)" fill="#D9D9D9"/>
</mask>
<g mask="url(#mask1_10263_140992)">
<path d="M-32.9992 161.613C-49.3555 145.257 -49.7347 119.117 -33.846 103.229C-17.9574 87.3402 8.18227 87.7194 24.5386 104.076C40.8949 120.432 41.274 146.572 25.3854 162.46C9.49678 178.349 -16.6429 177.97 -32.9992 161.613Z" fill="#1D747C"/>
</g>
<mask id="mask2_10263_140992" style="mask-type:alpha" maskUnits="userSpaceOnUse" x="421" y="5" width="91" height="176">
<rect width="90.4445" height="176" transform="matrix(-1 0 0 1 511.444 5)" fill="#D9D9D9"/>
</mask>
<g mask="url(#mask2_10263_140992)">
<path d="M475.382 50.9503C475.382 51.1289 475.427 51.3036 475.513 51.4522C475.598 51.6007 475.72 51.7165 475.862 51.7849C476.004 51.8533 476.161 51.8712 476.312 51.8363C476.462 51.8015 476.601 51.7155 476.71 51.5892C476.819 51.4629 476.893 51.3019 476.923 51.1267C476.953 50.9515 476.938 50.7698 476.879 50.6047C476.82 50.4397 476.72 50.2986 476.592 50.1993C476.464 50.1 476.314 50.0469 476.16 50.0469C475.954 50.0469 475.756 50.1421 475.61 50.3115C475.464 50.4809 475.382 50.7107 475.382 50.9503Z" fill="#97E7E2"/>
<path d="M468.693 50.9503C468.693 51.129 468.738 51.3038 468.824 51.4524C468.909 51.6011 469.031 51.7169 469.173 51.7854C469.315 51.8538 469.472 51.8717 469.623 51.8369C469.774 51.802 469.913 51.7159 470.021 51.5895C470.13 51.4631 470.205 51.3021 470.235 51.1268C470.265 50.9515 470.249 50.7697 470.19 50.6046C470.131 50.4395 470.031 50.2983 469.903 50.1991C469.775 50.0998 469.625 50.0468 469.471 50.0469C469.264 50.0469 469.067 50.1421 468.921 50.3116C468.775 50.481 468.693 50.7107 468.693 50.9503Z" fill="#97E7E2"/>
<path d="M462.004 50.9503C462.004 51.129 462.049 51.3036 462.135 51.4522C462.22 51.6007 462.342 51.7165 462.484 51.7849C462.626 51.8533 462.783 51.8712 462.934 51.8363C463.085 51.8015 463.223 51.7154 463.332 51.5891C463.441 51.4627 463.515 51.3018 463.545 51.1265C463.575 50.9513 463.56 50.7696 463.501 50.6046C463.442 50.4395 463.342 50.2984 463.214 50.1991C463.086 50.0999 462.936 50.0469 462.782 50.0469C462.575 50.0469 462.377 50.1421 462.232 50.3115C462.086 50.4809 462.004 50.7107 462.004 50.9503Z" fill="#97E7E2"/>
<path d="M455.315 50.9503C455.315 51.129 455.361 51.3036 455.446 51.4522C455.532 51.6007 455.653 51.7165 455.796 51.7849C455.938 51.8533 456.094 51.8712 456.245 51.8363C456.396 51.8015 456.535 51.7154 456.644 51.5891C456.752 51.4627 456.827 51.3018 456.857 51.1265C456.887 50.9513 456.871 50.7696 456.812 50.6046C456.753 50.4395 456.654 50.2984 456.526 50.1991C456.398 50.0999 456.247 50.0469 456.093 50.0469C455.887 50.0469 455.689 50.1421 455.543 50.3115C455.397 50.4809 455.315 50.7107 455.315 50.9503Z" fill="#97E7E2"/>
<path d="M475.382 58.3136C475.382 58.4922 475.427 58.6669 475.513 58.8154C475.598 58.964 475.72 59.0798 475.862 59.1482C476.004 59.2166 476.161 59.2345 476.312 59.1996C476.462 59.1648 476.601 59.0788 476.71 58.9525C476.819 58.8261 476.893 58.6652 476.923 58.49C476.953 58.3147 476.938 58.1331 476.879 57.968C476.82 57.8029 476.72 57.6618 476.592 57.5625C476.464 57.4632 476.314 57.4102 476.16 57.4102C476.058 57.4101 475.957 57.4335 475.862 57.4788C475.768 57.5242 475.682 57.5908 475.61 57.6747C475.537 57.7586 475.48 57.8582 475.441 57.9678C475.402 58.0774 475.382 58.1949 475.382 58.3136Z" fill="#97E7E2"/>
<path d="M468.693 58.3136C468.693 58.4923 468.738 58.6671 468.824 58.8157C468.909 58.9643 469.031 59.0802 469.173 59.1486C469.315 59.2171 469.472 59.235 469.623 59.2001C469.774 59.1653 469.913 59.0792 470.021 58.9528C470.13 58.8264 470.205 58.6654 470.235 58.49C470.265 58.3147 470.249 58.133 470.19 57.9679C470.131 57.8027 470.031 57.6616 469.903 57.5623C469.775 57.4631 469.625 57.4101 469.471 57.4102C469.264 57.4102 469.067 57.5053 468.921 57.6748C468.775 57.8442 468.693 58.074 468.693 58.3136Z" fill="#97E7E2"/>
<path d="M462.004 58.3136C462.004 58.4922 462.049 58.6669 462.135 58.8155C462.22 58.964 462.342 59.0798 462.484 59.1482C462.626 59.2166 462.783 59.2345 462.934 59.1996C463.085 59.1647 463.223 59.0787 463.332 58.9524C463.441 58.826 463.515 58.665 463.545 58.4898C463.575 58.3146 463.56 58.1329 463.501 57.9678C463.442 57.8028 463.342 57.6617 463.214 57.5624C463.086 57.4631 462.936 57.4102 462.782 57.4102C462.68 57.4101 462.578 57.4335 462.484 57.4789C462.39 57.5242 462.304 57.5908 462.231 57.6747C462.159 57.7586 462.102 57.8582 462.063 57.9678C462.024 58.0774 462.004 58.1949 462.004 58.3136Z" fill="#97E7E2"/>
<path d="M455.315 58.3136C455.315 58.4922 455.361 58.6669 455.446 58.8155C455.532 58.964 455.653 59.0798 455.796 59.1482C455.938 59.2166 456.094 59.2345 456.245 59.1996C456.396 59.1647 456.535 59.0787 456.644 58.9524C456.752 58.826 456.827 58.665 456.857 58.4898C456.887 58.3146 456.871 58.1329 456.812 57.9678C456.753 57.8028 456.654 57.6617 456.526 57.5624C456.398 57.4631 456.247 57.4102 456.093 57.4102C455.887 57.4102 455.689 57.5053 455.543 57.6748C455.397 57.8442 455.315 58.074 455.315 58.3136Z" fill="#97E7E2"/>
<path d="M475.382 65.6768C475.382 65.8555 475.427 66.0302 475.513 66.1787C475.598 66.3273 475.72 66.4431 475.862 66.5115C476.004 66.5798 476.161 66.5977 476.312 66.5629C476.462 66.5281 476.601 66.4421 476.71 66.3157C476.819 66.1894 476.893 66.0285 476.923 65.8532C476.953 65.678 476.938 65.4964 476.879 65.3313C476.82 65.1662 476.72 65.0251 476.592 64.9258C476.464 64.8265 476.314 64.7735 476.16 64.7734C475.954 64.7734 475.756 64.8686 475.61 65.038C475.464 65.2074 475.382 65.4372 475.382 65.6768Z" fill="#97E7E2"/>
<path d="M468.693 65.6768C468.693 65.8556 468.738 66.0303 468.824 66.179C468.909 66.3276 469.031 66.4435 469.173 66.5119C469.315 66.5804 469.472 66.5983 469.623 66.5634C469.774 66.5286 469.913 66.4425 470.021 66.3161C470.13 66.1897 470.205 66.0287 470.235 65.8533C470.265 65.678 470.249 65.4963 470.19 65.3312C470.131 65.166 470.031 65.0249 469.903 64.9256C469.775 64.8264 469.625 64.7734 469.471 64.7734C469.264 64.7735 469.067 64.8687 468.921 65.0381C468.775 65.2075 468.693 65.4373 468.693 65.6768Z" fill="#97E7E2"/>
<path d="M462.004 65.6768C462.004 65.8555 462.049 66.0302 462.135 66.1787C462.22 66.3273 462.342 66.4431 462.484 66.5115C462.626 66.5799 462.783 66.5978 462.934 66.5629C463.085 66.528 463.223 66.442 463.332 66.3156C463.441 66.1893 463.515 66.0283 463.545 65.8531C463.575 65.6778 463.56 65.4962 463.501 65.3311C463.442 65.1661 463.342 65.025 463.214 64.9257C463.086 64.8264 462.936 64.7734 462.782 64.7734C462.575 64.7734 462.377 64.8686 462.232 65.038C462.086 65.2075 462.004 65.4373 462.004 65.6768Z" fill="#97E7E2"/>
<path d="M455.315 65.6768C455.315 65.8555 455.361 66.0302 455.446 66.1787C455.532 66.3273 455.653 66.4431 455.796 66.5115C455.938 66.5799 456.094 66.5978 456.245 66.5629C456.396 66.528 456.535 66.442 456.644 66.3156C456.752 66.1893 456.827 66.0283 456.857 65.8531C456.887 65.6778 456.871 65.4962 456.812 65.3311C456.753 65.1661 456.654 65.025 456.526 64.9257C456.398 64.8264 456.247 64.7734 456.093 64.7734C455.887 64.7734 455.689 64.8686 455.543 65.038C455.397 65.2075 455.315 65.4373 455.315 65.6768Z" fill="#97E7E2"/>
<path d="M475.382 73.0421C475.382 73.2207 475.427 73.3954 475.513 73.544C475.598 73.6925 475.72 73.8083 475.862 73.8767C476.004 73.9451 476.161 73.963 476.312 73.9281C476.462 73.8933 476.601 73.8073 476.71 73.681C476.819 73.5546 476.893 73.3937 476.923 73.2185C476.953 73.0432 476.938 72.8616 476.879 72.6965C476.82 72.5315 476.72 72.3903 476.592 72.2911C476.464 72.1918 476.314 72.1387 476.16 72.1387C476.058 72.1386 475.957 72.162 475.862 72.2074C475.768 72.2528 475.682 72.3193 475.61 72.4032C475.537 72.4871 475.48 72.5867 475.441 72.6963C475.402 72.8059 475.382 72.9234 475.382 73.0421Z" fill="#97E7E2"/>
<path d="M468.693 73.0421C468.693 73.2208 468.738 73.3956 468.824 73.5442C468.909 73.6929 469.031 73.8087 469.173 73.8772C469.315 73.9456 469.472 73.9635 469.623 73.9286C469.774 73.8938 469.913 73.8077 470.021 73.6813C470.13 73.5549 470.205 73.3939 470.235 73.2186C470.265 73.0433 470.249 72.8615 470.19 72.6964C470.131 72.5313 470.031 72.3901 469.903 72.2909C469.775 72.1916 469.625 72.1386 469.471 72.1387C469.264 72.1387 469.067 72.2338 468.921 72.4033C468.775 72.5727 468.693 72.8025 468.693 73.0421Z" fill="#97E7E2"/>
<path d="M462.004 73.0421C462.004 73.2208 462.049 73.3954 462.135 73.544C462.22 73.6925 462.342 73.8083 462.484 73.8767C462.626 73.9451 462.783 73.963 462.934 73.9281C463.085 73.8933 463.223 73.8072 463.332 73.6809C463.441 73.5545 463.515 73.3936 463.545 73.2183C463.575 73.0431 463.56 72.8614 463.501 72.6964C463.442 72.5313 463.342 72.3902 463.214 72.2909C463.086 72.1917 462.936 72.1387 462.782 72.1387C462.68 72.1386 462.578 72.162 462.484 72.2074C462.39 72.2528 462.304 72.3193 462.231 72.4032C462.159 72.4871 462.102 72.5867 462.063 72.6963C462.024 72.8059 462.004 72.9234 462.004 73.0421Z" fill="#97E7E2"/>
<path d="M455.315 73.0421C455.315 73.2208 455.361 73.3954 455.446 73.544C455.532 73.6925 455.653 73.8083 455.796 73.8767C455.938 73.9451 456.094 73.963 456.245 73.9281C456.396 73.8933 456.535 73.8072 456.644 73.6809C456.752 73.5545 456.827 73.3936 456.857 73.2183C456.887 73.0431 456.871 72.8614 456.812 72.6964C456.753 72.5313 456.654 72.3902 456.526 72.2909C456.398 72.1917 456.247 72.1387 456.093 72.1387C455.887 72.1387 455.689 72.2338 455.543 72.4033C455.397 72.5727 455.315 72.8025 455.315 73.0421Z" fill="#97E7E2"/>
<path d="M475.382 22.2882C475.382 22.4668 475.427 22.6415 475.513 22.7901C475.598 22.9386 475.72 23.0544 475.862 23.1228C476.004 23.1912 476.161 23.2091 476.312 23.1742C476.462 23.1394 476.601 23.0534 476.71 22.9271C476.819 22.8008 476.893 22.6398 476.923 22.4646C476.953 22.2894 476.938 22.1077 476.879 21.9426C476.82 21.7776 476.72 21.6364 476.592 21.5371C476.464 21.4378 476.314 21.3848 476.16 21.3848C476.058 21.3847 475.957 21.4081 475.862 21.4535C475.768 21.4988 475.682 21.5654 475.61 21.6493C475.537 21.7332 475.48 21.8328 475.441 21.9424C475.402 22.052 475.382 22.1695 475.382 22.2882Z" fill="#97E7E2"/>
<path d="M468.693 22.2882C468.693 22.4669 468.738 22.6417 468.824 22.7903C468.909 22.939 469.031 23.0548 469.173 23.1233C469.315 23.1917 469.472 23.2096 469.623 23.1747C469.774 23.1399 469.913 23.0538 470.021 22.9274C470.13 22.801 470.205 22.64 470.235 22.4647C470.265 22.2893 470.249 22.1076 470.19 21.9425C470.131 21.7774 470.031 21.6362 469.903 21.537C469.775 21.4377 469.625 21.3847 469.471 21.3848C469.264 21.3848 469.067 21.4799 468.921 21.6494C468.775 21.8188 468.693 22.0486 468.693 22.2882Z" fill="#97E7E2"/>
<path d="M462.004 22.2882C462.004 22.4669 462.049 22.6415 462.135 22.7901C462.22 22.9386 462.342 23.0544 462.484 23.1228C462.626 23.1912 462.783 23.2091 462.934 23.1742C463.085 23.1394 463.223 23.0533 463.332 22.927C463.441 22.8006 463.515 22.6397 463.545 22.4644C463.575 22.2892 463.56 22.1075 463.501 21.9425C463.442 21.7774 463.342 21.6363 463.214 21.537C463.086 21.4378 462.936 21.3848 462.782 21.3848C462.68 21.3847 462.578 21.4081 462.484 21.4535C462.39 21.4989 462.304 21.5654 462.231 21.6493C462.159 21.7332 462.102 21.8328 462.063 21.9424C462.024 22.052 462.004 22.1695 462.004 22.2882Z" fill="#97E7E2"/>
<path d="M455.315 22.2882C455.315 22.4669 455.361 22.6415 455.446 22.7901C455.532 22.9386 455.653 23.0544 455.796 23.1228C455.938 23.1912 456.094 23.2091 456.245 23.1742C456.396 23.1394 456.535 23.0533 456.644 22.927C456.752 22.8006 456.827 22.6397 456.857 22.4644C456.887 22.2892 456.871 22.1075 456.812 21.9425C456.753 21.7774 456.654 21.6363 456.526 21.537C456.398 21.4378 456.247 21.3848 456.093 21.3848C455.887 21.3848 455.689 21.4799 455.543 21.6494C455.397 21.8188 455.315 22.0486 455.315 22.2882Z" fill="#97E7E2"/>
<path d="M475.382 29.6514C475.382 29.8301 475.427 30.0048 475.513 30.1533C475.598 30.3019 475.72 30.4177 475.862 30.4861C476.004 30.5544 476.161 30.5724 476.312 30.5375C476.462 30.5027 476.601 30.4167 476.71 30.2903C476.819 30.164 476.893 30.0031 476.923 29.8279C476.953 29.6526 476.938 29.471 476.879 29.3059C476.82 29.1408 476.72 28.9997 476.592 28.9004C476.464 28.8011 476.314 28.7481 476.16 28.748C475.954 28.748 475.756 28.8432 475.61 29.0126C475.464 29.182 475.382 29.4118 475.382 29.6514Z" fill="#97E7E2"/>
<path d="M468.693 29.6514C468.693 29.8302 468.738 30.005 468.824 30.1536C468.909 30.3022 469.031 30.4181 469.173 30.4865C469.315 30.555 469.472 30.5729 469.623 30.538C469.774 30.5032 469.913 30.4171 470.021 30.2907C470.13 30.1643 470.205 30.0033 470.235 29.8279C470.265 29.6526 470.249 29.4709 470.19 29.3058C470.131 29.1406 470.031 28.9995 469.903 28.9002C469.775 28.801 469.625 28.748 469.471 28.748C469.264 28.7481 469.067 28.8433 468.921 29.0127C468.775 29.1821 468.693 29.4119 468.693 29.6514Z" fill="#97E7E2"/>
<path d="M462.004 29.6514C462.004 29.8301 462.049 30.0048 462.135 30.1534C462.22 30.3019 462.342 30.4177 462.484 30.4861C462.626 30.5545 462.783 30.5724 462.934 30.5375C463.085 30.5026 463.223 30.4166 463.332 30.2903C463.441 30.1639 463.515 30.0029 463.545 29.8277C463.575 29.6525 463.56 29.4708 463.501 29.3057C463.442 29.1407 463.342 28.9996 463.214 28.9003C463.086 28.801 462.936 28.748 462.782 28.748C462.575 28.748 462.377 28.8432 462.232 29.0127C462.086 29.1821 462.004 29.4119 462.004 29.6514Z" fill="#97E7E2"/>
<path d="M455.315 29.6514C455.315 29.8301 455.361 30.0048 455.446 30.1534C455.532 30.3019 455.653 30.4177 455.796 30.4861C455.938 30.5545 456.094 30.5724 456.245 30.5375C456.396 30.5026 456.535 30.4166 456.644 30.2903C456.752 30.1639 456.827 30.0029 456.857 29.8277C456.887 29.6525 456.871 29.4708 456.812 29.3057C456.753 29.1407 456.654 28.9996 456.526 28.9003C456.398 28.801 456.247 28.748 456.093 28.748C455.887 28.748 455.689 28.8432 455.543 29.0127C455.397 29.1821 455.315 29.4119 455.315 29.6514Z" fill="#97E7E2"/>
<path d="M475.382 37.0147C475.382 37.1934 475.427 37.368 475.513 37.5166C475.598 37.6652 475.72 37.781 475.862 37.8493C476.004 37.9177 476.161 37.9356 476.312 37.9008C476.462 37.866 476.601 37.7799 476.71 37.6536C476.819 37.5273 476.893 37.3664 476.923 37.1911C476.953 37.0159 476.938 36.8343 476.879 36.6692C476.82 36.5041 476.72 36.363 476.592 36.2637C476.464 36.1644 476.314 36.1114 476.16 36.1113C476.058 36.1113 475.957 36.1346 475.862 36.18C475.768 36.2254 475.682 36.2919 475.61 36.3758C475.537 36.4597 475.48 36.5593 475.441 36.669C475.402 36.7786 475.382 36.8961 475.382 37.0147Z" fill="#97E7E2"/>
<path d="M468.693 37.0147C468.693 37.1935 468.738 37.3682 468.824 37.5169C468.909 37.6655 469.031 37.7814 469.173 37.8498C469.315 37.9182 469.472 37.9362 469.623 37.9013C469.774 37.8664 469.913 37.7804 470.021 37.654C470.13 37.5276 470.205 37.3665 470.235 37.1912C470.265 37.0159 470.249 36.8342 470.19 36.669C470.131 36.5039 470.031 36.3628 469.903 36.2635C469.775 36.1642 469.625 36.1113 469.471 36.1113C469.264 36.1113 469.067 36.2065 468.921 36.3759C468.775 36.5453 468.693 36.7751 468.693 37.0147Z" fill="#97E7E2"/>
<path d="M462.004 37.0147C462.004 37.1934 462.049 37.3681 462.135 37.5166C462.22 37.6652 462.342 37.781 462.484 37.8494C462.626 37.9177 462.783 37.9356 462.934 37.9008C463.085 37.8659 463.223 37.7799 463.332 37.6535C463.441 37.5272 463.515 37.3662 463.545 37.191C463.575 37.0157 463.56 36.8341 463.501 36.669C463.442 36.5039 463.342 36.3628 463.214 36.2636C463.086 36.1643 462.936 36.1113 462.782 36.1113C462.68 36.1113 462.578 36.1346 462.484 36.18C462.39 36.2254 462.304 36.292 462.231 36.3759C462.159 36.4598 462.102 36.5594 462.063 36.669C462.024 36.7786 462.004 36.8961 462.004 37.0147Z" fill="#97E7E2"/>
<path d="M455.315 37.0147C455.315 37.1934 455.361 37.3681 455.446 37.5166C455.532 37.6652 455.653 37.781 455.796 37.8494C455.938 37.9177 456.094 37.9356 456.245 37.9008C456.396 37.8659 456.535 37.7799 456.644 37.6535C456.752 37.5272 456.827 37.3662 456.857 37.191C456.887 37.0157 456.871 36.8341 456.812 36.669C456.753 36.5039 456.654 36.3628 456.526 36.2636C456.398 36.1643 456.247 36.1113 456.093 36.1113C455.887 36.1113 455.689 36.2065 455.543 36.3759C455.397 36.5453 455.315 36.7751 455.315 37.0147Z" fill="#97E7E2"/>
<path d="M475.382 44.378C475.382 44.5567 475.427 44.7313 475.513 44.8799C475.598 45.0285 475.72 45.1442 475.862 45.2126C476.004 45.281 476.161 45.2989 476.312 45.2641C476.462 45.2292 476.601 45.1432 476.71 45.0169C476.819 44.8906 476.893 44.7296 476.923 44.5544C476.953 44.3792 476.938 44.1976 476.879 44.0325C476.82 43.8674 476.72 43.7263 476.592 43.627C476.464 43.5277 476.314 43.4747 476.16 43.4746C475.954 43.4746 475.756 43.5698 475.61 43.7392C475.464 43.9086 475.382 44.1384 475.382 44.378Z" fill="#97E7E2"/>
<path d="M468.693 44.378C468.693 44.5568 468.738 44.7315 468.824 44.8802C468.909 45.0288 469.031 45.1447 469.173 45.2131C469.315 45.2815 469.472 45.2994 469.623 45.2646C469.774 45.2297 469.913 45.1437 470.021 45.0173C470.13 44.8909 470.205 44.7298 470.235 44.5545C470.265 44.3792 470.249 44.1975 470.19 44.0323C470.131 43.8672 470.031 43.7261 469.903 43.6268C469.775 43.5275 469.625 43.4746 469.471 43.4746C469.264 43.4747 469.067 43.5699 468.921 43.7393C468.775 43.9087 468.693 44.1384 468.693 44.378Z" fill="#97E7E2"/>
<path d="M462.004 44.378C462.004 44.5567 462.049 44.7314 462.135 44.8799C462.22 45.0285 462.342 45.1443 462.484 45.2127C462.626 45.281 462.783 45.2989 462.934 45.2641C463.085 45.2292 463.223 45.1432 463.332 45.0168C463.441 44.8905 463.515 44.7295 463.545 44.5543C463.575 44.379 463.56 44.1974 463.501 44.0323C463.442 43.8672 463.342 43.7261 463.214 43.6269C463.086 43.5276 462.936 43.4746 462.782 43.4746C462.575 43.4746 462.377 43.5698 462.232 43.7392C462.086 43.9086 462.004 44.1384 462.004 44.378Z" fill="#97E7E2"/>
<path d="M455.315 44.378C455.315 44.5567 455.361 44.7314 455.446 44.8799C455.532 45.0285 455.653 45.1443 455.796 45.2127C455.938 45.281 456.094 45.2989 456.245 45.2641C456.396 45.2292 456.535 45.1432 456.644 45.0168C456.752 44.8905 456.827 44.7295 456.857 44.5543C456.887 44.379 456.871 44.1974 456.812 44.0323C456.753 43.8672 456.654 43.7261 456.526 43.6269C456.398 43.5276 456.247 43.4746 456.093 43.4746C455.887 43.4746 455.689 43.5698 455.543 43.7392C455.397 43.9086 455.315 44.1384 455.315 44.378Z" fill="#97E7E2"/>
<path d="M455.315 50.9503C455.315 51.129 455.361 51.3036 455.446 51.4522C455.532 51.6007 455.653 51.7165 455.796 51.7849C455.938 51.8533 456.094 51.8712 456.245 51.8363C456.396 51.8015 456.535 51.7154 456.644 51.5891C456.752 51.4627 456.827 51.3018 456.857 51.1265C456.887 50.9513 456.871 50.7696 456.812 50.6046C456.753 50.4395 456.654 50.2984 456.526 50.1991C456.398 50.0999 456.247 50.0469 456.093 50.0469C455.887 50.0469 455.689 50.1421 455.543 50.3115C455.397 50.4809 455.315 50.7107 455.315 50.9503Z" fill="#97E7E2"/>
<path d="M448.626 50.9503C448.626 51.129 448.672 51.3038 448.757 51.4524C448.843 51.601 448.964 51.7169 449.107 51.7853C449.249 51.8538 449.405 51.8717 449.556 51.8369C449.707 51.802 449.846 51.716 449.955 51.5896C450.064 51.4632 450.138 51.3022 450.168 51.1269C450.198 50.9516 450.183 50.7699 450.124 50.6048C450.065 50.4396 449.965 50.2985 449.837 50.1992C449.709 50.0999 449.559 50.0469 449.405 50.0469C449.198 50.0469 449 50.1421 448.854 50.3115C448.708 50.4809 448.626 50.7107 448.626 50.9503Z" fill="#97E7E2"/>
<path d="M441.939 50.9503C441.939 51.129 441.984 51.3038 442.07 51.4524C442.155 51.6011 442.277 51.7169 442.419 51.7854C442.561 51.8538 442.718 51.8717 442.869 51.8369C443.02 51.802 443.159 51.7159 443.268 51.5895C443.376 51.4631 443.451 51.3021 443.481 51.1268C443.511 50.9515 443.495 50.7697 443.436 50.6046C443.377 50.4395 443.278 50.2983 443.149 50.1991C443.021 50.0998 442.871 50.0468 442.717 50.0469C442.511 50.0469 442.313 50.1421 442.167 50.3116C442.021 50.481 441.939 50.7107 441.939 50.9503Z" fill="#97E7E2"/>
<path d="M435.249 50.9503C435.249 51.129 435.294 51.3036 435.38 51.4522C435.465 51.6007 435.587 51.7165 435.729 51.7849C435.871 51.8533 436.028 51.8712 436.179 51.8363C436.33 51.8015 436.468 51.7154 436.577 51.5891C436.686 51.4627 436.76 51.3018 436.79 51.1265C436.82 50.9513 436.805 50.7696 436.746 50.6046C436.687 50.4395 436.587 50.2984 436.459 50.1991C436.331 50.0999 436.181 50.0469 436.027 50.0469C435.821 50.0469 435.623 50.1421 435.477 50.3115C435.331 50.4809 435.249 50.7107 435.249 50.9503Z" fill="#97E7E2"/>
<path d="M455.315 58.3136C455.315 58.4922 455.361 58.6669 455.446 58.8155C455.532 58.964 455.653 59.0798 455.796 59.1482C455.938 59.2166 456.094 59.2345 456.245 59.1996C456.396 59.1647 456.535 59.0787 456.644 58.9524C456.752 58.826 456.827 58.665 456.857 58.4898C456.887 58.3146 456.871 58.1329 456.812 57.9678C456.753 57.8028 456.654 57.6617 456.526 57.5624C456.398 57.4631 456.247 57.4102 456.093 57.4102C455.887 57.4102 455.689 57.5053 455.543 57.6748C455.397 57.8442 455.315 58.074 455.315 58.3136Z" fill="#97E7E2"/>
<path d="M448.626 58.3136C448.626 58.4923 448.672 58.667 448.757 58.8157C448.843 58.9643 448.964 59.0802 449.107 59.1486C449.249 59.2171 449.405 59.235 449.556 59.2001C449.707 59.1653 449.846 59.0793 449.955 58.9529C450.064 58.8265 450.138 58.6655 450.168 58.4902C450.198 58.3149 450.183 58.1332 450.124 57.9681C450.065 57.8029 449.965 57.6618 449.837 57.5625C449.709 57.4632 449.559 57.4102 449.405 57.4102C449.302 57.4101 449.201 57.4335 449.107 57.4788C449.012 57.5242 448.927 57.5908 448.854 57.6747C448.782 57.7586 448.725 57.8582 448.685 57.9678C448.646 58.0774 448.626 58.1949 448.626 58.3136Z" fill="#97E7E2"/>
<path d="M441.939 58.3136C441.939 58.4923 441.984 58.6671 442.07 58.8157C442.155 58.9643 442.277 59.0802 442.419 59.1486C442.561 59.2171 442.718 59.235 442.869 59.2001C443.02 59.1653 443.159 59.0792 443.268 58.9528C443.376 58.8264 443.451 58.6654 443.481 58.49C443.511 58.3147 443.495 58.133 443.436 57.9679C443.377 57.8027 443.278 57.6616 443.149 57.5623C443.021 57.4631 442.871 57.4101 442.717 57.4102C442.511 57.4102 442.313 57.5053 442.167 57.6748C442.021 57.8442 441.939 58.074 441.939 58.3136Z" fill="#97E7E2"/>
<path d="M435.249 58.3136C435.249 58.4922 435.294 58.6669 435.38 58.8155C435.465 58.964 435.587 59.0798 435.729 59.1482C435.871 59.2166 436.028 59.2345 436.179 59.1996C436.33 59.1647 436.468 59.0787 436.577 58.9524C436.686 58.826 436.76 58.665 436.79 58.4898C436.82 58.3146 436.805 58.1329 436.746 57.9678C436.687 57.8028 436.587 57.6617 436.459 57.5624C436.331 57.4631 436.181 57.4102 436.027 57.4102C435.821 57.4102 435.623 57.5053 435.477 57.6748C435.331 57.8442 435.249 58.074 435.249 58.3136Z" fill="#97E7E2"/>
<path d="M455.315 65.6768C455.315 65.8555 455.361 66.0302 455.446 66.1787C455.532 66.3273 455.653 66.4431 455.796 66.5115C455.938 66.5799 456.094 66.5978 456.245 66.5629C456.396 66.528 456.535 66.442 456.644 66.3156C456.752 66.1893 456.827 66.0283 456.857 65.8531C456.887 65.6778 456.871 65.4962 456.812 65.3311C456.753 65.1661 456.654 65.025 456.526 64.9257C456.398 64.8264 456.247 64.7734 456.093 64.7734C455.887 64.7734 455.689 64.8686 455.543 65.038C455.397 65.2075 455.315 65.4373 455.315 65.6768Z" fill="#97E7E2"/>
<path d="M448.626 65.6768C448.626 65.8556 448.672 66.0303 448.757 66.179C448.843 66.3276 448.964 66.4435 449.107 66.5119C449.249 66.5803 449.405 66.5983 449.556 66.5634C449.707 66.5286 449.846 66.4425 449.955 66.3162C450.064 66.1898 450.138 66.0288 450.168 65.8535C450.198 65.6782 450.183 65.4965 450.124 65.3313C450.065 65.1662 449.965 65.0251 449.837 64.9258C449.709 64.8264 449.559 64.7734 449.405 64.7734C449.198 64.7734 449 64.8686 448.854 65.038C448.708 65.2074 448.626 65.4372 448.626 65.6768Z" fill="#97E7E2"/>
<path d="M441.939 65.6768C441.939 65.8556 441.984 66.0303 442.07 66.179C442.155 66.3276 442.277 66.4435 442.419 66.5119C442.561 66.5804 442.718 66.5983 442.869 66.5634C443.02 66.5286 443.159 66.4425 443.268 66.3161C443.376 66.1897 443.451 66.0287 443.481 65.8533C443.511 65.678 443.495 65.4963 443.436 65.3312C443.377 65.166 443.278 65.0249 443.149 64.9256C443.021 64.8264 442.871 64.7734 442.717 64.7734C442.511 64.7735 442.313 64.8687 442.167 65.0381C442.021 65.2075 441.939 65.4373 441.939 65.6768Z" fill="#97E7E2"/>
<path d="M435.249 65.6768C435.249 65.8555 435.294 66.0302 435.38 66.1787C435.465 66.3273 435.587 66.4431 435.729 66.5115C435.871 66.5799 436.028 66.5978 436.179 66.5629C436.33 66.528 436.468 66.442 436.577 66.3156C436.686 66.1893 436.76 66.0283 436.79 65.8531C436.82 65.6778 436.805 65.4962 436.746 65.3311C436.687 65.1661 436.587 65.025 436.459 64.9257C436.331 64.8264 436.181 64.7734 436.027 64.7734C435.821 64.7734 435.623 64.8686 435.477 65.038C435.331 65.2075 435.249 65.4373 435.249 65.6768Z" fill="#97E7E2"/>
<path d="M455.315 73.0421C455.315 73.2208 455.361 73.3954 455.446 73.544C455.532 73.6925 455.653 73.8083 455.796 73.8767C455.938 73.9451 456.094 73.963 456.245 73.9281C456.396 73.8933 456.535 73.8072 456.644 73.6809C456.752 73.5545 456.827 73.3936 456.857 73.2183C456.887 73.0431 456.871 72.8614 456.812 72.6964C456.753 72.5313 456.654 72.3902 456.526 72.2909C456.398 72.1917 456.247 72.1387 456.093 72.1387C455.887 72.1387 455.689 72.2338 455.543 72.4033C455.397 72.5727 455.315 72.8025 455.315 73.0421Z" fill="#97E7E2"/>
<path d="M448.626 73.0421C448.626 73.2208 448.672 73.3956 448.757 73.5442C448.843 73.6928 448.964 73.8087 449.107 73.8771C449.249 73.9456 449.405 73.9635 449.556 73.9287C449.707 73.8938 449.846 73.8078 449.955 73.6814C450.064 73.555 450.138 73.394 450.168 73.2187C450.198 73.0434 450.183 72.8617 450.124 72.6966C450.065 72.5314 449.965 72.3903 449.837 72.291C449.709 72.1917 449.559 72.1387 449.405 72.1387C449.302 72.1386 449.201 72.162 449.107 72.2074C449.012 72.2528 448.927 72.3193 448.854 72.4032C448.782 72.4871 448.725 72.5867 448.685 72.6963C448.646 72.8059 448.626 72.9234 448.626 73.0421Z" fill="#97E7E2"/>
<path d="M441.939 73.0421C441.939 73.2208 441.984 73.3956 442.07 73.5442C442.155 73.6929 442.277 73.8087 442.419 73.8772C442.561 73.9456 442.718 73.9635 442.869 73.9286C443.02 73.8938 443.159 73.8077 443.268 73.6813C443.376 73.5549 443.451 73.3939 443.481 73.2186C443.511 73.0433 443.495 72.8615 443.436 72.6964C443.377 72.5313 443.278 72.3901 443.149 72.2909C443.021 72.1916 442.871 72.1386 442.717 72.1387C442.511 72.1387 442.313 72.2338 442.167 72.4033C442.021 72.5727 441.939 72.8025 441.939 73.0421Z" fill="#97E7E2"/>
<path d="M435.249 73.0421C435.249 73.2208 435.294 73.3954 435.38 73.544C435.465 73.6925 435.587 73.8083 435.729 73.8767C435.871 73.9451 436.028 73.963 436.179 73.9281C436.33 73.8933 436.468 73.8072 436.577 73.6809C436.686 73.5545 436.76 73.3936 436.79 73.2183C436.82 73.0431 436.805 72.8614 436.746 72.6964C436.687 72.5313 436.587 72.3902 436.459 72.2909C436.331 72.1917 436.181 72.1387 436.027 72.1387C435.821 72.1387 435.623 72.2338 435.477 72.4033C435.331 72.5727 435.249 72.8025 435.249 73.0421Z" fill="#97E7E2"/>
<path d="M455.315 22.2882C455.315 22.4669 455.361 22.6415 455.446 22.7901C455.532 22.9386 455.653 23.0544 455.796 23.1228C455.938 23.1912 456.094 23.2091 456.245 23.1742C456.396 23.1394 456.535 23.0533 456.644 22.927C456.752 22.8006 456.827 22.6397 456.857 22.4644C456.887 22.2892 456.871 22.1075 456.812 21.9425C456.753 21.7774 456.654 21.6363 456.526 21.537C456.398 21.4378 456.247 21.3848 456.093 21.3848C455.887 21.3848 455.689 21.4799 455.543 21.6494C455.397 21.8188 455.315 22.0486 455.315 22.2882Z" fill="#97E7E2"/>
<path d="M448.626 22.2882C448.626 22.4669 448.672 22.6416 448.757 22.7903C448.843 22.9389 448.964 23.0548 449.107 23.1232C449.249 23.1917 449.405 23.2096 449.556 23.1748C449.707 23.1399 449.846 23.0539 449.955 22.9275C450.064 22.8011 450.138 22.6401 450.168 22.4648C450.198 22.2895 450.183 22.1078 450.124 21.9427C450.065 21.7775 449.965 21.6364 449.837 21.5371C449.709 21.4378 449.559 21.3848 449.405 21.3848C449.302 21.3847 449.201 21.4081 449.107 21.4535C449.012 21.4988 448.927 21.5654 448.854 21.6493C448.782 21.7332 448.725 21.8328 448.685 21.9424C448.646 22.052 448.626 22.1695 448.626 22.2882Z" fill="#97E7E2"/>
<path d="M441.939 22.2882C441.939 22.4669 441.984 22.6417 442.07 22.7903C442.155 22.939 442.277 23.0548 442.419 23.1233C442.561 23.1917 442.718 23.2096 442.869 23.1747C443.02 23.1399 443.159 23.0538 443.268 22.9274C443.376 22.801 443.451 22.64 443.481 22.4647C443.511 22.2893 443.495 22.1076 443.436 21.9425C443.377 21.7774 443.278 21.6362 443.149 21.537C443.021 21.4377 442.871 21.3847 442.717 21.3848C442.511 21.3848 442.313 21.4799 442.167 21.6494C442.021 21.8188 441.939 22.0486 441.939 22.2882Z" fill="#97E7E2"/>
<path d="M435.249 22.2882C435.249 22.4669 435.294 22.6415 435.38 22.7901C435.465 22.9386 435.587 23.0544 435.729 23.1228C435.871 23.1912 436.028 23.2091 436.179 23.1742C436.33 23.1394 436.468 23.0533 436.577 22.927C436.686 22.8006 436.76 22.6397 436.79 22.4644C436.82 22.2892 436.805 22.1075 436.746 21.9425C436.687 21.7774 436.587 21.6363 436.459 21.537C436.331 21.4378 436.181 21.3848 436.027 21.3848C435.821 21.3848 435.623 21.4799 435.477 21.6494C435.331 21.8188 435.249 22.0486 435.249 22.2882Z" fill="#97E7E2"/>
<path d="M455.315 29.6514C455.315 29.8301 455.361 30.0048 455.446 30.1534C455.532 30.3019 455.653 30.4177 455.796 30.4861C455.938 30.5545 456.094 30.5724 456.245 30.5375C456.396 30.5026 456.535 30.4166 456.644 30.2903C456.752 30.1639 456.827 30.0029 456.857 29.8277C456.887 29.6525 456.871 29.4708 456.812 29.3057C456.753 29.1407 456.654 28.9996 456.526 28.9003C456.398 28.801 456.247 28.748 456.093 28.748C455.887 28.748 455.689 28.8432 455.543 29.0127C455.397 29.1821 455.315 29.4119 455.315 29.6514Z" fill="#97E7E2"/>
<path d="M448.626 29.6514C448.626 29.8302 448.672 30.0049 448.757 30.1536C448.843 30.3022 448.964 30.4181 449.107 30.4865C449.249 30.5549 449.405 30.5729 449.556 30.538C449.707 30.5032 449.846 30.4172 449.955 30.2908C450.064 30.1644 450.138 30.0034 450.168 29.8281C450.198 29.6528 450.183 29.4711 450.124 29.306C450.065 29.1408 449.965 28.9997 449.837 28.9004C449.709 28.8011 449.559 28.748 449.405 28.748C449.198 28.748 449 28.8432 448.854 29.0126C448.708 29.1821 448.626 29.4118 448.626 29.6514Z" fill="#97E7E2"/>
<path d="M441.939 29.6514C441.939 29.8302 441.984 30.005 442.07 30.1536C442.155 30.3022 442.277 30.4181 442.419 30.4865C442.561 30.555 442.718 30.5729 442.869 30.538C443.02 30.5032 443.159 30.4171 443.268 30.2907C443.376 30.1643 443.451 30.0033 443.481 29.8279C443.511 29.6526 443.495 29.4709 443.436 29.3058C443.377 29.1406 443.278 28.9995 443.149 28.9002C443.021 28.801 442.871 28.748 442.717 28.748C442.511 28.7481 442.313 28.8433 442.167 29.0127C442.021 29.1821 441.939 29.4119 441.939 29.6514Z" fill="#97E7E2"/>
<path d="M435.249 29.6514C435.249 29.8301 435.294 30.0048 435.38 30.1534C435.465 30.3019 435.587 30.4177 435.729 30.4861C435.871 30.5545 436.028 30.5724 436.179 30.5375C436.33 30.5026 436.468 30.4166 436.577 30.2903C436.686 30.1639 436.76 30.0029 436.79 29.8277C436.82 29.6525 436.805 29.4708 436.746 29.3057C436.687 29.1407 436.587 28.9996 436.459 28.9003C436.331 28.801 436.181 28.748 436.027 28.748C435.821 28.748 435.623 28.8432 435.477 29.0127C435.331 29.1821 435.249 29.4119 435.249 29.6514Z" fill="#97E7E2"/>
<path d="M455.315 37.0147C455.315 37.1934 455.361 37.3681 455.446 37.5166C455.532 37.6652 455.653 37.781 455.796 37.8494C455.938 37.9177 456.094 37.9356 456.245 37.9008C456.396 37.8659 456.535 37.7799 456.644 37.6535C456.752 37.5272 456.827 37.3662 456.857 37.191C456.887 37.0157 456.871 36.8341 456.812 36.669C456.753 36.5039 456.654 36.3628 456.526 36.2636C456.398 36.1643 456.247 36.1113 456.093 36.1113C455.887 36.1113 455.689 36.2065 455.543 36.3759C455.397 36.5453 455.315 36.7751 455.315 37.0147Z" fill="#97E7E2"/>
<path d="M448.627 37.0147C448.627 37.1935 448.673 37.3682 448.758 37.5169C448.844 37.6655 448.965 37.7814 449.108 37.8498C449.25 37.9182 449.406 37.9362 449.557 37.9013C449.708 37.8665 449.847 37.7804 449.956 37.6541C450.065 37.5277 450.139 37.3667 450.169 37.1914C450.199 37.0161 450.184 36.8344 450.125 36.6692C450.066 36.5041 449.966 36.3629 449.838 36.2636C449.71 36.1643 449.56 36.1113 449.406 36.1113C449.303 36.1113 449.202 36.1346 449.108 36.18C449.013 36.2254 448.927 36.2919 448.855 36.3758C448.783 36.4597 448.726 36.5593 448.686 36.669C448.647 36.7786 448.627 36.8961 448.627 37.0147Z" fill="#97E7E2"/>
<path d="M441.939 37.0147C441.939 37.1935 441.984 37.3682 442.07 37.5169C442.155 37.6655 442.277 37.7814 442.419 37.8498C442.561 37.9182 442.718 37.9362 442.869 37.9013C443.02 37.8664 443.159 37.7804 443.268 37.654C443.376 37.5276 443.451 37.3665 443.481 37.1912C443.511 37.0159 443.495 36.8342 443.436 36.669C443.377 36.5039 443.278 36.3628 443.149 36.2635C443.021 36.1642 442.871 36.1113 442.717 36.1113C442.511 36.1113 442.313 36.2065 442.167 36.3759C442.021 36.5453 441.939 36.7751 441.939 37.0147Z" fill="#97E7E2"/>
<path d="M435.249 37.0147C435.249 37.1934 435.294 37.3681 435.38 37.5166C435.465 37.6652 435.587 37.781 435.729 37.8494C435.871 37.9177 436.028 37.9356 436.179 37.9008C436.33 37.8659 436.468 37.7799 436.577 37.6535C436.686 37.5272 436.76 37.3662 436.79 37.191C436.82 37.0157 436.805 36.8341 436.746 36.669C436.687 36.5039 436.587 36.3628 436.459 36.2636C436.331 36.1643 436.181 36.1113 436.027 36.1113C435.821 36.1113 435.623 36.2065 435.477 36.3759C435.331 36.5453 435.249 36.7751 435.249 37.0147Z" fill="#97E7E2"/>
<path d="M455.315 44.378C455.315 44.5567 455.361 44.7314 455.446 44.8799C455.532 45.0285 455.653 45.1443 455.796 45.2127C455.938 45.281 456.094 45.2989 456.245 45.2641C456.396 45.2292 456.535 45.1432 456.644 45.0168C456.752 44.8905 456.827 44.7295 456.857 44.5543C456.887 44.379 456.871 44.1974 456.812 44.0323C456.753 43.8672 456.654 43.7261 456.526 43.6269C456.398 43.5276 456.247 43.4746 456.093 43.4746C455.887 43.4746 455.689 43.5698 455.543 43.7392C455.397 43.9086 455.315 44.1384 455.315 44.378Z" fill="#97E7E2"/>
<path d="M448.627 44.378C448.627 44.5568 448.673 44.7315 448.758 44.8801C448.844 45.0288 448.965 45.1446 449.108 45.2131C449.25 45.2815 449.406 45.2994 449.557 45.2646C449.708 45.2298 449.847 45.1437 449.956 45.0174C450.065 44.891 450.139 44.73 450.169 44.5547C450.199 44.3794 450.184 44.1977 450.125 44.0325C450.066 43.8674 449.966 43.7262 449.838 43.6269C449.71 43.5276 449.56 43.4746 449.406 43.4746C449.199 43.4746 449.001 43.5698 448.855 43.7392C448.709 43.9086 448.627 44.1384 448.627 44.378Z" fill="#97E7E2"/>
<path d="M441.939 44.378C441.939 44.5568 441.984 44.7315 442.07 44.8802C442.155 45.0288 442.277 45.1447 442.419 45.2131C442.561 45.2815 442.718 45.2994 442.869 45.2646C443.02 45.2297 443.159 45.1437 443.268 45.0173C443.376 44.8909 443.451 44.7298 443.481 44.5545C443.511 44.3792 443.495 44.1975 443.436 44.0323C443.377 43.8672 443.278 43.7261 443.149 43.6268C443.021 43.5275 442.871 43.4746 442.717 43.4746C442.511 43.4747 442.313 43.5699 442.167 43.7393C442.021 43.9087 441.939 44.1384 441.939 44.378Z" fill="#97E7E2"/>
<path d="M435.249 44.378C435.249 44.5567 435.294 44.7314 435.38 44.8799C435.465 45.0285 435.587 45.1443 435.729 45.2127C435.871 45.281 436.028 45.2989 436.179 45.2641C436.33 45.2292 436.468 45.1432 436.577 45.0168C436.686 44.8905 436.76 44.7295 436.79 44.5543C436.82 44.379 436.805 44.1974 436.746 44.0323C436.687 43.8672 436.587 43.7261 436.459 43.6269C436.331 43.5276 436.181 43.4746 436.027 43.4746C435.821 43.4746 435.623 43.5698 435.477 43.7392C435.331 43.9086 435.249 44.1384 435.249 44.378Z" fill="#97E7E2"/>
<path d="M522.74 160.774L568.901 107.187C570.788 104.997 572.284 102.398 573.305 99.5365C574.326 96.6755 574.851 93.609 574.851 90.5123C574.851 87.4155 574.326 84.349 573.305 81.488C572.284 78.6269 570.788 76.0273 568.901 73.8376L522.74 20.2507C520.853 18.0609 518.614 16.3239 516.149 15.1388C513.685 13.9537 511.043 13.3438 508.376 13.3438C505.708 13.3438 503.066 13.9537 500.602 15.1388C498.137 16.3239 495.898 18.0609 494.012 20.2507L447.85 73.8376C445.964 76.0273 444.467 78.6269 443.447 81.488C442.426 84.349 441.9 87.4155 441.9 90.5123C441.9 93.609 442.426 96.6755 443.447 99.5365C444.467 102.398 445.964 104.997 447.85 107.187L494.012 160.774C495.898 162.964 498.137 164.701 500.602 165.886C503.066 167.071 505.708 167.681 508.376 167.681C511.043 167.681 513.685 167.071 516.149 165.886C518.614 164.701 520.853 162.964 522.74 160.774Z" fill="#18727A"/>
</g>
<g opacity="0.45">
<mask id="mask3_10263_140992" style="mask-type:alpha" maskUnits="userSpaceOnUse" x="-134" y="299" width="204" height="204">
<path opacity="0.22" d="M-53.8779 308.862L-124.137 379.122C-136.212 391.196 -136.212 410.773 -124.137 422.847L-53.8779 493.106C-41.8035 505.181 -22.227 505.181 -10.1526 493.106L60.1068 422.847C72.1812 410.773 72.1812 391.196 60.1068 379.122L-10.1526 308.862C-22.227 296.788 -41.8035 296.788 -53.8779 308.862Z" fill="#07909C"/>
</mask>
<g mask="url(#mask3_10263_140992)">
<rect x="-2.08398" y="312.246" width="72.1353" height="176.731" fill="#D9D9D9"/>
</g>
</g>
<mask id="mask4_10263_140992" style="mask-type:alpha" maskUnits="userSpaceOnUse" x="0" y="146" width="512" height="706">
<rect width="512" height="706" rx="10" transform="matrix(1 0 0 -1 0 852)" fill="#086972"/>
</mask>
<g mask="url(#mask4_10263_140992)">
<g opacity="0.21">
<path opacity="0.3" d="M1283.94 -7.17894C1307.11 -24.1838 1349.22 -64.3745 1365.1 -84.6423C1369.83 -90.6801 1374.23 -95.7873 1374.88 -95.9908C1377.04 -96.6685 1363.72 -59.8988 1347.4 -20.1135C1284.52 133.152 1198.31 243.622 1091.72 307.456C1040.52 338.12 996.915 354.062 924.405 368.614C844.676 384.617 803.988 386.925 649.327 384.217C493.204 381.481 467.739 382.737 400.924 396.47C339.867 409.015 316.103 418.49 279.271 444.959C268.164 452.941 258.202 458.898 257.138 458.195C256.074 457.487 261.265 442.037 268.675 423.855C294.798 359.755 346.702 297.18 404.323 260.318C490.274 205.332 583.549 178.665 822.163 140.852C1075.14 100.765 1184.75 65.6255 1283.94 -7.17894Z" fill="white" fill-opacity="0.47"/>
<path d="M210.996 434.549C232.406 291.779 312.368 165.619 311.612 166.001C241.896 201.223 96.2228 471.191 42.1799 616.918C21.4593 672.791 -10 749.01 -10 749.01C-10 749.01 239.603 476.479 147.928 919.092C141.478 968.12 139.798 980.133 140.544 980.279C140.86 980.341 141.612 978.268 142.621 975.98C348.178 800.131 235.055 668.99 311.612 640.276C358.233 622.789 384.88 640.044 439.339 645.512C544.292 656.048 596.831 649.272 655.338 617.649C694.933 596.25 743.289 554.471 778.003 511.669C802.793 481.101 836.63 434.511 839.96 426.36L843.056 418.78L835.804 426.364C813.49 449.705 777.026 466.425 726.512 476.479C681.482 485.441 649.812 487.024 547.99 485.403C502.113 484.673 453.044 484.441 438.946 484.886C361.502 487.341 263.912 503.159 195.689 536.611L210.996 434.549Z" fill="white" fill-opacity="0.33"/>
</g>
</g>
</g>
</svg>
